<?xml version="1.0" encoding="UTF-8" standalone="no"?>
<!-- Created with Inkscape (http://www.inkscape.org/) -->

<svg
   width="52.916668mm"
   height="52.916668mm"
   viewBox="0 0 52.916668 52.916668"
   version="1.1"
   id="svg8"
   inkscape:version="1.1 (c68e22c387, 2021-05-23)"
   sodipodi:docname="big-pepper-1.svg"
   inkscape:export-filename="C:\Users\elena\Desktop\pepper.png"
   inkscape:export-xdpi="300"
   inkscape:export-ydpi="300"
   xmlns:inkscape="http://www.inkscape.org/namespaces/inkscape"
   xmlns:sodipodi="http://sodipodi.sourceforge.net/DTD/sodipodi-0.dtd"
   xmlns="http://www.w3.org/2000/svg"
   xmlns:svg="http://www.w3.org/2000/svg"
   xmlns:rdf="http://www.w3.org/1999/02/22-rdf-syntax-ns#"
   xmlns:cc="http://creativecommons.org/ns#"
   xmlns:dc="http://purl.org/dc/elements/1.1/">
  <defs
     id="defs2" />
  <sodipodi:namedview
     id="base"
     pagecolor="#ffffff"
     bordercolor="#666666"
     borderopacity="1.0"
     inkscape:pageopacity="0.0"
     inkscape:pageshadow="2"
     inkscape:zoom="1"
     inkscape:cx="-195"
     inkscape:cy="180"
     inkscape:document-units="mm"
     inkscape:current-layer="layer2"
     showgrid="false"
     inkscape:window-width="1272"
     inkscape:window-height="974"
     inkscape:window-x="386"
     inkscape:window-y="37"
     inkscape:window-maximized="0"
     inkscape:snap-global="false"
     fit-margin-top="0"
     fit-margin-left="0"
     fit-margin-right="0"
     fit-margin-bottom="0"
     inkscape:pagecheckerboard="0" />
  <metadata
     id="metadata5">
    <rdf:RDF>
      <cc:Work
         rdf:about="">
        <dc:format>image/svg+xml</dc:format>
        <dc:type
           rdf:resource="http://purl.org/dc/dcmitype/StillImage" />
      </cc:Work>
    </rdf:RDF>
  </metadata>
  <g
     inkscape:groupmode="layer"
     id="layer2"
     inkscape:label="Layer 2"
     style="display:inline"
     transform="translate(-60.162182,-142.38984)" />
  <g
     inkscape:groupmode="layer"
     id="layer3"
     inkscape:label="Layer 3"
     transform="translate(-60.162182,-142.38984)">
    <g
       id="g39">
      <g
         id="g44"
         transform="matrix(0.46114084,-1.285188,-1.0221837,-0.65593734,193.43342,431.07593)">
        <path
           style="display:inline;opacity:1;fill:#ff0000;fill-opacity:1;fill-rule:evenodd;stroke:none;stroke-width:0.26458332;paint-order:stroke markers fill"
           d="m 117.24969,144.23099 c 0.72935,2.39629 -8.39845,3.26853 -8.39845,3.26853 -2.15587,7.95048 0.0367,16.17292 2.00504,23.91896 0.92258,2.87444 1.63109,6.00232 3.61477,8.35504 3.12097,3.37825 7.27283,6.68048 12.12587,6.42752 1.71984,0.0463 6.4763,-3.29206 3.49178,-3.71606 -2.98452,-0.424 -5.32898,0.0187 -6.99079,-2.3182 -2.56204,-3.17019 -3.67459,-7.26098 -4.3186,-11.21792 -0.4622,-4.04748 0.63401,-8.04352 0.7674,-12.0804 0.30632,-4.29559 0.002,-8.8954 -2.29702,-12.63747 z"
           id="path4520"
           inkscape:connector-curvature="0" />
        <path
           inkscape:connector-curvature="0"
           id="path4529"
           d="m 116.51116,131.54092 c -1.69474,2.91793 -3.68582,5.96688 -3.62684,9.47451 -1.73561,1.83878 -4.03698,3.72315 -4.03332,6.484 0,0 10.84831,-1.0358 7.94927,-3.95311 -1.34247,-2.10836 -2.13857,-4.87881 -0.84406,-7.20454 0.7926,-1.36809 3.49924,-4.17369 1.04656,-4.92524 l -0.24818,0.0532 z"
           style="display:inline;opacity:1;fill:#008000;fill-opacity:1;fill-rule:evenodd;stroke:none;stroke-width:0.26458332;paint-order:stroke markers fill"
           sodipodi:nodetypes="cccccccc" />
        <path
           id="path4532"
           transform="matrix(0.26458333,0,0,0.26458333,107.96114,131.41654)"
           style="opacity:0.59299999;fill:#ffffff;fill-opacity:1;fill-rule:evenodd;stroke:none;stroke-width:0.99999994;paint-order:stroke markers fill"
           d="m 29.759766,61.619141 c -3.548771,0.09213 -9.210401,16.674407 -6.511719,22.738281 3.469946,16.742668 0.06907,33.928578 2.345703,50.779298 6.433398,11.52472 4.426361,25.42761 9.361328,37.45312 1.408365,6.8606 4.282108,14.15434 10.753906,17.69727 5.306041,4.24532 10.137279,6.0669 17.900391,9.76562 7.763112,3.69873 22.27287,-2.76197 11.136719,-1.38085 -11.136151,1.38111 -30.548689,-13.44422 -35.146485,-28.98829 -2.762985,-8.10493 -4.710993,-16.47806 -5.341797,-25.04297 -0.685719,-13.01 -5.770886,-25.64121 -4.140624,-38.78906 0.764636,-14.841295 4.125644,-37.274073 1.003906,-43.183591 -0.390218,-0.73869 -0.854361,-1.06199 -1.361328,-1.048828 z"
           inkscape:connector-curvature="0" />
      </g>
    </g>
  </g>
</svg>
