<?xml version='1.0' encoding='utf-8'?>
<svg xmlns="http://www.w3.org/2000/svg" viewBox="0 0 568.86 521.71"><defs><style>.cls-1{fill:#8c0000;}.cls-2{fill:#db0000;}.cls-3{fill:#fbdac7;}.cls-4{fill:#796656;}.cls-28,.cls-5{fill:#fff;}.cls-6{fill:#e0d2ce;}.cls-7{fill:#38342f;}.cls-8{fill:#0092ff;}.cls-9{fill:#c6685c;}.cls-10{fill:#f9da78;}.cls-11{fill:#edb254;}.cls-12{fill:#77302c;}.cls-13{fill:#e8a892;}.cls-14{fill:#212121;}.cls-15{fill:#bc9377;}.cls-16{fill:#fff6f3;}.cls-17,.cls-18,.cls-19,.cls-20{fill:none;}.cls-17,.cls-18,.cls-19,.cls-20,.cls-23,.cls-25,.cls-26,.cls-28,.cls-29{stroke:#000;}.cls-17,.cls-18{stroke-linecap:round;stroke-linejoin:round;}.cls-17,.cls-20{stroke-width:2.5px;}.cls-18,.cls-19,.cls-23,.cls-25,.cls-26,.cls-28,.cls-29{stroke-width:2px;}.cls-19,.cls-20,.cls-23,.cls-25,.cls-26,.cls-28,.cls-29{stroke-miterlimit:10;}.cls-21,.cls-23{fill:#c4912a;}.cls-22{fill:#a36f1c;}.cls-24{fill:#fffecc;}.cls-25,.cls-27{fill:#078400;}.cls-26{fill:#0eb506;}.cls-29{fill:#ffb948;}.cls-30{fill:#067f00;}.cls-31{fill:#ffed69;}</style></defs><title>cow_2</title><g id="Layer_5" data-name="Layer 5"><path class="cls-1" d="M323.86,521.71A245,245,0,0,1,150.62,103.47,245,245,0,0,1,497.1,450,243.4,243.4,0,0,1,323.86,521.71Zm0-450c-113,0-205,92-205,205s92,205,205,205,205-92,205-205S436.9,71.71,323.86,71.71Z"/><path class="cls-2" d="M323.86,516.71A245,245,0,0,1,150.62,98.47,245,245,0,0,1,497.1,445,243.4,243.4,0,0,1,323.86,516.71Zm0-450c-113,0-205,92-205,205s92,205,205,205,205-92,205-205S436.9,66.71,323.86,66.71Z"/></g><g id="Layer_4" data-name="Layer 4"><path class="cls-3" d="M127,128.46s12.92-4.83,20.92.83,8.17,8.75,8.17,12.42v7.75s20.17,18.08,26,36.75,6.08,23.67,4.75,43.5S166.61,272.8,154.11,280s-20.25,16.75-42.25,19.25-53.58-.58-58.75-3.08-21.67-16.67-25-28.5c-5.67-1.5-12.28-1.26-18.33-7.83C2.11,251.46.38,239.63,1.88,225s4.29-48.08,4.29-50.75S3.78,165,2.61,155c-1.67-7.33,2-23.42,7.5-24.75,9.5-3,22.5,5.75,22.5,5.75s20.75-13.83,39.75-15.5C108.53,116.8,127,128.46,127,128.46Z"/><path class="cls-4" d="M191.24,45.12c-6.69-2.11-17.69-7.75-26.76-19-5.63-6.34-5.28-15.84-12.67-14.79s-9.51,18.31-8.1,33.8S156.15,73.2,156.15,73.2C161.14,54.8,191.24,45.12,191.24,45.12Z"/><path class="cls-4" d="M298.36,44.13s22-12.33,30.33-21.33S350,.8,352.7,1.46s6,8.67,5,17.67-6,25.67-10.33,35-16.33,22.33-22,24S310.7,77.8,305,72.8,295,48.13,298.36,44.13Z"/><path class="cls-5" d="M146.7,128.3c13.33,5.83,8.83,20.83,8.83,20.83s28.83,24.33,32.17,62.67S165,272.13,165,272.13s36-1,41.33-.67,36.67,7,36.67,7,9,5,18,10.67,17,18.33,21,28,.33,49.67,0,61,0,26.67,4.33,51.67c2.53,14.62,9.85,33,15.49,45.73a206.24,206.24,0,0,0,22,1.19c95.92,0,176.65-66.22,198.9-155.34C460.87,301.19,424,258,414,245.8s-22.33-35.33-30-48.33-24.33-61.33-24.33-61.33,14.33,18,47,20.67c22.33,1.67,58.67-11,61-12.33s2-4-2.33-10.33C427,92.13,355,86.46,347.7,86.8c-2.33-2.33-8.33-14.33-11.67-17-6.67,5.67-16.33,11.33-25.67,6.67s-13.33-23-13-28,4-5.67,4-5.67a139.42,139.42,0,0,0-20-3.42,100,100,0,0,0-40.17,4.08c-7.67-1.67-34.21-2.33-48.54,1.67-17.67,4.2-31,16.34-35,22s-1.26,18.48-1.26,18.48-13-3.5-26-2.83-32,9-32,9-11.33,3-12,8.33c2.67,11.33,30,23.33,30,23.33l10.67,5S137.07,123.59,146.7,128.3Z"/><path class="cls-5" d="M183.49,86.26c-2.5-4.33-4.13-6.46-9.13-5.79s-10.29,6-12,14.13-2,19.37,2,27.37c4-.83,10.54-1.47,13.54-2.8,3-3.17,8.28-13.82,7.28-20.82S183.49,86.26,183.49,86.26Z"/><path class="cls-3" d="M341.36,103.13s13,3,32.67,1.33,44.33,2.33,63.67,12.33S454,125,461.36,131.71s8.33,9.42,7.33,11.08S458,149.13,447,152.13s-44,9.33-66.67-1.67S349.7,123.8,349.7,123.8Z"/><path class="cls-6" d="M351.65,195.46s-11.29,58.33-20.29,73S326,309.34,326,309.34l17.86-7.65s4.05,6.65,9.58,10.43c-6.25,3.43-30.15,14-32.75,18.68-7.83,10.33-3,34-3,34s6.3,30.33,15.82,57.33-42.42,23.5-42.42,23.5-8.06-33.5-10.73-63.84-5-63.63-5-63.63-7.87-25.35-18.68-31.72-16.65-9-16.65-9a102.47,102.47,0,0,0,43.33-4.8c22.67-7.8,34-15.63,41.5-24.38C344.34,228.7,351.65,195.46,351.65,195.46Z"/><path class="cls-7" d="M236.61,44.46a15.46,15.46,0,0,1-1.9,1.45c-2.15,1.1-10.73,3.69-17,10.18-11.56,11.29-15.67,51.85-3.52,78.65,9.13,20.13,25.24,33.84,32.77,48.72,7.17,14.17,7,33.58,7.71,46.33s6.92,36.17,22.67,44.67c22.25-6.75,35.5-12.5,47.5-26.25s28.5-41.5,29.25-71.75a183.53,183.53,0,0,0-3.25-53s-8.5-15.5-8.25-17.25,4-1.5,9.5-.25,17,.5,22.5.5,32.75,2,46,6.5,33.5,12.5,40.75,18.75c-1.75-4.5-23.25-22-44.75-30a259,259,0,0,0-70-14.75c-.5-1.5-6.25-16-10.25-17.5-4.5,4-11.25,11.25-18,9.5s-15.75-8.25-18.25-14-5-16.5-2.5-19.25a10.26,10.26,0,0,1,4.75-3.25s-19.87-4-34.87-3.21S236.61,44.46,236.61,44.46Z"/><path class="cls-5" d="M253.86,77.63c8.18.29,15.83,3.83,19.83,16.67S276.53,121,270,132s-24.17,13.33-31.67,6.67-12.67-21-10.17-35.17S239.53,77.13,253.86,77.63Z"/><path class="cls-7" d="M366.86,155.71s.5,15.08-5,29.25c-4.33,14.33-14.5,37.75-17.75,48.25s-7,34.75-6,50.25,11.25,35.75,45.5,39.25,56.25-8.75,66.75-16.25a191.44,191.44,0,0,0,16.75-13.25s-25.5-15.25-39-28.75-22.25-26-27.5-38.5c-2.62-6.24-10.23-17.14-16.5-29a263.85,263.85,0,0,1-11.25-24.75Z"/><path class="cls-7" d="M301.69,475.51A205.19,205.19,0,0,0,379.55,469c-1.83-6-4.07-12.69-6.69-19.56-8-21-27.5-36.5-48-44.25s-41-.5-41-.5-1,22.25,6.75,44.75C293,456.47,297.66,466.87,301.69,475.51Z"/><path class="cls-6" d="M232.11,127.21a40.23,40.23,0,0,0,23.5,1.63c15.45-3.41,21.52-18.86,21.52-18.86s-.43,23.23-15.74,30.17c-12.36,4.93-17.86.59-21-1S232.11,127.21,232.11,127.21Z"/><path class="cls-6" d="M163.71,119.75a31,31,0,0,0,6-1.59,15.72,15.72,0,0,0,8.75-8.57c1.33-4.59.5-11.06.5-17.13-.19-3.05-1.73-9.12-3.94-11.54-2-8.59-6.12-16.19-8.08-17.32,1.83-.81,6-.53,11.08,5,2.4,1.67,4.69,12.88,4.69,12.88s3.5,16.1,0,28.52c-1.9,6.91-9.24,10.53-12.11,11a27.18,27.18,0,0,1-6.26,1Z"/><path class="cls-8" d="M184.74,99.46s1.79-5.08-1.88-6.42-5.67-1.25-7.58,1.08-5.17,7.33-4.58,12.92,1.59,14.22,3.25,13.92C184.74,119,184.74,99.46,184.74,99.46Z"/><path class="cls-9" d="M139,144.21c3.5,3.42,1,12.5-3.33,18.83-7.17,11.33-18.75,12.17-21.42,11.42s-3.13-2-3.75-4.33c-.46-1.72.93-13.25,8.25-20.25C130.28,139.13,136.7,142,139,144.21Z"/><path class="cls-9" d="M14,145.18c2.21-1.85,6.28-3.1,9.52.52a26.88,26.88,0,0,1,6,16.79c-.08,6.35-.92,13.6-4.73,13.69s-10.49-7-12-10.62S8.37,149.92,14,145.18Z"/><path class="cls-8" d="M255,94.09c4.25,0,11.88,4.63,12.38,13.88s-1,15.13-4.5,20.13-11.25,5.5-14.38,3.25-7.87-8.75-7.25-14.75,1.25-13.75,5.13-17.75A17,17,0,0,1,255,94.09Z"/><ellipse cx="254.86" cy="114.3" rx="9.83" ry="6.17" transform="translate(120.93 359.41) rotate(-85.5)"/><path d="M178.87,117.21a11.85,11.85,0,0,1-2.07-7.23c0-4.74,2-8.58,4.5-8.58a3.39,3.39,0,0,1,2.66,1.66C185.07,104.62,179.57,118.07,178.87,117.21Z"/><ellipse class="cls-5" cx="177.53" cy="102.55" rx="4.25" ry="4.33" transform="translate(13.92 226.09) rotate(-67.07)"/><ellipse class="cls-5" cx="249.03" cy="106.05" rx="4.25" ry="4.33" transform="translate(54.33 294.07) rotate(-67.07)"/><path class="cls-10" d="M334.86,266.46c14.12-9,44.33-40.67,47.67-53s1.33-17.83,1.33-17.83,2.17-.83,4.5,1.83,14,23.67,14.83,26.5.5,8.83-.83,14.67-20,40.33-48.17,56.5S297,320.46,282.53,315c-8.67-4.67-19.83-21.5-19.83-21.5l1.17-2.17s.83,2.33,6.33,1S309.2,282.8,334.86,266.46Z"/><path class="cls-11" d="M389.2,201.38s4.12,7-11.74,31.06c-8.6,13.12-27.1,32.69-52.26,45.52a222,222,0,0,1-52,18.5v5l18,15.12s34-.6,60.5-20.27c30.5-20.83,50.74-45,52-67.5C399.66,218.39,389.2,201.38,389.2,201.38Z"/><path class="cls-3" d="M88.2,102.46s2.67-1.67,16.5-3.5,25.67-2,34.83.33,17.72,5.08,17.72,5.08-.68,6.59-20.47,10.84c-6.62,2.25-14.06,10.5-14.06,10.5S102,119,98.36,114.63,88.2,102.46,88.2,102.46Z"/><path class="cls-12" d="M24.88,146.78a4.71,4.71,0,0,0-4.89,0c-2.53,1.55-4.8,5.64-2.26,13.69s8,14.22,9.38,13.94,3.25-5.16,2.54-11.46A41.84,41.84,0,0,0,24.88,146.78Z"/><path class="cls-12" d="M118.56,158.23s7-12.83,19.72-14c8.59,2.83-4.19,21.06-4.19,21.06s-14,12-18.48,9.33S118.56,158.23,118.56,158.23Z"/><path class="cls-13" d="M3.08,248.51a23.06,23.06,0,0,0,17.39,8.18c11.33.11,17.05,0,26.89,0,14.75,0,40.33,10.07,58,8.4s31.83-10,36-13.46a96.93,96.93,0,0,0,12.06-9.95,4.17,4.17,0,0,1,3.37,2.31c1.09,1.92.9,2.64.9,2.64a48.08,48.08,0,0,0,13.8-.61c9.88-1.94,13.37-6.14,13.37-6.14s.15,2.43-3.33,9.42-18.25,36.33-63.75,48.12c-46,8.79-69.78-4-75.39-8.55S28.86,273.49,26.7,266.56c-5.5-2.1-11.67-2.26-16.92-6.76A22.82,22.82,0,0,1,3.08,248.51Z"/><path class="cls-13" d="M132.36,177.63s15.33-8.42,21.75-24.42a14.19,14.19,0,0,1,2-3.75s5.26,4.49,7.58,7.67c-.58,3.58-6.08,9.92-14,14.75A46.17,46.17,0,0,1,132.36,177.63Z"/><path class="cls-13" d="M14.78,182.71a31.51,31.51,0,0,1-7.42-10.48,33.59,33.59,0,0,0-1,3.7C5.85,178.66,9,181,10.56,181.7A17.67,17.67,0,0,0,14.78,182.71Z"/><path class="cls-6" d="M184.33,241.68s19.52-.41,34.53,3.91c10,2.88,30.43,6.52,40.63,5.86,6.56,18,17.87,23,17.87,23s-21.67,7.69-44.5,2.93-23.82-6.23-39.66-5.9-29.51.22-29.51.22,10.45-11.12,15.22-18.77S184.33,241.68,184.33,241.68Z"/><path class="cls-14" d="M259.49,251.45s23.87-1,51.7-13.66c19.15-8.72,39.5-38.5,39.5-38.5s-4.56,23.27-20.62,42.38-37.89,30.62-52.72,32.78C264.86,267.84,259.49,251.45,259.49,251.45Z"/><path class="cls-14" d="M298.71,61.19s3.22,17.27,10.05,24.42,19.42,7.46,24.75-1a20.68,20.68,0,0,0,3-14S328.8,78.94,322.75,79,304.89,76.74,298.71,61.19Z"/><path class="cls-14" d="M406.11,236.88s1.84,13.3-13,39.47a86.48,86.48,0,0,1-39.66,35.77,44.83,44.83,0,0,1-5.47-5,33.9,33.9,0,0,1-4.11-5.44S380.2,278,392.2,258.46s11.45-26,11.45-26Z"/><path class="cls-14" d="M354.62,474.41s-5.15-10.59-13.5-31.75c-4.55-11.53-12.65-36-12.65-36a55,55,0,0,0-18.83-4.81,74.71,74.71,0,0,0-25.78,2.86s1.21,27.6,4.62,37.81,13.21,33,13.21,33a168.27,168.27,0,0,0,18.75,1.18A259,259,0,0,0,354.62,474.41Z"/><path class="cls-13" d="M374.2,146.3c8,.46,25.83,3,41-6.33s17.92-22.45,17.92-22.45S407,107.37,379.56,106.66s-30-1.51-33.7-1.69-4.21.05.58,10.12S366.2,145.84,374.2,146.3Z"/><path class="cls-13" d="M113.06,98s-1.51,5.19,1.68,13.17S125.57,123,125.57,123a35.76,35.76,0,0,1,13.23-7.39c8.17-2.5,15-3.5,18-10.25-2.67-2-10.56-5.69-20.07-6.73S113.06,98,113.06,98Z"/><path class="cls-15" d="M300.55,63.41S320.9,51.27,331.7,40.1C345.28,26,353,4.82,351.72,5.91s-16.78,17.47-25.57,24.22c-7.35,5.64-23,15.83-28.39,17.6C296.25,53.32,300.55,63.41,300.55,63.41Z"/><path class="cls-15" d="M149.36,18.71c2-1.16,5,12.42,11.25,22.08s11,13.89,11,13.89-10.55,7.65-13,12.64c-2.62-.75-7.4-12.37-9.51-19.45C147.14,41,145.78,20.8,149.36,18.71Z"/><path class="cls-16" d="M152.24,138.46c-3.37-5.25-8.83-8.29-17.29-7.75a37.14,37.14,0,0,0-18.42,6.58,57.73,57.73,0,0,1,4.65-6.42c-2.17-1.11-25.24-10.29-52.23-6s-41.84,17.55-41.84,17.55-7.8-8.92-14.89-7.59c-10.11,1.78-9.88,18.42-9.88,18.42S-.64,131,14.7,129.3c0,0,8.36.21,18.29,6.73,1.75-1.92,21.92-13.69,37.54-15.56s47.83,1.5,57,7.83c2.46-.83,3.31-5.17,13.2-1.83s14.43,8.42,15.18,14-.25,7.63-.25,7.63S154.42,141.86,152.24,138.46Z"/></g><g id="Layer_3" data-name="Layer 3"><path d="M28.55,140.21c-.46-.52,7.14-8.62,19.42-14.26,15.2-7,32.76-8.07,44.81-7.74a89.76,89.76,0,0,1,35.82,9.29,13.54,13.54,0,0,0-2.2,1.68,87.73,87.73,0,0,0-33.69-8.47c-11.79-.32-29,.49-43.81,7.28C37,133.46,28.8,140.49,28.55,140.21Z"/><path d="M121.08,132.35a19.2,19.2,0,0,1,5.39-4.52,24.06,24.06,0,0,1,6.7-2.63,21.64,21.64,0,0,1,14.65,2.1,19.18,19.18,0,0,1,5.9,5,16.77,16.77,0,0,1,3.08,7,21.53,21.53,0,0,1-2.49,13.91l0,0a.15.15,0,0,1-.27-.11c1.12-4.31,1.63-8.91.5-13.23a15.67,15.67,0,0,0-3-5.87,16.87,16.87,0,0,0-5.13-4.13,21.88,21.88,0,0,0-6.25-2.2,19.11,19.11,0,0,0-6.63-.2,27.12,27.12,0,0,0-6.44,1.76,24.55,24.55,0,0,0-5.81,3.28.15.15,0,0,1-.21-.21Z"/><path class="cls-17" d="M156.2,149.13s28.83,26,31,58.5c2.25,26.5-4.5,47.5-22.17,63.5-20.25,18.25-41.58,29-66.83,29s-42.5-.25-55.5-11-16-23.67-16-23.67"/><path class="cls-17" d="M32.2,136.13s-8-6.83-17.5-6.83c-6.17,0-11.28,5.41-12.5,14.83-1.17,9,1.17,19.25,4,28.33C6.45,181.21-.55,225,1.7,241.8s10.42,21.5,19.17,23,16.8,0,28.33.83c16.17,1.17,43.09,15.7,68.83,6.67,28.5-10,36.08-29.58,36.08-29.58"/><path d="M148.69,241.59a4.9,4.9,0,0,1,3.33-1.41,6.21,6.21,0,0,1,3.47.9,6.11,6.11,0,0,1,2.44,2.66,5,5,0,0,1,.32,3.58l0,.08a.11.11,0,0,1-.2,0,13,13,0,0,0-1.61-2.39,8.26,8.26,0,0,0-2.2-1.81,8.92,8.92,0,0,0-2.64-1.09,11.32,11.32,0,0,0-2.86-.3.11.11,0,0,1-.09-.19Z"/><path class="cls-18" d="M114.28,156.42q5.62-11,15.73-13.89c6.74-1.92,12.51,1,11.16,8.94s-9.36,18.2-18.8,21.56-11.42.27-11.68-2.08C110.24,167,111.72,161.45,114.28,156.42Z"/><path class="cls-18" d="M19.78,143.37c5.28,1.81,8,9,9,13.92s2.08,15.31-3.27,18.43c-3.65,2.34-10.91-6.06-12.74-11.32C6.55,149,14.72,141.64,19.78,143.37Z"/><path class="cls-17" d="M123.66,125.18s2.93-3.22,11.43-7.71c8.22-3.93,16.78-3.42,20.29-8.84,5-7-1.26-34.23.8-38.79,2.25-6.58,19.53-21.21,35.07-25.29,23.5-6.44,52-1.84,52-1.84"/><path d="M120.87,126.09h0a1.25,1.25,0,0,1,0-2.5h0c.37,0,13.13,0,26.88-1.2S170.57,119.81,174,119s9.89-10,9.37-23.78c-.5-13.25-3.65-23-3.25-23.16.6-.23,5.23,9.36,5.75,23.07.55,14.51-6.21,25.1-11.29,26.31-3.5.83-12.57,2.23-26.6,3.45C134.11,126.07,121.25,126.09,120.87,126.09Z"/><path d="M217.49,56.52C217,56,232.87,41.81,257.05,39.16c32-3.51,45.57,2.82,46.14,3.18s-.79.94-1.17,1.5-1.17.28-1.75-.08c-.13-.08-15.75-5.36-43.62-2.21C233.37,44.18,217.73,56.75,217.49,56.52Z"/><path class="cls-17" d="M300.28,43.38c10-5.17,25.27-16.37,31.25-22.25,7.39-7.27,16.86-16.3,19.5-18.92,1.38-1.37,3-1.29,4,.33,2.35,3.83,3.65,15.56.67,29.25-4.25,19.5-14.5,34.67-26.75,43.92-11,8.67-23.71-2-27.83-9.42-3.33-6-4.58-13.83-3.83-18.75A5.43,5.43,0,0,1,300.28,43.38Z"/><path class="cls-18" d="M312.78,36s-.33,12.25,8.67,21.5a24.23,24.23,0,0,0,18.92,7.33"/><path class="cls-18" d="M330,22.63s-.15,7.26,6.17,14.92,15.67,7.17,15.67,7.17"/><path d="M412.28,157.45a90.36,90.36,0,0,1-25.1-3.29c-27.94-8.12-38.87-32-44.12-43.55-.48-1-.92-2-1.32-2.86l-.05-.12a2.73,2.73,0,0,1,.28-2.79c1.29-1.56,4.32-1.1,9.33-.34a78,78,0,0,0,14.86,1.22c19.76-.75,60.46,1.75,94.13,24.5-9.8-9.06-21.5-18.25-47.23-28.76C382.64,88.94,347.19,88,346.83,88a1.25,1.25,0,0,1-1.16-.86c-3-9.19-10.14-16.62-10.21-16.69a1.25,1.25,0,0,1,1.8-1.74,52.68,52.68,0,0,1,10.5,16.82c5.69.24,38.07,2.06,66.24,13.65,28.89,11.88,45.52,24,55.59,40.51a3.71,3.71,0,0,1,.31,3.24c-1,2.58-5.2,4.38-14.15,7.43A146.65,146.65,0,0,1,412.28,157.45ZM344,106.74c.4.85.84,1.8,1.31,2.83,5.49,12,15.7,34.39,42.55,42.19,29.33,8.52,63.3-2.53,67.08-3.82,6-2,11.91-4.19,12.63-6a1.2,1.2,0,0,0-.17-1.08,54.39,54.39,0,0,0-5.81-8.25c-34-23.55-74.33-25.21-95.37-24.42A80.2,80.2,0,0,1,350.92,107c-2.75-.42-6.14-.93-7-.56A1.67,1.67,0,0,0,344,106.74Z"/><path class="cls-17" d="M350.86,123.8s12.75,54.17-7.5,96.67-52,52.5-78.25,57.25-45.5-5.5-61-6-39.42.25-39.42.25"/><path class="cls-17" d="M189.58,44.55c-4.41-1.56-14.17-5.5-21.29-14.23-9.07-11.12-10.53-21-16.36-19.78s-12.19,18.17-5.94,42c4,14.59,9.81,20.09,9.81,20.09"/><path class="cls-18" d="M181.95,41.26S169.28,38.71,157.53,49a23,23,0,0,0-7.74,14.11"/><path class="cls-18" d="M166.16,27.87a18.64,18.64,0,0,0-15.07,3.87,20.12,20.12,0,0,0-6.78,12.81"/><path class="cls-17" d="M156.39,85.63a93.92,93.92,0,0,0-27.19-2.08C113.7,84.54,96,93,91.36,95c-5.33,2.25-6,5-3,9,4.58,6.17,15.25,15.38,31.5,20.88"/><path d="M155.78,105.63c-7.52-3.08-16.55-6.24-32.67-6.79-12.81-.44-28.46,2.29-28.37,1.75-.17-.83,17-3.92,28.62-3.81,16.07.14,25.51,3.1,33.25,6.27C157.25,103.31,155.94,105.69,155.78,105.63Z"/><path class="cls-17" d="M360.86,136.71s14.25,45.5,23.25,60.75c1.88,3.18,1.25,8.23,0,11.75-4.44,12.51-19.12,34.87-43.5,53-23.7,17.62-57,27.75-68.75,30-6.26,1.2-9.32-1.23-12-3-11-7.25-17.33-10.5-17.33-10.5"/><path class="cls-17" d="M383.36,195.46s4,0,5.5,2.5,12.75,23.25,14,27.75c1,3.65.58,9.84-1,14.75-2.25,7-15.75,33-45.25,53s-55.5,23-66.75,23c-5.5-.5-8.5-1-13.25-5.5s-14-16.25-14.25-17.5a1.73,1.73,0,0,1,.75-1.83"/><path d="M446.6,280.45c30.26,23.44,69.22,39.62,75.84,42.29.21-.81.4-1.64.6-2.45-7.39-3-45.36-18.93-74.91-41.81-32.59-25.24-43.53-47.58-43.64-47.8a1.25,1.25,0,0,0-2.26,1.08C402.68,232.68,413.49,254.81,446.6,280.45Z"/><path d="M282.11,354.92c-1.16,33.27-2.26,64.7,7.06,92.94,3,9,7.31,19.24,11,27.49l2.89.32a306.28,306.28,0,0,1-11.55-28.59c-9.18-27.81-8.09-59-6.94-92.06,1.23-35.21-2.82-41.16-3.29-41.72a1.28,1.28,0,0,0-1.78-.19,1.23,1.23,0,0,0-.18,1.74C279.53,315.07,283.3,320.88,282.11,354.92Z"/><path class="cls-18" d="M251.36,77.46c11.17-1.58,19.75,5,23.5,16.58,3.5,10.83,3.33,26.25-3.25,36.17-6,9-14.67,12.75-22.67,12-7.26-.68-15.67-6.67-18.92-18.42s-.92-23.83,1.83-30.08S241,78.94,251.36,77.46Z"/><path class="cls-18" d="M251.4,94.66a10,10,0,0,1,6.29-.27c5.74,1.7,8.81,8.17,9.67,14.82,1,7.75-1.92,19.08-8.75,22.25-5.78,2.68-13,.5-15.75-7.25-2.64-7.44-1.33-17,1.75-23.25A12.31,12.31,0,0,1,251.4,94.66Z"/><path class="cls-18" d="M183.48,85.42a10.71,10.71,0,0,0-12.14-3.93c-7.25,2.25-10.36,13.72-9.82,25a49.63,49.63,0,0,0,2.92,15.42"/><path class="cls-18" d="M184.74,96.21S183.49,92,179.36,92c-5.5,0-8.25,10.17-8,15.92.48,11,2.92,12.33,2.92,12.33"/><path d="M179,69.59s-6-4.72-13.12-4.28c-5.8.36-8.22,4-8.22,4a16,16,0,0,1,3.09-5.06c2.46-2.62,3.77-4.33,6.59-4.33C173,60.26,179,69.59,179,69.59Z"/><path d="M274.63,67.37s-10.51-5.64-21.26-5.09a43,43,0,0,0-18.08,4.86,23.74,23.74,0,0,1,6.71-7.4,20.63,20.63,0,0,1,13.32-3.86C266.81,56.25,274.63,67.37,274.63,67.37Z"/><path class="cls-19" d="M139,144.21s-7.54,0-15.22,7.44c-5.93,5.75-7.56,10.82-8.69,16.31a29.85,29.85,0,0,0-.5,6.5"/><path class="cls-19" d="M23.78,146.14s-4.29-.5-5.83,2.49c-1.3,2.52-2.34,6.11.2,13a30.11,30.11,0,0,0,8.65,13.07"/></g><g id="Calque_6" data-name="Calque 6"><path class="cls-10" d="M307.42,405.3c-2.88-7.9-7.34-21.47-8.29-31.94-.57-6.29-.8-19.79-.9-28.64a43.27,43.27,0,0,0-.07-8.39h0a43.41,43.41,0,0,0-25-34.76s0-.08,0-.12a12.33,12.33,0,1,0-24.41-3.52s0,.08,0,.12a43.35,43.35,0,0,0-36.31,34.85c-2.66,8.52-6.84,21.47-10.12,29.56-3.42,8.42-10.82,19.06-15.54,25.43-2.46,1.58-4,3.44-4.26,5.56-1.5,10.39,25.79,22.92,61,28s64.89.77,66.39-9.61C310.22,409.71,309.32,407.51,307.42,405.3Z"/><path class="cls-11" d="M262.7,288.8s7.07,4.69,4.49,12.69c2.83.64,9,4.81,11.9,9.39,2.72,4.32,8.28,12.75,6.78,30.75s-.67,52.84-.67,52.84l21.57,10.25s-6.24-15.66-7.57-27.83-.95-39.57-.95-39.57-1.51-19.14-14.39-28.75a100.76,100.76,0,0,0-10.66-7s-.35-8.94-6.09-11.94S262.7,288.8,262.7,288.8Z"/><path class="cls-20" d="M307.42,405.3c-2.88-7.9-7.34-21.47-8.29-31.94-.57-6.29-.8-19.79-.9-28.64a43.27,43.27,0,0,0-.07-8.39h0a43.41,43.41,0,0,0-25-34.76s0-.08,0-.12a12.33,12.33,0,1,0-24.41-3.52s0,.08,0,.12a43.35,43.35,0,0,0-36.31,34.85c-2.66,8.52-6.84,21.47-10.12,29.56-3.42,8.42-10.82,19.06-15.54,25.43-2.46,1.58-4,3.44-4.26,5.56-1.5,10.39,25.79,22.92,61,28s64.89.77,66.39-9.61C310.22,409.71,309.32,407.51,307.42,405.3Z"/><ellipse class="cls-21" cx="245.83" cy="405.57" rx="8.97" ry="49.89" transform="translate(-190.71 590.93) rotate(-81.79)"/><path class="cls-22" d="M221.36,409.55s7.33-4.84,25.25-6.75a13.55,13.55,0,0,1,1.88-5.9c-25.13-4.6-50.91-2.79-51.89,1.05C195.78,402.63,221.36,409.55,221.36,409.55Z"/><path class="cls-22" d="M267.11,401.25a14.25,14.25,0,0,1,.3,3.13,59.4,59.4,0,0,1,12.54,4.21c7.75,3.92,8.54,7,8.54,7s7.75-1.12,6.17-3.83-11.29-6.75-16.92-8.17S267.11,401.25,267.11,401.25Z"/><path class="cls-20" d="M186.83,387.88s12.38-8.54,61.75-1.41c47.67,6.88,58.84,18.84,58.84,18.84"/><path class="cls-23" d="M246.37,401.85a10.43,10.43,0,1,0,20.27-1.59c-5.55-1.25-11.67-2.39-18.14-3.36A10.36,10.36,0,0,0,246.37,401.85Z"/><ellipse class="cls-19" cx="245.83" cy="405.57" rx="8.97" ry="49.89" transform="translate(-190.71 590.93) rotate(-81.79)"/><ellipse class="cls-10" cx="252.57" cy="407.09" rx="3.29" ry="4.13" transform="translate(-193.49 232.32) rotate(-36.79)"/><ellipse class="cls-24" cx="240.03" cy="316.46" rx="11.81" ry="7.57" transform="translate(-141.71 206.76) rotate(-36.79)"/></g><g id="Calque_8" data-name="Calque 8"><path class="cls-1" d="M491.8,154.28,142.3,366.81A205.53,205.53,0,0,0,160,394.7l348.57-212A205.16,205.16,0,0,0,491.8,154.28Z"/><rect class="cls-2" x="87.86" y="255.21" width="472" height="33" transform="translate(-94.03 207.83) rotate(-31.3)"/></g><g id="Calque_7" data-name="Calque 7"><path class="cls-25" d="M144.46,257.36s12.56,20.76,14.79,33.47-4,3.13-4,3.13-8.83-22.05-14.88-33.18C142.53,259.13,144.46,257.36,144.46,257.36Z"/><path class="cls-26" d="M27.8,269.71S22,274,19,285c-2.4,8.83-1.08,18.17-2.75,18.63-1.67.11-3.33-10.17-2.67-17.42a36.13,36.13,0,0,1,8.5-21.12l3.89.42Z"/><path class="cls-26" d="M139.33,260.76S128.13,268,124,277.39c-4.54,10.39-2.46,27.65-2.46,27.65s10.57-6.47,16.64-21.28C141.7,275.24,139.33,260.76,139.33,260.76Z"/><path class="cls-27" d="M139,261.38l-16.75,42.25s10.77-8.36,14.81-17.35C141.7,276,139,261.38,139,261.38Z"/><path class="cls-19" d="M139.33,260.76S128.13,268,124,277.39c-4.54,10.39-2.46,27.65-2.46,27.65s10.57-6.47,16.64-21.28C141.7,275.24,139.33,260.76,139.33,260.76Z"/><ellipse class="cls-28" cx="186" cy="318.16" rx="17.64" ry="4.1"/><ellipse class="cls-28" cx="137.66" cy="318.16" rx="17.64" ry="4.1"/><ellipse class="cls-28" cx="161.83" cy="342.33" rx="4.1" ry="17.64"/><ellipse class="cls-28" cx="161.83" cy="294" rx="4.1" ry="17.64"/><ellipse class="cls-28" cx="178.92" cy="335.25" rx="4.1" ry="17.64" transform="translate(-184.66 224.71) rotate(-45)"/><ellipse class="cls-28" cx="144.74" cy="301.07" rx="4.1" ry="17.64" transform="translate(-170.5 190.53) rotate(-45)"/><ellipse class="cls-28" cx="144.74" cy="335.25" rx="17.64" ry="4.1" transform="translate(-194.67 200.54) rotate(-45)"/><ellipse class="cls-28" cx="178.92" cy="301.07" rx="17.64" ry="4.1" transform="translate(-160.49 214.7) rotate(-45)"/><ellipse class="cls-28" cx="183.98" cy="327.83" rx="4.1" ry="17.64" transform="translate(-190.07 365.33) rotate(-66.42)"/><ellipse class="cls-28" cx="139.68" cy="308.5" rx="4.1" ry="17.64" transform="translate(-198.93 313.13) rotate(-66.42)"/><ellipse class="cls-28" cx="152.16" cy="340.31" rx="17.64" ry="4.1" transform="translate(-220.61 343.66) rotate(-66.42)"/><ellipse class="cls-28" cx="171.5" cy="296.01" rx="17.64" ry="4.1" transform="translate(-168.4 334.8) rotate(-66.42)"/><ellipse class="cls-28" cx="170.66" cy="340.66" rx="4.1" ry="17.64" transform="translate(-112.64 85.87) rotate(-21.42)"/><ellipse class="cls-28" cx="153" cy="295.67" rx="4.1" ry="17.64" transform="translate(-97.42 76.31) rotate(-21.42)"/><ellipse class="cls-28" cx="139.33" cy="326.99" rx="17.64" ry="4.1" transform="translate(-109.81 73.48) rotate(-21.42)"/><ellipse class="cls-28" cx="184.33" cy="309.34" rx="17.64" ry="4.1" transform="translate(-100.25 88.7) rotate(-21.42)"/><circle class="cls-29" cx="161.83" cy="318.16" r="13.12"/><path class="cls-30" d="M19.32,270.75a29.33,29.33,0,0,1,3.19-4.62l2.77.29s.94,2.08,1.31,3a27.93,27.93,0,0,0-4.24,5.23A18.51,18.51,0,0,1,19.32,270.75Z"/><ellipse class="cls-31" cx="158.4" cy="316.46" rx="6.91" ry="5.85" transform="translate(-190.81 259.09) rotate(-54.08)"/></g></svg>