<?xml version="1.0" encoding="UTF-8" standalone="no"?>
<svg
   xmlns:dc="http://purl.org/dc/elements/1.1/"
   xmlns:cc="http://creativecommons.org/ns#"
   xmlns:rdf="http://www.w3.org/1999/02/22-rdf-syntax-ns#"
   xmlns:svg="http://www.w3.org/2000/svg"
   xmlns="http://www.w3.org/2000/svg"
   xmlns:sodipodi="http://sodipodi.sourceforge.net/DTD/sodipodi-0.dtd"
   xmlns:inkscape="http://www.inkscape.org/namespaces/inkscape"
   viewBox="0 0 560.70114 512.74314"
   version="1.1"
   id="svg234"
   sodipodi:docname="cow-HAVEANICEDAY.svg"
   inkscape:version="0.92.1 r15371"
   width="560.70111"
   height="512.74316"
   inkscape:export-filename="D:\devel\cooking-courses\images\cow-HAVEANICEDAY-png.png"
   inkscape:export-xdpi="290.92001"
   inkscape:export-ydpi="290.92001">
  <metadata
     id="metadata238">
    <rdf:RDF>
      <cc:Work
         rdf:about="">
        <dc:format>image/svg+xml</dc:format>
        <dc:type
           rdf:resource="http://purl.org/dc/dcmitype/StillImage" />
        <dc:title>cow_2</dc:title>
      </cc:Work>
    </rdf:RDF>
  </metadata>
  <sodipodi:namedview
     pagecolor="#ffffff"
     bordercolor="#666666"
     borderopacity="1"
     objecttolerance="10"
     gridtolerance="10"
     guidetolerance="10"
     inkscape:pageopacity="0"
     inkscape:pageshadow="2"
     inkscape:window-width="1822"
     inkscape:window-height="1051"
     id="namedview236"
     showgrid="false"
     inkscape:zoom="0.90471715"
     inkscape:cx="-191.61711"
     inkscape:cy="257.76992"
     inkscape:window-x="89"
     inkscape:window-y="-9"
     inkscape:window-maximized="1"
     inkscape:current-layer="layer2"
     fit-margin-top="0"
     fit-margin-left="0"
     fit-margin-right="0"
     fit-margin-bottom="0"
     inkscape:snap-global="false" />
  <defs
     id="defs4">
    <style
       id="style2">.cls-1{fill:#8c0000;}.cls-2{fill:#db0000;}.cls-3{fill:#fbdac7;}.cls-4{fill:#796656;}.cls-28,.cls-5{fill:#fff;}.cls-6{fill:#e0d2ce;}.cls-7{fill:#38342f;}.cls-8{fill:#0092ff;}.cls-9{fill:#c6685c;}.cls-10{fill:#f9da78;}.cls-11{fill:#edb254;}.cls-12{fill:#77302c;}.cls-13{fill:#e8a892;}.cls-14{fill:#212121;}.cls-15{fill:#bc9377;}.cls-16{fill:#fff6f3;}.cls-17,.cls-18,.cls-19,.cls-20{fill:none;}.cls-17,.cls-18,.cls-19,.cls-20,.cls-23,.cls-25,.cls-26,.cls-28,.cls-29{stroke:#000;}.cls-17,.cls-18{stroke-linecap:round;stroke-linejoin:round;}.cls-17,.cls-20{stroke-width:2.5px;}.cls-18,.cls-19,.cls-23,.cls-25,.cls-26,.cls-28,.cls-29{stroke-width:2px;}.cls-19,.cls-20,.cls-23,.cls-25,.cls-26,.cls-28,.cls-29{stroke-miterlimit:10;}.cls-21,.cls-23{fill:#c4912a;}.cls-22{fill:#a36f1c;}.cls-24{fill:#fffecc;}.cls-25,.cls-27{fill:#078400;}.cls-26{fill:#0eb506;}.cls-29{fill:#ffb948;}.cls-30{fill:#067f00;}.cls-31{fill:#ffed69;}</style>
  </defs>
  <title
     id="title6">cow_2</title>
  <g
     id="Layer_5"
     data-name="Layer 5"
     transform="translate(1.9180879,-7.019796)" />
  <g
     inkscape:groupmode="layer"
     id="layer1"
     inkscape:label="cow"
     sodipodi:insensitive="true"
     transform="translate(1.9180879,-7.019796)">
    <g
       id="Layer_4"
       data-name="Layer 4"
       transform="translate(17.022434,7.0213229)">
      <path
         class="cls-3"
         d="m 127,128.46 c 0,0 12.92,-4.83 20.92,0.83 8,5.66 8.17,8.75 8.17,12.42 v 7.75 c 0,0 20.17,18.08 26,36.75 5.83,18.67 6.08,23.67 4.75,43.5 -1.33,19.83 -20.23,43.09 -32.73,50.29 -12.5,7.2 -20.25,16.75 -42.25,19.25 -22,2.5 -53.58,-0.58 -58.75,-3.08 -5.17,-2.5 -21.67,-16.67 -25,-28.5 -5.67,-1.5 -12.28,-1.26 -18.33,-7.83 C 2.11,251.46 0.38,239.63 1.88,225 3.38,210.37 6.17,176.92 6.17,174.25 6.17,171.58 3.78,165 2.61,155 c -1.67,-7.33 2,-23.42 7.5,-24.75 9.5,-3 22.5,5.75 22.5,5.75 0,0 20.75,-13.83 39.75,-15.5 36.17,-3.7 54.64,7.96 54.64,7.96 z"
         id="path13"
         inkscape:connector-curvature="0"
         style="fill:#fbdac7" />
      <path
         class="cls-4"
         d="m 191.24,45.12 c -6.69,-2.11 -17.69,-7.75 -26.76,-19 -5.63,-6.34 -5.28,-15.84 -12.67,-14.79 -7.39,1.05 -9.51,18.31 -8.1,33.8 1.41,15.49 12.44,28.07 12.44,28.07 4.99,-18.4 35.09,-28.08 35.09,-28.08 z"
         id="path15"
         inkscape:connector-curvature="0"
         style="fill:#796656" />
      <path
         class="cls-4"
         d="m 298.36,44.13 c 0,0 22,-12.33 30.33,-21.33 8.33,-9 21.31,-22 24.01,-21.34 2.7,0.66 6,8.67 5,17.67 -1,9 -6,25.67 -10.33,35 -4.33,9.33 -16.33,22.33 -22,24 C 319.7,79.8 310.7,77.8 305,72.8 c -5.7,-5 -10,-24.67 -6.64,-28.67 z"
         id="path17"
         inkscape:connector-curvature="0"
         style="fill:#796656" />
      <path
         class="cls-5"
         d="m 146.7,128.3 c 13.33,5.83 8.83,20.83 8.83,20.83 0,0 28.83,24.33 32.17,62.67 3.34,38.34 -22.7,60.33 -22.7,60.33 0,0 36,-1 41.33,-0.67 5.33,0.33 36.67,7 36.67,7 0,0 9,5 18,10.67 9,5.67 17,18.33 21,28 4,9.67 0.33,49.67 0,61 -0.33,11.33 0,26.67 4.33,51.67 2.53,14.62 9.85,33 15.49,45.73 a 206.24,206.24 0 0 0 22,1.19 c 95.92,0 176.65,-66.22 198.9,-155.34 C 460.87,301.19 424,258 414,245.8 c -10,-12.2 -22.33,-35.33 -30,-48.33 -7.67,-13 -24.33,-61.33 -24.33,-61.33 0,0 14.33,18 47,20.67 22.33,1.67 58.67,-11 61,-12.33 2.33,-1.33 2,-4 -2.33,-10.33 C 427,92.13 355,86.46 347.7,86.8 c -2.33,-2.33 -8.33,-14.33 -11.67,-17 -6.67,5.67 -16.33,11.33 -25.67,6.67 -9.34,-4.66 -13.33,-23 -13,-28 0.33,-5 4,-5.67 4,-5.67 a 139.42,139.42 0 0 0 -20,-3.42 100,100 0 0 0 -40.17,4.08 c -7.67,-1.67 -34.21,-2.33 -48.54,1.67 -17.67,4.2 -31,16.34 -35,22 -4,5.66 -1.26,18.48 -1.26,18.48 0,0 -13,-3.5 -26,-2.83 -13,0.67 -32,9 -32,9 0,0 -11.33,3 -12,8.33 2.67,11.33 30,23.33 30,23.33 l 10.67,5 c 0,0 10.01,-4.85 19.64,-0.14 z"
         id="path19"
         inkscape:connector-curvature="0"
         style="fill:#ffffff" />
      <path
         class="cls-5"
         d="m 183.49,86.26 c -2.5,-4.33 -4.13,-6.46 -9.13,-5.79 -5,0.67 -10.29,6 -12,14.13 -1.71,8.13 -2,19.37 2,27.37 4,-0.83 10.54,-1.47 13.54,-2.8 3,-3.17 8.28,-13.82 7.28,-20.82 -1,-7 -1.69,-12.09 -1.69,-12.09 z"
         id="path21"
         inkscape:connector-curvature="0"
         style="fill:#ffffff" />
      <path
         class="cls-3"
         d="m 341.36,103.13 c 0,0 13,3 32.67,1.33 19.67,-1.67 44.33,2.33 63.67,12.33 19.34,10 16.3,8.21 23.66,14.92 7.36,6.71 8.33,9.42 7.33,11.08 -1,1.66 -10.69,6.34 -21.69,9.34 -11,3 -44,9.33 -66.67,-1.67 -22.67,-11 -30.63,-26.66 -30.63,-26.66 z"
         id="path23"
         inkscape:connector-curvature="0"
         style="fill:#fbdac7" />
      <path
         class="cls-6"
         d="m 351.65,195.46 c 0,0 -11.29,58.33 -20.29,73 -9,14.67 -5.36,40.88 -5.36,40.88 l 17.86,-7.65 c 0,0 4.05,6.65 9.58,10.43 -6.25,3.43 -30.15,14 -32.75,18.68 -7.83,10.33 -3,34 -3,34 0,0 6.3,30.33 15.82,57.33 9.52,27 -42.42,23.5 -42.42,23.5 0,0 -8.06,-33.5 -10.73,-63.84 -2.67,-30.34 -5,-63.63 -5,-63.63 0,0 -7.87,-25.35 -18.68,-31.72 -10.81,-6.37 -16.65,-9 -16.65,-9 a 102.47,102.47 0 0 0 43.33,-4.8 c 22.67,-7.8 34,-15.63 41.5,-24.38 19.48,-19.56 26.79,-52.8 26.79,-52.8 z"
         id="path25"
         inkscape:connector-curvature="0"
         style="fill:#e0d2ce" />
      <path
         class="cls-7"
         d="m 236.61,44.46 a 15.46,15.46 0 0 1 -1.9,1.45 c -2.15,1.1 -10.73,3.69 -17,10.18 -11.56,11.29 -15.67,51.85 -3.52,78.65 9.13,20.13 25.24,33.84 32.77,48.72 7.17,14.17 7,33.58 7.71,46.33 0.71,12.75 6.92,36.17 22.67,44.67 22.25,-6.75 35.5,-12.5 47.5,-26.25 12,-13.75 28.5,-41.5 29.25,-71.75 a 183.53,183.53 0 0 0 -3.25,-53 c 0,0 -8.5,-15.5 -8.25,-17.25 0.25,-1.75 4,-1.5 9.5,-0.25 5.5,1.25 17,0.5 22.5,0.5 5.5,0 32.75,2 46,6.5 13.25,4.5 33.5,12.5 40.75,18.75 -1.75,-4.5 -23.25,-22 -44.75,-30 a 259,259 0 0 0 -70,-14.75 c -0.5,-1.5 -6.25,-16 -10.25,-17.5 -4.5,4 -11.25,11.25 -18,9.5 -6.75,-1.75 -15.75,-8.25 -18.25,-14 -2.5,-5.75 -5,-16.5 -2.5,-19.25 a 10.26,10.26 0 0 1 4.75,-3.25 c 0,0 -19.87,-4 -34.87,-3.21 -15,0.79 -30.86,5.21 -30.86,5.21 z"
         id="path27"
         inkscape:connector-curvature="0"
         style="fill:#38342f" />
      <path
         class="cls-5"
         d="m 253.86,77.63 c 8.18,0.29 15.83,3.83 19.83,16.67 4,12.84 2.84,26.7 -3.69,37.7 -6.53,11 -24.17,13.33 -31.67,6.67 -7.5,-6.66 -12.67,-21 -10.17,-35.17 2.5,-14.17 11.37,-26.37 25.7,-25.87 z"
         id="path29"
         inkscape:connector-curvature="0"
         style="fill:#ffffff" />
      <path
         class="cls-7"
         d="m 366.86,155.71 c 0,0 0.5,15.08 -5,29.25 -4.33,14.33 -14.5,37.75 -17.75,48.25 -3.25,10.5 -7,34.75 -6,50.25 1,15.5 11.25,35.75 45.5,39.25 34.25,3.5 56.25,-8.75 66.75,-16.25 a 191.44,191.44 0 0 0 16.75,-13.25 c 0,0 -25.5,-15.25 -39,-28.75 -13.5,-13.5 -22.25,-26 -27.5,-38.5 -2.62,-6.24 -10.23,-17.14 -16.5,-29 a 263.85,263.85 0 0 1 -11.25,-24.75 z"
         id="path31"
         inkscape:connector-curvature="0"
         style="fill:#38342f" />
      <path
         class="cls-7"
         d="M 301.69,475.51 A 205.19,205.19 0 0 0 379.55,469 c -1.83,-6 -4.07,-12.69 -6.69,-19.56 -8,-21 -27.5,-36.5 -48,-44.25 -20.5,-7.75 -41,-0.5 -41,-0.5 0,0 -1,22.25 6.75,44.75 2.39,7.03 7.05,17.43 11.08,26.07 z"
         id="path33"
         inkscape:connector-curvature="0"
         style="fill:#38342f" />
      <path
         class="cls-6"
         d="m 232.11,127.21 a 40.23,40.23 0 0 0 23.5,1.63 c 15.45,-3.41 21.52,-18.86 21.52,-18.86 0,0 -0.43,23.23 -15.74,30.17 -12.36,4.93 -17.86,0.59 -21,-1 -3.14,-1.59 -8.28,-11.94 -8.28,-11.94 z"
         id="path35"
         inkscape:connector-curvature="0"
         style="fill:#e0d2ce" />
      <path
         class="cls-6"
         d="m 163.71,119.75 a 31,31 0 0 0 6,-1.59 15.72,15.72 0 0 0 8.75,-8.57 c 1.33,-4.59 0.5,-11.06 0.5,-17.13 -0.19,-3.05 -1.73,-9.12 -3.94,-11.54 -2,-8.59 -6.12,-16.19 -8.08,-17.32 1.83,-0.81 6,-0.53 11.08,5 2.4,1.67 4.69,12.88 4.69,12.88 0,0 3.5,16.1 0,28.52 -1.9,6.91 -9.24,10.53 -12.11,11 a 27.18,27.18 0 0 1 -6.26,1 z"
         id="path37"
         inkscape:connector-curvature="0"
         style="fill:#e0d2ce" />
      <path
         class="cls-8"
         d="m 184.74,99.46 c 0,0 1.79,-5.08 -1.88,-6.42 -3.67,-1.34 -5.67,-1.25 -7.58,1.08 -1.91,2.33 -5.17,7.33 -4.58,12.92 0.59,5.59 1.59,14.22 3.25,13.92 10.79,-1.96 10.79,-21.5 10.79,-21.5 z"
         id="path39"
         inkscape:connector-curvature="0"
         style="fill:#0092ff" />
      <path
         class="cls-9"
         d="m 139,144.21 c 3.5,3.42 1,12.5 -3.33,18.83 -7.17,11.33 -18.75,12.17 -21.42,11.42 -2.67,-0.75 -3.13,-2 -3.75,-4.33 -0.46,-1.72 0.93,-13.25 8.25,-20.25 11.53,-10.75 17.95,-7.88 20.25,-5.67 z"
         id="path41"
         inkscape:connector-curvature="0"
         style="fill:#c6685c" />
      <path
         class="cls-9"
         d="m 14,145.18 c 2.21,-1.85 6.28,-3.1 9.52,0.52 a 26.88,26.88 0 0 1 6,16.79 c -0.08,6.35 -0.92,13.6 -4.73,13.69 -3.81,0.09 -10.49,-7 -12,-10.62 -1.51,-3.62 -4.42,-15.64 1.21,-20.38 z"
         id="path43"
         inkscape:connector-curvature="0"
         style="fill:#c6685c" />
      <path
         class="cls-8"
         d="m 255,94.09 c 4.25,0 11.88,4.63 12.38,13.88 0.5,9.25 -1,15.13 -4.5,20.13 -3.5,5 -11.25,5.5 -14.38,3.25 -3.13,-2.25 -7.87,-8.75 -7.25,-14.75 0.62,-6 1.25,-13.75 5.13,-17.75 A 17,17 0 0 1 255,94.09 Z"
         id="path45"
         inkscape:connector-curvature="0"
         style="fill:#0092ff" />
      <ellipse
         cx="254.86"
         cy="114.3"
         rx="9.8299999"
         ry="6.1700001"
         transform="rotate(-85.5,254.86877,114.29433)"
         id="ellipse47" />
      <path
         d="m 178.87,117.21 a 11.85,11.85 0 0 1 -2.07,-7.23 c 0,-4.74 2,-8.58 4.5,-8.58 a 3.39,3.39 0 0 1 2.66,1.66 c 1.11,1.56 -4.39,15.01 -5.09,14.15 z"
         id="path49"
         inkscape:connector-curvature="0" />
      <ellipse
         class="cls-5"
         cx="177.53"
         cy="102.55"
         rx="4.25"
         ry="4.3299999"
         transform="rotate(-67.07,177.52589,102.54353)"
         id="ellipse51"
         style="fill:#ffffff" />
      <ellipse
         class="cls-5"
         cx="249.03"
         cy="106.05"
         rx="4.25"
         ry="4.3299999"
         transform="rotate(-67.07,249.01608,106.04758)"
         id="ellipse53"
         style="fill:#ffffff" />
      <path
         class="cls-10"
         d="m 334.86,266.46 c 14.12,-9 44.33,-40.67 47.67,-53 3.34,-12.33 1.33,-17.83 1.33,-17.83 0,0 2.17,-0.83 4.5,1.83 2.33,2.66 14,23.67 14.83,26.5 0.83,2.83 0.5,8.83 -0.83,14.67 -1.33,5.84 -20,40.33 -48.17,56.5 C 326.02,311.3 297,320.46 282.53,315 273.86,310.33 262.7,293.5 262.7,293.5 l 1.17,-2.17 c 0,0 0.83,2.33 6.33,1 5.5,-1.33 39,-9.53 64.66,-25.87 z"
         id="path55"
         inkscape:connector-curvature="0"
         style="fill:#f9da78" />
      <path
         class="cls-11"
         d="m 389.2,201.38 c 0,0 4.12,7 -11.74,31.06 -8.6,13.12 -27.1,32.69 -52.26,45.52 a 222,222 0 0 1 -52,18.5 v 5 l 18,15.12 c 0,0 34,-0.6 60.5,-20.27 30.5,-20.83 50.74,-45 52,-67.5 -4.04,-10.42 -14.5,-27.43 -14.5,-27.43 z"
         id="path57"
         inkscape:connector-curvature="0"
         style="fill:#edb254" />
      <path
         class="cls-3"
         d="m 88.2,102.46 c 0,0 2.67,-1.67 16.5,-3.5 13.83,-1.83 25.67,-2 34.83,0.33 9.16,2.33 17.72,5.08 17.72,5.08 0,0 -0.68,6.59 -20.47,10.84 -6.62,2.25 -14.06,10.5 -14.06,10.5 0,0 -20.72,-6.71 -24.36,-11.08 C 94.72,110.26 88.2,102.46 88.2,102.46 Z"
         id="path59"
         inkscape:connector-curvature="0"
         style="fill:#fbdac7" />
      <path
         class="cls-12"
         d="m 24.88,146.78 a 4.71,4.71 0 0 0 -4.89,0 c -2.53,1.55 -4.8,5.64 -2.26,13.69 2.54,8.05 8,14.22 9.38,13.94 1.38,-0.28 3.25,-5.16 2.54,-11.46 a 41.84,41.84 0 0 0 -4.77,-16.17 z"
         id="path61"
         inkscape:connector-curvature="0"
         style="fill:#77302c" />
      <path
         class="cls-12"
         d="m 118.56,158.23 c 0,0 7,-12.83 19.72,-14 8.59,2.83 -4.19,21.06 -4.19,21.06 0,0 -14,12 -18.48,9.33 -4.48,-2.67 2.95,-16.39 2.95,-16.39 z"
         id="path63"
         inkscape:connector-curvature="0"
         style="fill:#77302c" />
      <path
         class="cls-13"
         d="m 3.08,248.51 a 23.06,23.06 0 0 0 17.39,8.18 c 11.33,0.11 17.05,0 26.89,0 14.75,0 40.33,10.07 58,8.4 17.67,-1.67 31.83,-10 36,-13.46 a 96.93,96.93 0 0 0 12.06,-9.95 4.17,4.17 0 0 1 3.37,2.31 c 1.09,1.92 0.9,2.64 0.9,2.64 a 48.08,48.08 0 0 0 13.8,-0.61 c 9.88,-1.94 13.37,-6.14 13.37,-6.14 0,0 0.15,2.43 -3.33,9.42 -3.48,6.99 -18.25,36.33 -63.75,48.12 -46,8.79 -69.78,-4 -75.39,-8.55 C 36.78,284.32 28.86,273.49 26.7,266.56 21.2,264.46 15.03,264.3 9.78,259.8 a 22.82,22.82 0 0 1 -6.7,-11.29 z"
         id="path65"
         inkscape:connector-curvature="0"
         style="fill:#e8a892" />
      <path
         class="cls-13"
         d="m 132.36,177.63 c 0,0 15.33,-8.42 21.75,-24.42 a 14.19,14.19 0 0 1 2,-3.75 c 0,0 5.26,4.49 7.58,7.67 -0.58,3.58 -6.08,9.92 -14,14.75 a 46.17,46.17 0 0 1 -17.33,5.75 z"
         id="path67"
         inkscape:connector-curvature="0"
         style="fill:#e8a892" />
      <path
         class="cls-13"
         d="m 14.78,182.71 a 31.51,31.51 0 0 1 -7.42,-10.48 33.59,33.59 0 0 0 -1,3.7 c -0.51,2.73 2.64,5.07 4.2,5.77 a 17.67,17.67 0 0 0 4.22,1.01 z"
         id="path69"
         inkscape:connector-curvature="0"
         style="fill:#e8a892" />
      <path
         class="cls-6"
         d="m 184.33,241.68 c 0,0 19.52,-0.41 34.53,3.91 10,2.88 30.43,6.52 40.63,5.86 6.56,18 17.87,23 17.87,23 0,0 -21.67,7.69 -44.5,2.93 -22.83,-4.76 -23.82,-6.23 -39.66,-5.9 -15.84,0.33 -29.51,0.22 -29.51,0.22 0,0 10.45,-11.12 15.22,-18.77 4.77,-7.65 5.42,-11.25 5.42,-11.25 z"
         id="path71"
         inkscape:connector-curvature="0"
         style="fill:#e0d2ce" />
      <path
         class="cls-14"
         d="m 259.49,251.45 c 0,0 23.87,-1 51.7,-13.66 19.15,-8.72 39.5,-38.5 39.5,-38.5 0,0 -4.56,23.27 -20.62,42.38 -16.06,19.11 -37.89,30.62 -52.72,32.78 -12.49,-6.61 -17.86,-23 -17.86,-23 z"
         id="path73"
         inkscape:connector-curvature="0"
         style="fill:#212121" />
      <path
         class="cls-14"
         d="m 298.71,61.19 c 0,0 3.22,17.27 10.05,24.42 6.83,7.15 19.42,7.46 24.75,-1 a 20.68,20.68 0 0 0 3,-14 c 0,0 -7.71,8.33 -13.76,8.39 -6.05,0.06 -17.86,-2.26 -24.04,-17.81 z"
         id="path75"
         inkscape:connector-curvature="0"
         style="fill:#212121" />
      <path
         class="cls-14"
         d="m 406.11,236.88 c 0,0 1.84,13.3 -13,39.47 a 86.48,86.48 0 0 1 -39.66,35.77 44.83,44.83 0 0 1 -5.47,-5 33.9,33.9 0 0 1 -4.11,-5.44 c 0,0 36.33,-23.68 48.33,-43.22 12,-19.54 11.45,-26 11.45,-26 z"
         id="path77"
         inkscape:connector-curvature="0"
         style="fill:#212121" />
      <path
         class="cls-14"
         d="m 354.62,474.41 c 0,0 -5.15,-10.59 -13.5,-31.75 -4.55,-11.53 -12.65,-36 -12.65,-36 a 55,55 0 0 0 -18.83,-4.81 74.71,74.71 0 0 0 -25.78,2.86 c 0,0 1.21,27.6 4.62,37.81 3.41,10.21 13.21,33 13.21,33 a 168.27,168.27 0 0 0 18.75,1.18 259,259 0 0 0 34.18,-2.29 z"
         id="path79"
         inkscape:connector-curvature="0"
         style="fill:#212121" />
      <path
         class="cls-13"
         d="m 374.2,146.3 c 8,0.46 25.83,3 41,-6.33 15.17,-9.33 17.92,-22.45 17.92,-22.45 0,0 -26.12,-10.15 -53.56,-10.86 -27.44,-0.71 -30,-1.51 -33.7,-1.69 -3.7,-0.18 -4.21,0.05 0.58,10.12 4.79,10.07 19.76,30.75 27.76,31.21 z"
         id="path81"
         inkscape:connector-curvature="0"
         style="fill:#e8a892" />
      <path
         class="cls-13"
         d="m 113.06,98 c 0,0 -1.51,5.19 1.68,13.17 3.19,7.98 10.83,11.83 10.83,11.83 a 35.76,35.76 0 0 1 13.23,-7.39 c 8.17,-2.5 15,-3.5 18,-10.25 -2.67,-2 -10.56,-5.69 -20.07,-6.73 C 127.22,97.59 113.06,98 113.06,98 Z"
         id="path83"
         inkscape:connector-curvature="0"
         style="fill:#e8a892" />
      <path
         class="cls-15"
         d="m 300.55,63.41 c 0,0 20.35,-12.14 31.15,-23.31 C 345.28,26 353,4.82 351.72,5.91 350.44,7 334.94,23.38 326.15,30.13 c -7.35,5.64 -23,15.83 -28.39,17.6 -1.51,5.59 2.79,15.68 2.79,15.68 z"
         id="path85"
         inkscape:connector-curvature="0"
         style="fill:#bc9377" />
      <path
         class="cls-15"
         d="m 149.36,18.71 c 2,-1.16 5,12.42 11.25,22.08 6.25,9.66 11,13.89 11,13.89 0,0 -10.55,7.65 -13,12.64 -2.62,-0.75 -7.4,-12.37 -9.51,-19.45 -1.96,-6.87 -3.32,-27.07 0.26,-29.16 z"
         id="path87"
         inkscape:connector-curvature="0"
         style="fill:#bc9377" />
      <path
         class="cls-16"
         d="m 152.24,138.46 c -3.37,-5.25 -8.83,-8.29 -17.29,-7.75 a 37.14,37.14 0 0 0 -18.42,6.58 57.73,57.73 0 0 1 4.65,-6.42 c -2.17,-1.11 -25.24,-10.29 -52.23,-6 -26.99,4.29 -41.84,17.55 -41.84,17.55 0,0 -7.8,-8.92 -14.89,-7.59 -10.11,1.78 -9.88,18.42 -9.88,18.42 0,0 -2.98,-22.25 12.36,-23.95 0,0 8.36,0.21 18.29,6.73 1.75,-1.92 21.92,-13.69 37.54,-15.56 15.62,-1.87 47.83,1.5 57,7.83 2.46,-0.83 3.31,-5.17 13.2,-1.83 9.89,3.34 14.43,8.42 15.18,14 0.75,5.58 -0.25,7.63 -0.25,7.63 0,0 -1.24,-6.24 -3.42,-9.64 z"
         id="path89"
         inkscape:connector-curvature="0"
         style="fill:#fff6f3" />
    </g>
    <g
       id="Layer_3"
       data-name="Layer 3"
       transform="translate(17.022434,7.0213229)">
      <path
         d="m 28.55,140.21 c -0.46,-0.52 7.14,-8.62 19.42,-14.26 15.2,-7 32.76,-8.07 44.81,-7.74 a 89.76,89.76 0 0 1 35.82,9.29 13.54,13.54 0 0 0 -2.2,1.68 87.73,87.73 0 0 0 -33.69,-8.47 c -11.79,-0.32 -29,0.49 -43.81,7.28 -11.9,5.47 -20.1,12.5 -20.35,12.22 z"
         id="path92"
         inkscape:connector-curvature="0" />
      <path
         d="m 121.08,132.35 a 19.2,19.2 0 0 1 5.39,-4.52 24.06,24.06 0 0 1 6.7,-2.63 21.64,21.64 0 0 1 14.65,2.1 19.18,19.18 0 0 1 5.9,5 16.77,16.77 0 0 1 3.08,7 21.53,21.53 0 0 1 -2.49,13.91 v 0 a 0.15,0.15 0 0 1 -0.27,-0.11 c 1.12,-4.31 1.63,-8.91 0.5,-13.23 a 15.67,15.67 0 0 0 -3,-5.87 16.87,16.87 0 0 0 -5.13,-4.13 21.88,21.88 0 0 0 -6.25,-2.2 19.11,19.11 0 0 0 -6.63,-0.2 27.12,27.12 0 0 0 -6.44,1.76 24.55,24.55 0 0 0 -5.81,3.28 0.15,0.15 0 0 1 -0.21,-0.21 z"
         id="path94"
         inkscape:connector-curvature="0" />
      <path
         class="cls-17"
         d="m 156.2,149.13 c 0,0 28.83,26 31,58.5 2.25,26.5 -4.5,47.5 -22.17,63.5 -20.25,18.25 -41.58,29 -66.83,29 -25.25,0 -42.5,-0.25 -55.5,-11 -13,-10.75 -16,-23.67 -16,-23.67"
         id="path96"
         inkscape:connector-curvature="0"
         style="fill:none;stroke:#000000;stroke-width:2.5px;stroke-linecap:round;stroke-linejoin:round" />
      <path
         class="cls-17"
         d="m 32.2,136.13 c 0,0 -8,-6.83 -17.5,-6.83 -6.17,0 -11.28,5.41 -12.5,14.83 -1.17,9 1.17,19.25 4,28.33 0.25,8.75 -6.75,52.54 -4.5,69.34 2.25,16.8 10.42,21.5 19.17,23 8.75,1.5 16.8,0 28.33,0.83 16.17,1.17 43.09,15.7 68.83,6.67 28.5,-10 36.08,-29.58 36.08,-29.58"
         id="path98"
         inkscape:connector-curvature="0"
         style="fill:none;stroke:#000000;stroke-width:2.5px;stroke-linecap:round;stroke-linejoin:round" />
      <path
         d="m 148.69,241.59 a 4.9,4.9 0 0 1 3.33,-1.41 6.21,6.21 0 0 1 3.47,0.9 6.11,6.11 0 0 1 2.44,2.66 5,5 0 0 1 0.32,3.58 v 0.08 a 0.11,0.11 0 0 1 -0.2,0 13,13 0 0 0 -1.61,-2.39 8.26,8.26 0 0 0 -2.2,-1.81 8.92,8.92 0 0 0 -2.64,-1.09 11.32,11.32 0 0 0 -2.86,-0.3 0.11,0.11 0 0 1 -0.09,-0.19 z"
         id="path100"
         inkscape:connector-curvature="0" />
      <path
         class="cls-18"
         d="m 114.28,156.42 q 5.62,-11 15.73,-13.89 c 6.74,-1.92 12.51,1 11.16,8.94 -1.35,7.94 -9.36,18.2 -18.8,21.56 -9.44,3.36 -11.42,0.27 -11.68,-2.08 -0.45,-3.95 1.03,-9.5 3.59,-14.53 z"
         id="path102"
         inkscape:connector-curvature="0"
         style="fill:none;stroke:#000000;stroke-width:2px;stroke-linecap:round;stroke-linejoin:round" />
      <path
         class="cls-18"
         d="m 19.78,143.37 c 5.28,1.81 8,9 9,13.92 1,4.92 2.08,15.31 -3.27,18.43 -3.65,2.34 -10.91,-6.06 -12.74,-11.32 -6.22,-15.4 1.95,-22.76 7.01,-21.03 z"
         id="path104"
         inkscape:connector-curvature="0"
         style="fill:none;stroke:#000000;stroke-width:2px;stroke-linecap:round;stroke-linejoin:round" />
      <path
         class="cls-17"
         d="m 123.66,125.18 c 0,0 2.93,-3.22 11.43,-7.71 8.22,-3.93 16.78,-3.42 20.29,-8.84 5,-7 -1.26,-34.23 0.8,-38.79 2.25,-6.58 19.53,-21.21 35.07,-25.29 23.5,-6.44 52,-1.84 52,-1.84"
         id="path106"
         inkscape:connector-curvature="0"
         style="fill:none;stroke:#000000;stroke-width:2.5px;stroke-linecap:round;stroke-linejoin:round" />
      <path
         d="m 120.87,126.09 v 0 a 1.25,1.25 0 0 1 0,-2.5 v 0 c 0.37,0 13.13,0 26.88,-1.2 13.75,-1.2 22.82,-2.58 26.25,-3.39 3.43,-0.81 9.89,-10 9.37,-23.78 -0.5,-13.25 -3.65,-23 -3.25,-23.16 0.6,-0.23 5.23,9.36 5.75,23.07 0.55,14.51 -6.21,25.1 -11.29,26.31 -3.5,0.83 -12.57,2.23 -26.6,3.45 -13.87,1.18 -26.73,1.2 -27.11,1.2 z"
         id="path108"
         inkscape:connector-curvature="0" />
      <path
         d="M 217.49,56.52 C 217,56 232.87,41.81 257.05,39.16 c 32,-3.51 45.57,2.82 46.14,3.18 0.57,0.36 -0.79,0.94 -1.17,1.5 -0.38,0.56 -1.17,0.28 -1.75,-0.08 -0.13,-0.08 -15.75,-5.36 -43.62,-2.21 -23.28,2.63 -38.92,15.2 -39.16,14.97 z"
         id="path110"
         inkscape:connector-curvature="0" />
      <path
         class="cls-17"
         d="m 300.28,43.38 c 10,-5.17 25.27,-16.37 31.25,-22.25 7.39,-7.27 16.86,-16.3 19.5,-18.92 1.38,-1.37 3,-1.29 4,0.33 2.35,3.83 3.65,15.56 0.67,29.25 -4.25,19.5 -14.5,34.67 -26.75,43.92 -11,8.67 -23.71,-2 -27.83,-9.42 -3.33,-6 -4.58,-13.83 -3.83,-18.75 a 5.43,5.43 0 0 1 2.99,-4.16 z"
         id="path112"
         inkscape:connector-curvature="0"
         style="fill:none;stroke:#000000;stroke-width:2.5px;stroke-linecap:round;stroke-linejoin:round" />
      <path
         class="cls-18"
         d="m 312.78,36 c 0,0 -0.33,12.25 8.67,21.5 a 24.23,24.23 0 0 0 18.92,7.33"
         id="path114"
         inkscape:connector-curvature="0"
         style="fill:none;stroke:#000000;stroke-width:2px;stroke-linecap:round;stroke-linejoin:round" />
      <path
         class="cls-18"
         d="m 330,22.63 c 0,0 -0.15,7.26 6.17,14.92 6.32,7.66 15.67,7.17 15.67,7.17"
         id="path116"
         inkscape:connector-curvature="0"
         style="fill:none;stroke:#000000;stroke-width:2px;stroke-linecap:round;stroke-linejoin:round" />
      <path
         d="m 412.28,157.45 a 90.36,90.36 0 0 1 -25.1,-3.29 c -27.94,-8.12 -38.87,-32 -44.12,-43.55 -0.48,-1 -0.92,-2 -1.32,-2.86 l -0.05,-0.12 a 2.73,2.73 0 0 1 0.28,-2.79 c 1.29,-1.56 4.32,-1.1 9.33,-0.34 a 78,78 0 0 0 14.86,1.22 c 19.76,-0.75 60.46,1.75 94.13,24.5 -9.8,-9.06 -21.5,-18.25 -47.23,-28.76 C 382.64,88.94 347.19,88 346.83,88 a 1.25,1.25 0 0 1 -1.16,-0.86 c -3,-9.19 -10.14,-16.62 -10.21,-16.69 a 1.2517588,1.2517588 0 0 1 1.8,-1.74 52.68,52.68 0 0 1 10.5,16.82 c 5.69,0.24 38.07,2.06 66.24,13.65 28.89,11.88 45.52,24 55.59,40.51 a 3.71,3.71 0 0 1 0.31,3.24 c -1,2.58 -5.2,4.38 -14.15,7.43 a 146.65,146.65 0 0 1 -43.47,7.09 z M 344,106.74 c 0.4,0.85 0.84,1.8 1.31,2.83 5.49,12 15.7,34.39 42.55,42.19 29.33,8.52 63.3,-2.53 67.08,-3.82 6,-2 11.91,-4.19 12.63,-6 a 1.2,1.2 0 0 0 -0.17,-1.08 54.39,54.39 0 0 0 -5.81,-8.25 c -34,-23.55 -74.33,-25.21 -95.37,-24.42 A 80.2,80.2 0 0 1 350.92,107 c -2.75,-0.42 -6.14,-0.93 -7,-0.56 a 1.67,1.67 0 0 0 0.08,0.3 z"
         id="path118"
         inkscape:connector-curvature="0" />
      <path
         class="cls-17"
         d="m 350.86,123.8 c 0,0 12.75,54.17 -7.5,96.67 -20.25,42.5 -52,52.5 -78.25,57.25 -26.25,4.75 -45.5,-5.5 -61,-6 -15.5,-0.5 -39.42,0.25 -39.42,0.25"
         id="path120"
         inkscape:connector-curvature="0"
         style="fill:none;stroke:#000000;stroke-width:2.5px;stroke-linecap:round;stroke-linejoin:round" />
      <path
         class="cls-17"
         d="m 189.58,44.55 c -4.41,-1.56 -14.17,-5.5 -21.29,-14.23 -9.07,-11.12 -10.53,-21 -16.36,-19.78 -5.83,1.22 -12.19,18.17 -5.94,42 4,14.59 9.81,20.09 9.81,20.09"
         id="path122"
         inkscape:connector-curvature="0"
         style="fill:none;stroke:#000000;stroke-width:2.5px;stroke-linecap:round;stroke-linejoin:round" />
      <path
         class="cls-18"
         d="m 181.95,41.26 c 0,0 -12.67,-2.55 -24.42,7.74 a 23,23 0 0 0 -7.74,14.11"
         id="path124"
         inkscape:connector-curvature="0"
         style="fill:none;stroke:#000000;stroke-width:2px;stroke-linecap:round;stroke-linejoin:round" />
      <path
         class="cls-18"
         d="m 166.16,27.87 a 18.64,18.64 0 0 0 -15.07,3.87 20.12,20.12 0 0 0 -6.78,12.81"
         id="path126"
         inkscape:connector-curvature="0"
         style="fill:none;stroke:#000000;stroke-width:2px;stroke-linecap:round;stroke-linejoin:round" />
      <path
         class="cls-17"
         d="M 156.39,85.63 A 93.92,93.92 0 0 0 129.2,83.55 C 113.7,84.54 96,93 91.36,95 c -5.33,2.25 -6,5 -3,9 4.58,6.17 15.25,15.38 31.5,20.88"
         id="path128"
         inkscape:connector-curvature="0"
         style="fill:none;stroke:#000000;stroke-width:2.5px;stroke-linecap:round;stroke-linejoin:round" />
      <path
         d="m 155.78,105.63 c -7.52,-3.08 -16.55,-6.24 -32.67,-6.79 -12.81,-0.44 -28.46,2.29 -28.37,1.75 -0.17,-0.83 17,-3.92 28.62,-3.81 16.07,0.14 25.51,3.1 33.25,6.27 0.64,0.26 -0.67,2.64 -0.83,2.58 z"
         id="path130"
         inkscape:connector-curvature="0" />
      <path
         class="cls-17"
         d="m 360.86,136.71 c 0,0 14.25,45.5 23.25,60.75 1.88,3.18 1.25,8.23 0,11.75 -4.44,12.51 -19.12,34.87 -43.5,53 -23.7,17.62 -57,27.75 -68.75,30 -6.26,1.2 -9.32,-1.23 -12,-3 -11,-7.25 -17.33,-10.5 -17.33,-10.5"
         id="path132"
         inkscape:connector-curvature="0"
         style="fill:none;stroke:#000000;stroke-width:2.5px;stroke-linecap:round;stroke-linejoin:round" />
      <path
         class="cls-17"
         d="m 383.36,195.46 c 0,0 4,0 5.5,2.5 1.5,2.5 12.75,23.25 14,27.75 1,3.65 0.58,9.84 -1,14.75 -2.25,7 -15.75,33 -45.25,53 -29.5,20 -55.5,23 -66.75,23 -5.5,-0.5 -8.5,-1 -13.25,-5.5 -4.75,-4.5 -14,-16.25 -14.25,-17.5 a 1.73,1.73 0 0 1 0.75,-1.83"
         id="path134"
         inkscape:connector-curvature="0"
         style="fill:none;stroke:#000000;stroke-width:2.5px;stroke-linecap:round;stroke-linejoin:round" />
      <path
         d="m 446.6,280.45 c 30.26,23.44 69.22,39.62 75.84,42.29 0.21,-0.81 0.4,-1.64 0.6,-2.45 -7.39,-3 -45.36,-18.93 -74.91,-41.81 -32.59,-25.24 -43.53,-47.58 -43.64,-47.8 a 1.2523977,1.2523977 0 0 0 -2.26,1.08 c 0.45,0.92 11.26,23.05 44.37,48.69 z"
         id="path136"
         inkscape:connector-curvature="0" />
      <path
         d="m 282.11,354.92 c -1.16,33.27 -2.26,64.7 7.06,92.94 3,9 7.31,19.24 11,27.49 l 2.89,0.32 a 306.28,306.28 0 0 1 -11.55,-28.59 c -9.18,-27.81 -8.09,-59 -6.94,-92.06 1.23,-35.21 -2.82,-41.16 -3.29,-41.72 a 1.28,1.28 0 0 0 -1.78,-0.19 1.23,1.23 0 0 0 -0.18,1.74 c 0.21,0.22 3.98,6.03 2.79,40.07 z"
         id="path138"
         inkscape:connector-curvature="0" />
      <path
         class="cls-18"
         d="m 251.36,77.46 c 11.17,-1.58 19.75,5 23.5,16.58 3.5,10.83 3.33,26.25 -3.25,36.17 -6,9 -14.67,12.75 -22.67,12 -7.26,-0.68 -15.67,-6.67 -18.92,-18.42 -3.25,-11.75 -0.92,-23.83 1.83,-30.08 2.75,-6.25 9.15,-14.77 19.51,-16.25 z"
         id="path140"
         inkscape:connector-curvature="0"
         style="fill:none;stroke:#000000;stroke-width:2px;stroke-linecap:round;stroke-linejoin:round" />
      <path
         class="cls-18"
         d="m 251.4,94.66 a 10,10 0 0 1 6.29,-0.27 c 5.74,1.7 8.81,8.17 9.67,14.82 1,7.75 -1.92,19.08 -8.75,22.25 -5.78,2.68 -13,0.5 -15.75,-7.25 -2.64,-7.44 -1.33,-17 1.75,-23.25 a 12.31,12.31 0 0 1 6.79,-6.3 z"
         id="path142"
         inkscape:connector-curvature="0"
         style="fill:none;stroke:#000000;stroke-width:2px;stroke-linecap:round;stroke-linejoin:round" />
      <path
         class="cls-18"
         d="m 183.48,85.42 a 10.71,10.71 0 0 0 -12.14,-3.93 c -7.25,2.25 -10.36,13.72 -9.82,25 a 49.63,49.63 0 0 0 2.92,15.42"
         id="path144"
         inkscape:connector-curvature="0"
         style="fill:none;stroke:#000000;stroke-width:2px;stroke-linecap:round;stroke-linejoin:round" />
      <path
         class="cls-18"
         d="m 184.74,96.21 c 0,0 -1.25,-4.21 -5.38,-4.21 -5.5,0 -8.25,10.17 -8,15.92 0.48,11 2.92,12.33 2.92,12.33"
         id="path146"
         inkscape:connector-curvature="0"
         style="fill:none;stroke:#000000;stroke-width:2px;stroke-linecap:round;stroke-linejoin:round" />
      <path
         d="m 179,69.59 c 0,0 -6,-4.72 -13.12,-4.28 -5.8,0.36 -8.22,4 -8.22,4 a 16,16 0 0 1 3.09,-5.06 c 2.46,-2.62 3.77,-4.33 6.59,-4.33 5.66,0.34 11.66,9.67 11.66,9.67 z"
         id="path148"
         inkscape:connector-curvature="0" />
      <path
         d="m 274.63,67.37 c 0,0 -10.51,-5.64 -21.26,-5.09 a 43,43 0 0 0 -18.08,4.86 23.74,23.74 0 0 1 6.71,-7.4 20.63,20.63 0 0 1 13.32,-3.86 c 11.49,0.37 19.31,11.49 19.31,11.49 z"
         id="path150"
         inkscape:connector-curvature="0" />
      <path
         class="cls-19"
         d="m 139,144.21 c 0,0 -7.54,0 -15.22,7.44 -5.93,5.75 -7.56,10.82 -8.69,16.31 a 29.85,29.85 0 0 0 -0.5,6.5"
         id="path152"
         inkscape:connector-curvature="0"
         style="fill:none;stroke:#000000;stroke-width:2px;stroke-miterlimit:10" />
      <path
         class="cls-19"
         d="m 23.78,146.14 c 0,0 -4.29,-0.5 -5.83,2.49 -1.3,2.52 -2.34,6.11 0.2,13 a 30.11,30.11 0 0 0 8.65,13.07"
         id="path154"
         inkscape:connector-curvature="0"
         style="fill:none;stroke:#000000;stroke-width:2px;stroke-miterlimit:10" />
    </g>
    <g
       id="Calque_6"
       data-name="Calque 6"
       transform="translate(17.022434,7.0213229)">
      <path
         class="cls-10"
         d="m 307.42,405.3 c -2.88,-7.9 -7.34,-21.47 -8.29,-31.94 -0.57,-6.29 -0.8,-19.79 -0.9,-28.64 a 43.27,43.27 0 0 0 -0.07,-8.39 v 0 a 43.41,43.41 0 0 0 -25,-34.76 c 0,0 0,-0.08 0,-0.12 a 12.331246,12.331246 0 1 0 -24.41,-3.52 c 0,0 0,0.08 0,0.12 a 43.35,43.35 0 0 0 -36.31,34.85 c -2.66,8.52 -6.84,21.47 -10.12,29.56 -3.42,8.42 -10.82,19.06 -15.54,25.43 -2.46,1.58 -4,3.44 -4.26,5.56 -1.5,10.39 25.79,22.92 61,28 35.21,5.08 64.89,0.77 66.39,-9.61 0.31,-2.13 -0.59,-4.33 -2.49,-6.54 z"
         id="path157"
         inkscape:connector-curvature="0"
         style="fill:#f9da78" />
      <path
         class="cls-11"
         d="m 262.7,288.8 c 0,0 7.07,4.69 4.49,12.69 2.83,0.64 9,4.81 11.9,9.39 2.72,4.32 8.28,12.75 6.78,30.75 -1.5,18 -0.67,52.84 -0.67,52.84 l 21.57,10.25 c 0,0 -6.24,-15.66 -7.57,-27.83 -1.33,-12.17 -0.95,-39.57 -0.95,-39.57 0,0 -1.51,-19.14 -14.39,-28.75 a 100.76,100.76 0 0 0 -10.66,-7 c 0,0 -0.35,-8.94 -6.09,-11.94 -5.74,-3 -4.41,-0.83 -4.41,-0.83 z"
         id="path159"
         inkscape:connector-curvature="0"
         style="fill:#edb254" />
      <path
         class="cls-20"
         d="m 307.42,405.3 c -2.88,-7.9 -7.34,-21.47 -8.29,-31.94 -0.57,-6.29 -0.8,-19.79 -0.9,-28.64 a 43.27,43.27 0 0 0 -0.07,-8.39 v 0 a 43.41,43.41 0 0 0 -25,-34.76 c 0,0 0,-0.08 0,-0.12 a 12.331246,12.331246 0 1 0 -24.41,-3.52 c 0,0 0,0.08 0,0.12 a 43.35,43.35 0 0 0 -36.31,34.85 c -2.66,8.52 -6.84,21.47 -10.12,29.56 -3.42,8.42 -10.82,19.06 -15.54,25.43 -2.46,1.58 -4,3.44 -4.26,5.56 -1.5,10.39 25.79,22.92 61,28 35.21,5.08 64.89,0.77 66.39,-9.61 0.31,-2.13 -0.59,-4.33 -2.49,-6.54 z"
         id="path161"
         inkscape:connector-curvature="0"
         style="fill:none;stroke:#000000;stroke-width:2.5px;stroke-miterlimit:10" />
      <ellipse
         class="cls-21"
         cx="245.83"
         cy="405.57001"
         rx="8.9700003"
         ry="49.889999"
         transform="rotate(-81.79,245.79928,405.56524)"
         id="ellipse163"
         style="fill:#c4912a" />
      <path
         class="cls-22"
         d="m 221.36,409.55 c 0,0 7.33,-4.84 25.25,-6.75 a 13.55,13.55 0 0 1 1.88,-5.9 c -25.13,-4.6 -50.91,-2.79 -51.89,1.05 -0.82,4.68 24.76,11.6 24.76,11.6 z"
         id="path165"
         inkscape:connector-curvature="0"
         style="fill:#a36f1c" />
      <path
         class="cls-22"
         d="m 267.11,401.25 a 14.25,14.25 0 0 1 0.3,3.13 59.4,59.4 0 0 1 12.54,4.21 c 7.75,3.92 8.54,7 8.54,7 0,0 7.75,-1.12 6.17,-3.83 -1.58,-2.71 -11.29,-6.75 -16.92,-8.17 -5.63,-1.42 -10.63,-2.34 -10.63,-2.34 z"
         id="path167"
         inkscape:connector-curvature="0"
         style="fill:#a36f1c" />
      <path
         class="cls-20"
         d="m 186.83,387.88 c 0,0 12.38,-8.54 61.75,-1.41 47.67,6.88 58.84,18.84 58.84,18.84"
         id="path169"
         inkscape:connector-curvature="0"
         style="fill:none;stroke:#000000;stroke-width:2.5px;stroke-miterlimit:10" />
      <path
         class="cls-23"
         d="m 246.37,401.85 a 10.43,10.43 0 1 0 20.27,-1.59 c -5.55,-1.25 -11.67,-2.39 -18.14,-3.36 a 10.36,10.36 0 0 0 -2.13,4.95 z"
         id="path171"
         inkscape:connector-curvature="0"
         style="fill:#c4912a;stroke:#000000;stroke-width:2px;stroke-miterlimit:10" />
      <ellipse
         class="cls-19"
         cx="245.83"
         cy="405.57001"
         rx="8.9700003"
         ry="49.889999"
         transform="rotate(-81.79,245.79928,405.56524)"
         id="ellipse173"
         style="fill:none;stroke:#000000;stroke-width:2px;stroke-miterlimit:10" />
      <ellipse
         class="cls-10"
         cx="252.57001"
         cy="407.09"
         rx="3.29"
         ry="4.1300001"
         transform="rotate(-36.79,252.54661,407.07096)"
         id="ellipse175"
         style="fill:#f9da78" />
      <ellipse
         class="cls-24"
         cx="240.03"
         cy="316.45999"
         rx="11.81"
         ry="7.5700002"
         transform="rotate(-36.79,240.00732,316.44006)"
         id="ellipse177"
         style="fill:#fffecc" />
    </g>
    <g
       id="Calque_7"
       data-name="Calque 7"
       transform="translate(17.022434,7.0213229)">
      <path
         class="cls-25"
         d="m 144.46,257.36 c 0,0 12.56,20.76 14.79,33.47 2.23,12.71 -4,3.13 -4,3.13 0,0 -8.83,-22.05 -14.88,-33.18 2.16,-1.65 4.09,-3.42 4.09,-3.42 z"
         id="path185"
         inkscape:connector-curvature="0"
         style="fill:#078400;stroke:#000000;stroke-width:2px;stroke-miterlimit:10" />
      <path
         class="cls-26"
         d="m 27.8,269.71 c 0,0 -5.8,4.29 -8.8,15.29 -2.4,8.83 -1.08,18.17 -2.75,18.63 -1.67,0.11 -3.33,-10.17 -2.67,-17.42 a 36.13,36.13 0 0 1 8.5,-21.12 l 3.89,0.42 z"
         id="path187"
         inkscape:connector-curvature="0"
         style="fill:#0eb506;stroke:#000000;stroke-width:2px;stroke-miterlimit:10" />
      <path
         class="cls-26"
         d="m 139.33,260.76 c 0,0 -11.2,7.24 -15.33,16.63 -4.54,10.39 -2.46,27.65 -2.46,27.65 0,0 10.57,-6.47 16.64,-21.28 3.52,-8.52 1.15,-23 1.15,-23 z"
         id="path189"
         inkscape:connector-curvature="0"
         style="fill:#0eb506;stroke:#000000;stroke-width:2px;stroke-miterlimit:10" />
      <path
         class="cls-27"
         d="m 139,261.38 -16.75,42.25 c 0,0 10.77,-8.36 14.81,-17.35 4.64,-10.28 1.94,-24.9 1.94,-24.9 z"
         id="path191"
         inkscape:connector-curvature="0"
         style="fill:#078400" />
      <path
         class="cls-19"
         d="m 139.33,260.76 c 0,0 -11.2,7.24 -15.33,16.63 -4.54,10.39 -2.46,27.65 -2.46,27.65 0,0 10.57,-6.47 16.64,-21.28 3.52,-8.52 1.15,-23 1.15,-23 z"
         id="path193"
         inkscape:connector-curvature="0"
         style="fill:none;stroke:#000000;stroke-width:2px;stroke-miterlimit:10" />
      <ellipse
         class="cls-28"
         cx="186"
         cy="318.16"
         rx="17.639999"
         ry="4.0999999"
         id="ellipse195"
         style="fill:#ffffff;stroke:#000000;stroke-width:2px;stroke-miterlimit:10" />
      <ellipse
         class="cls-28"
         cx="137.66"
         cy="318.16"
         rx="17.639999"
         ry="4.0999999"
         id="ellipse197"
         style="fill:#ffffff;stroke:#000000;stroke-width:2px;stroke-miterlimit:10" />
      <ellipse
         class="cls-28"
         cx="161.83"
         cy="342.32999"
         rx="4.0999999"
         ry="17.639999"
         id="ellipse199"
         style="fill:#ffffff;stroke:#000000;stroke-width:2px;stroke-miterlimit:10" />
      <ellipse
         class="cls-28"
         cx="161.83"
         cy="294"
         rx="4.0999999"
         ry="17.639999"
         id="ellipse201"
         style="fill:#ffffff;stroke:#000000;stroke-width:2px;stroke-miterlimit:10" />
      <ellipse
         class="cls-28"
         cx="178.92"
         cy="335.25"
         rx="4.0999999"
         ry="17.639999"
         transform="rotate(-45,178.91896,335.25934)"
         id="ellipse203"
         style="fill:#ffffff;stroke:#000000;stroke-width:2px;stroke-miterlimit:10" />
      <ellipse
         class="cls-28"
         cx="144.74001"
         cy="301.07001"
         rx="4.0999999"
         ry="17.639999"
         transform="rotate(-45,144.74006,301.07671)"
         id="ellipse205"
         style="fill:#ffffff;stroke:#000000;stroke-width:2px;stroke-miterlimit:10" />
      <ellipse
         class="cls-28"
         cx="144.74001"
         cy="335.25"
         rx="17.639999"
         ry="4.0999999"
         transform="rotate(-45,144.73819,335.25748)"
         id="ellipse207"
         style="fill:#ffffff;stroke:#000000;stroke-width:2px;stroke-miterlimit:10" />
      <ellipse
         class="cls-28"
         cx="178.92"
         cy="301.07001"
         rx="17.639999"
         ry="4.0999999"
         transform="rotate(-45,178.92083,301.07857)"
         id="ellipse209"
         style="fill:#ffffff;stroke:#000000;stroke-width:2px;stroke-miterlimit:10" />
      <ellipse
         class="cls-28"
         cx="183.98"
         cy="327.82999"
         rx="4.0999999"
         ry="17.639999"
         transform="rotate(-66.42,184.00008,327.8384)"
         id="ellipse211"
         style="fill:#ffffff;stroke:#000000;stroke-width:2px;stroke-miterlimit:10" />
      <ellipse
         class="cls-28"
         cx="139.67999"
         cy="308.5"
         rx="4.0999999"
         ry="17.639999"
         transform="rotate(-66.42,139.70028,308.50557)"
         id="ellipse213"
         style="fill:#ffffff;stroke:#000000;stroke-width:2px;stroke-miterlimit:10" />
      <ellipse
         class="cls-28"
         cx="152.16"
         cy="340.31"
         rx="17.639999"
         ry="4.0999999"
         transform="rotate(-66.42,152.17877,340.32952)"
         id="ellipse215"
         style="fill:#ffffff;stroke:#000000;stroke-width:2px;stroke-miterlimit:10" />
      <ellipse
         class="cls-28"
         cx="171.5"
         cy="296.01001"
         rx="17.639999"
         ry="4.0999999"
         transform="rotate(-66.42,171.51659,296.02209)"
         id="ellipse217"
         style="fill:#ffffff;stroke:#000000;stroke-width:2px;stroke-miterlimit:10" />
      <ellipse
         class="cls-28"
         cx="170.66"
         cy="340.66"
         rx="4.0999999"
         ry="17.639999"
         transform="rotate(-21.42,170.68989,340.71529)"
         id="ellipse219"
         style="fill:#ffffff;stroke:#000000;stroke-width:2px;stroke-miterlimit:10" />
      <ellipse
         class="cls-28"
         cx="153"
         cy="295.67001"
         rx="4.0999999"
         ry="17.639999"
         transform="rotate(-21.42,153.02663,295.699)"
         id="ellipse221"
         style="fill:#ffffff;stroke:#000000;stroke-width:2px;stroke-miterlimit:10" />
      <ellipse
         class="cls-28"
         cx="139.33"
         cy="326.98999"
         rx="17.639999"
         ry="4.0999999"
         transform="rotate(-21.42,139.35011,327.03877)"
         id="ellipse223"
         style="fill:#ffffff;stroke:#000000;stroke-width:2px;stroke-miterlimit:10" />
      <ellipse
         class="cls-28"
         cx="184.33"
         cy="309.34"
         rx="17.639999"
         ry="4.0999999"
         transform="rotate(-21.42,184.3664,309.37552)"
         id="ellipse225"
         style="fill:#ffffff;stroke:#000000;stroke-width:2px;stroke-miterlimit:10" />
      <circle
         class="cls-29"
         cx="161.83"
         cy="318.16"
         r="13.12"
         id="circle227"
         style="fill:#ffb948;stroke:#000000;stroke-width:2px;stroke-miterlimit:10" />
      <path
         class="cls-30"
         d="m 19.32,270.75 a 29.33,29.33 0 0 1 3.19,-4.62 l 2.77,0.29 c 0,0 0.94,2.08 1.31,3 a 27.93,27.93 0 0 0 -4.24,5.23 18.51,18.51 0 0 1 -3.03,-3.9 z"
         id="path229"
         inkscape:connector-curvature="0"
         style="fill:#067f00" />
      <ellipse
         class="cls-31"
         cx="158.39999"
         cy="316.45999"
         rx="6.9099998"
         ry="5.8499999"
         transform="rotate(-54.08,158.40318,316.46514)"
         id="ellipse231"
         style="fill:#ffed69" />
    </g>
  </g>
  <g
     inkscape:groupmode="layer"
     id="layer3"
     inkscape:label="green"
     transform="translate(1.9180879,-7.019796)"
     sodipodi:insensitive="true">
    <path
       style="opacity:1;fill:#66ff00;fill-opacity:1;fill-rule:evenodd;stroke:none;stroke-width:0.60853565;stroke-opacity:1;paint-order:stroke markers fill"
       d="m 0.39661775,341.15327 c -0.11411161,1.16646 -0.20899649,2.3336 -0.28464,3.50124 C -20.990971,421.35422 125.86504,517.49579 280.98962,517.49558 438.64225,522.85319 584.30325,397.83483 555.00059,340.90254 505.43117,397.12826 403.45036,439.87963 283.74369,439.94715 159.09138,439.91007 46.970884,400.81731 0.39661775,341.15327 Z"
       id="path586"
       inkscape:connector-curvature="0"
       sodipodi:nodetypes="cccccc" />
  </g>
  <g
     inkscape:groupmode="layer"
     id="layer2"
     inkscape:label="text-on-path"
     transform="translate(1.9180879,-7.019796)"
     sodipodi:insensitive="true">
    <path
       inkscape:connector-curvature="0"
       id="path592"
       d="M 0.15142078,387.94552 C 125.67612,558.8304 444.07981,553.74891 558.14023,372.60607 370.0055,497.91685 199.18697,455.9735 0.15142078,387.94552 Z"
       style="opacity:1;fill:none;fill-opacity:1;fill-rule:evenodd;stroke:none;stroke-width:0.53657293;stroke-opacity:1;paint-order:stroke markers fill"
       sodipodi:nodetypes="ccc" />
    <g
       transform="matrix(1.0024271,0.01039894,-0.01037309,0.99993496,-584.132,-162.51154)"
       style="font-style:normal;font-weight:normal;font-size:40px;line-height:1.25;font-family:sans-serif;letter-spacing:0px;word-spacing:0px;fill:#000000;fill-opacity:1;stroke:#008000"
       id="flowRoot594" />
    <g
       aria-label="Have a really nice day, Dearest!"
       transform="matrix(0.98882019,0,0,1,575.41609,165.20234)"
       style="font-style:normal;font-weight:normal;font-size:40px;line-height:1.25;font-family:sans-serif;letter-spacing:0px;word-spacing:0px;fill:#225500;fill-opacity:1;stroke:#008000"
       id="text622">
      <path
         d="m -552.18634,211.27946 2.51416,3.04047 -9.21173,7.61717 9.13563,11.04805 9.21173,-7.61717 2.51416,3.04048 -22.4724,18.5824 -2.51417,-3.04047 10.70186,-8.84936 -9.13562,-11.04805 -10.70186,8.84935 -2.51416,-3.04047 z"
         style="fill:#225500;stroke:#008000"
         id="path137"
         inkscape:connector-curvature="0" />
      <path
         d="m -540.37919,251.71848 q -3.10276,-3.05662 -4.99839,-3.52581 -1.89563,-0.46919 -3.58158,1.2422 -1.34327,1.36355 -1.24778,3.04778 0.1231,1.68403 1.66753,3.20549 2.1288,2.09715 4.8892,1.85549 2.78803,-0.24186 5.25526,-2.74633 l 0.56198,-0.57047 z m 6.14807,3.97297 -8.75868,8.89088 -2.56012,-2.52206 2.33016,-2.36533 q -2.27466,0.55567 -4.25419,-0.051 -1.96582,-0.62059 -3.85809,-2.48472 -2.39316,-2.35757 -2.49651,-5.09139 -0.0757,-2.73402 2.14478,-4.98805 2.5906,-2.6297 5.65959,-2.23836 3.0829,0.40505 6.57525,3.84547 l 3.58974,3.53637 0.24673,-0.25045 q 1.74076,-1.76705 1.51778,-3.87847 -0.19536,-2.11163 -2.29633,-4.18136 -1.33572,-1.31586 -2.91713,-2.24317 -1.58141,-0.9273 -3.38068,-1.43864 l 2.33016,-2.36534 q 1.93986,0.84175 3.52209,1.87954 1.59595,1.02388 2.84818,2.25749 3.38104,3.33077 3.32363,6.72872 -0.0574,3.39795 -3.56636,6.95987 z"
         style="fill:#225500;stroke:#008000"
         id="path139"
         inkscape:connector-curvature="0" />
      <path
         d="m -525.4899,251.04299 2.93377,2.42866 -6.44166,18.5014 16.97313,-9.78313 2.93377,2.42866 -20.26812,11.61939 -3.76124,-3.11367 z"
         style="fill:#225500;stroke:#008000"
         id="path141"
         inkscape:connector-curvature="0" />
      <path
         d="m -496.90558,285.39011 -1.0053,1.44197 -13.5545,-9.44983 q -1.93004,3.17819 -1.41281,5.91972 0.54442,2.73668 3.47642,4.78079 1.69832,1.18402 3.5749,1.87329 1.89261,0.70043 4.0436,0.96195 l -1.94359,2.78781 q -2.0553,-0.43291 -3.96732,-1.24211 -1.91201,-0.8092 -3.62635,-2.0044 -4.29387,-2.99356 -5.06678,-7.24667 -0.75689,-4.24193 2.21434,-8.50375 3.07175,-4.40602 7.24136,-5.33237 4.19681,-0.93121 8.23432,1.88363 3.62094,2.52442 4.08898,6.32689 0.49524,3.79761 -2.29727,7.80308 z m -2.34484,-2.92046 q 1.65463,-2.44164 1.33012,-4.81072 -0.3085,-2.35791 -2.48747,-3.87704 -2.46737,-1.72018 -4.9292,-1.36509 -2.4458,0.36626 -4.43497,2.74134 z"
         style="fill:#225500;stroke:#008000"
         id="path143"
         inkscape:connector-curvature="0" />
      <path
         d="m -473.75648,299.67411 q -3.84491,-2.04617 -5.79566,-1.95594 -1.95074,0.0902 -3.07934,2.21095 -0.89922,1.68969 -0.32793,3.27695 0.5977,1.5792 2.51153,2.5977 2.63799,1.40387 5.2152,0.38592 2.60362,-1.02602 4.25524,-4.12953 l 0.3762,-0.70691 z m 7.02506,2.05708 -5.86323,11.01747 -3.17247,-1.68831 1.55985,-2.9311 q -2.02214,1.18059 -4.09247,1.16293 -2.06115,-0.0349 -4.40603,-1.28279 -2.96558,-1.57821 -3.84338,-4.16933 -0.85137,-2.59919 0.63508,-5.39235 1.73419,-3.25869 4.78751,-3.75777 3.07056,-0.4899 7.39824,1.81318 l 4.44837,2.36732 0.16516,-0.31035 q 1.1653,-2.1897 0.35012,-4.15014 -0.78877,-1.9685 -3.39228,-3.35402 -1.6552,-0.88086 -3.43524,-1.31928 -1.78004,-0.43842 -3.65042,-0.41606 l 1.55986,-2.93109 q 2.09926,0.25431 3.91156,0.7984 1.82148,0.52685 3.37324,1.35266 4.18974,2.22968 5.10262,5.50321 0.91288,3.27354 -1.43609,7.68742 z"
         style="fill:#225500;stroke:#008000"
         id="path145"
         inkscape:connector-curvature="0" />
      <path
         d="m -435.47458,308.83182 q -0.42568,-0.55587 -1.03416,-0.97586 -0.58298,-0.43061 -1.37743,-0.75829 -2.81668,-1.16178 -5.09298,0.0543 -2.2508,1.2055 -3.66579,4.63607 l -4.39393,10.65285 -3.34029,-1.37776 8.341,-20.22235 3.3403,1.37776 -1.29584,3.14168 q 1.80686,-1.40973 3.85095,-1.60185 2.05155,-0.21019 4.45295,0.78031 0.34306,0.1415 0.736,0.36695 0.40038,0.2074 0.8687,0.5062 z"
         style="fill:#225500;stroke:#008000"
         id="path147"
         inkscape:connector-curvature="0" />
      <path
         d="m -418.21119,321.95082 -0.577,1.66041 -15.6079,-5.42379 q -0.99672,3.58226 0.24397,6.08109 1.26556,2.4868 4.64173,3.66003 1.9556,0.67958 3.94875,0.8346 2.01159,0.16144 4.15298,-0.16962 l -1.11553,3.21013 q -2.09573,0.14016 -4.15547,-0.12071 -2.05975,-0.26088 -4.0338,-0.94687 -4.94434,-1.71817 -6.84071,-5.60276 -1.87792,-3.87819 -0.17257,-8.78564 1.76305,-5.07349 5.5257,-7.09494 3.7875,-2.03349 8.43667,-0.4179 4.16948,1.44891 5.65029,4.98233 1.50566,3.52138 -0.0971,8.13364 z m -3.04843,-2.17589 q 0.93118,-2.79863 -0.0231,-4.99117 -0.93583,-2.18612 -3.4449,-3.05803 -2.84115,-0.98731 -5.11468,0.0215 -2.25508,1.01525 -3.52632,3.84045 z"
         style="fill:#225500;stroke:#008000"
         id="path149"
         inkscape:connector-curvature="0" />
      <path
         d="m -403.94239,326.84606 q -4.20029,-1.15224 -6.08365,-0.636 -1.88336,0.51624 -2.5189,2.833 -0.50637,1.84587 0.39941,3.26901 0.92978,1.40947 3.02051,1.983 2.88181,0.79056 5.17271,-0.7683 2.31489,-1.57253 3.24495,-4.9629 l 0.21185,-0.77225 z m 7.30528,0.4648 -3.30171,12.03581 -3.46571,-0.95073 0.87839,-3.20201 q -1.71367,1.59569 -3.73738,2.03292 -2.01854,0.4184 -4.58015,-0.28431 -3.23969,-0.88872 -4.66487,-3.22395 -1.40117,-2.3489 -0.56412,-5.40024 0.97656,-3.55988 3.84585,-4.71704 2.88813,-1.15199 7.61581,0.14493 l 4.85953,1.33308 0.093,-0.33903 q 0.65621,-2.3921 -0.56944,-4.12577 -1.20165,-1.74734 -4.04579,-2.52755 -1.8082,-0.49603 -3.64106,-0.53302 -1.83286,-0.037 -3.65272,0.39542 l 0.87839,-3.20202 q 2.10389,-0.21271 3.99142,-0.0797 1.89271,0.11416 3.58789,0.57919 4.577,1.25558 6.18621,4.24888 1.6092,2.9933 0.28645,7.81516 z"
         style="fill:#225500;stroke:#008000"
         id="path151"
         inkscape:connector-curvature="0" />
      <path
         d="m -386.03836,311.33184 3.50643,0.78736 -6.65832,29.65226 -3.50644,-0.78735 z"
         style="fill:#225500;stroke:#008000"
         id="path153"
         inkscape:connector-curvature="0" />
      <path
         d="m -376.04085,313.47851 3.5275,0.68687 -5.80855,29.83037 -3.5275,-0.68687 z"
         style="fill:#225500;stroke:#008000"
         id="path155"
         inkscape:connector-curvature="0" />
      <path
         d="m -362.25094,348.7547 q -2.08392,3.63826 -3.68941,4.60302 -1.60549,0.96477 -4.00078,0.6069 l -2.83958,-0.42424 0.44444,-2.97479 2.08622,0.31169 q 1.46809,0.21933 2.38329,-0.35486 0.9152,-0.5742 2.28709,-3.01547 l 0.87988,-1.52738 -5.57016,-22.59452 3.76678,0.56277 4.23276,17.93166 9.28904,-15.91146 3.76678,0.56277 z"
         style="fill:#225500;stroke:#008000"
         id="path158"
         inkscape:connector-curvature="0" />
      <path
         d="m -315.9338,337.71741 -0.73821,13.18248 -3.58812,-0.20094 0.73165,-13.06546 q 0.17363,-3.10061 -0.94914,-4.70887 -1.12278,-1.60827 -3.54086,-1.74368 -2.90561,-0.16271 -4.68641,1.59595 -1.7808,1.75865 -1.95989,4.95676 l -0.69125,12.34394 -3.60763,-0.20202 1.22306,-21.84078 3.60763,0.20202 -0.19001,3.39312 q 1.39734,-1.89749 3.1875,-2.77534 1.80967,-0.87675 4.09125,-0.74898 3.76363,0.21076 5.56316,2.65895 1.80062,2.42869 1.54727,6.95285 z"
         style="fill:#225500;stroke:#008000"
         id="path160"
         inkscape:connector-curvature="0" />
      <path
         d="m -309.21528,329.10112 3.59352,0.0405 -0.24684,21.87361 -3.59352,-0.0405 z m 0.0961,-8.51508 3.59352,0.0405 -0.0514,4.55049 -3.59352,-0.0405 z"
         style="fill:#225500;stroke:#008000"
         id="path162"
         inkscape:connector-curvature="0" />
      <path
         d="m -283.24564,329.57245 0.0981,3.35794 q -1.5473,-0.79502 -3.10158,-1.15996 -1.53533,-0.38504 -3.09717,-0.33944 -3.4946,0.10205 -5.36238,2.3841 -1.86835,2.26253 -1.75149,6.26473 0.11687,4.0022 2.11463,6.17138 1.99719,2.14965 5.49179,2.0476 1.56184,-0.0456 3.07265,-0.50005 1.52977,-0.47454 3.02805,-1.35849 l 0.0969,3.31889 q -1.48274,0.74673 -3.09288,1.14546 -1.59062,0.39815 -3.40625,0.45117 -4.9393,0.14423 -7.93886,-2.87497 -2.99956,-3.0192 -3.15349,-8.29039 -0.1562,-5.34929 2.68274,-8.4999 2.85846,-3.15118 7.97346,-3.30054 1.65945,-0.0485 3.25107,0.25678 1.59105,0.28571 3.09475,0.92569 z"
         style="fill:#225500;stroke:#008000"
         id="path164"
         inkscape:connector-curvature="0" />
      <path
         d="m -258.72997,336.83034 0.15177,1.75124 -16.46173,1.42662 q 0.5539,3.67685 2.70727,5.45068 2.17116,1.75268 5.73203,1.44408 2.06258,-0.17875 3.94511,-0.85161 1.90199,-0.67454 3.72121,-1.85163 l 0.29342,3.38574 q -1.85555,0.9842 -3.84211,1.58766 -1.98657,0.60346 -4.06861,0.78389 -5.21483,0.45193 -8.53285,-2.31881 -3.29856,-2.77244 -3.74712,-7.94835 -0.46373,-5.35104 2.1446,-8.7334 2.62611,-3.40351 7.5296,-3.82846 4.39758,-0.3811 7.19282,2.2389 2.81302,2.59887 3.23459,7.46345 z m -3.67139,-0.74047 q -0.29355,-2.93484 -2.06035,-4.54612 -1.74735,-1.61297 -4.39369,-1.38363 -2.99658,0.25969 -4.65949,2.10939 -1.64346,1.84801 -1.64944,4.94604 z"
         style="fill:#225500;stroke:#008000"
         id="path166"
         inkscape:connector-curvature="0" />
      <path
         d="m -228.41813,325.24974 -2.12896,-11.6429 3.53513,-0.64641 5.46644,29.89495 -3.53513,0.64642 -0.59021,-3.22774 q -0.76302,2.12503 -2.30081,3.37913 -1.52208,1.23136 -3.90446,1.66699 -3.90017,0.71317 -6.92853,-1.94961 -3.00914,-2.66629 -3.9366,-7.73844 -0.92747,-5.07215 0.94341,-8.63077 1.8901,-3.56214 5.79027,-4.27531 2.38238,-0.43563 4.24524,0.19664 1.87856,0.60954 3.34421,2.32705 z m -10.67272,9.7149 q 0.71316,3.90017 2.71534,5.83726 2.01788,1.91435 4.82293,1.40143 2.80505,-0.51291 4.01491,-3.01748 1.20634,-2.52377 0.49318,-6.42395 -0.71317,-3.90018 -2.73105,-5.81453 -2.02139,-1.93357 -4.82644,-1.42065 -2.80505,0.51291 -4.0114,3.03669 -1.19064,2.50105 -0.47747,6.40123 z"
         style="fill:#225500;stroke:#008000"
         id="path168"
         inkscape:connector-curvature="0" />
      <path
         d="m -207.33575,328.19548 q -4.22502,1.05798 -5.61244,2.43226 -1.38741,1.37427 -0.80386,3.70466 0.46495,1.85673 1.95268,2.65198 1.50193,0.77155 3.60497,0.24493 2.89878,-0.72588 4.12945,-3.20856 1.24487,-2.50636 0.39088,-5.91669 l -0.19451,-0.7768 z m 6.59271,-3.18109 3.03163,12.10666 -3.48611,0.87296 -0.80654,-3.22087 q -0.70969,2.23142 -2.25817,3.60575 -1.55322,1.35539 -4.12991,2.00062 -3.25876,0.81603 -5.64673,-0.51889 -2.37378,-1.35861 -3.14236,-4.42791 -0.89668,-3.58084 1.03509,-5.99747 1.95072,-2.42137 6.70623,-3.6122 l 4.88814,-1.22404 -0.0854,-0.34103 q -0.60253,-2.40618 -2.52137,-3.31495 -1.90465,-0.93246 -4.76553,-0.21606 -1.81884,0.45546 -3.43384,1.32296 -1.61499,0.86749 -2.98823,2.13755 l -0.80654,-3.22087 q 1.72854,-1.21808 3.4383,-2.02877 1.705,-0.82964 3.41017,-1.25663 4.60394,-1.15287 7.47528,0.66503 2.87134,1.81791 4.08589,6.66816 z"
         style="fill:#225500;stroke:#008000"
         id="path170"
         inkscape:connector-curvature="0" />
      <path
         d="m -181.28476,334.23508 q -0.25974,4.18476 -1.27292,5.76014 -1.01318,1.57539 -3.31971,2.31389 l -2.73436,0.87549 -0.91718,-2.86456 2.00892,-0.64322 q 1.41368,-0.45263 1.98052,-1.37241 0.56684,-0.91978 0.71743,-3.71606 l 0.11356,-1.75902 -14.98946,-17.80044 3.62721,-1.16136 11.72756,14.21003 1.29318,-18.37902 3.6272,-1.16136 z"
         style="fill:#225500;stroke:#008000"
         id="path172"
         inkscape:connector-curvature="0" />
      <path
         d="m -169.02033,322.58432 3.85653,-1.45279 1.18427,3.14371 -0.7942,6.97794 -2.35778,0.8882 -0.70455,-6.41335 z"
         style="fill:#225500;stroke:#008000"
         id="path174"
         inkscape:connector-curvature="0" />
      <path
         d="m -152.34571,293.0275 10.08984,20.30729 4.26785,-2.12052 q 5.40479,-2.68541 6.68934,-6.37694 1.30204,-3.70022 -1.32253,-8.98256 -2.60719,-5.24737 -6.33393,-6.42719 -3.71793,-1.20601 -9.12272,1.4794 z m -4.97587,-1.14803 7.25885,-3.60662 q 7.59118,-3.77174 12.71491,-2.37003 5.11503,1.38421 8.45224,8.10084 3.35459,6.7516 1.35939,11.69041 -1.9952,4.9388 -9.55141,8.69315 l -7.25885,3.60662 z"
         style="fill:#225500;stroke:#008000"
         id="path176"
         inkscape:connector-curvature="0" />
      <path
         d="m -107.29884,284.12959 0.91472,1.50106 -14.10996,8.59843 q 2.13123,3.04694 4.8488,3.67809 2.72407,0.60431 5.77623,-1.25563 1.76791,-1.07735 3.15483,-2.51718 1.40359,-1.45001 2.50956,-3.31332 l 1.76848,2.90205 q -1.2243,1.70669 -2.73526,3.13063 -1.51095,1.42395 -3.29555,2.51146 -4.46982,2.72385 -8.67386,1.7177 -4.18736,-1.01631 -6.89089,-5.45278 -2.795,-4.58657 -1.96293,-8.77601 0.83858,-4.21629 5.04155,-6.77752 3.76932,-2.29698 7.43809,-1.19337 3.67528,1.07678 6.21619,5.24639 z m -3.61767,0.96947 q -1.56807,-2.49812 -3.8671,-3.1556 -2.28236,-0.66764 -4.55063,0.71461 -2.56848,1.5652 -3.23534,3.96145 -0.65018,2.38607 0.72217,5.16356 z"
         style="fill:#225500;stroke:#008000"
         id="path178"
         inkscape:connector-curvature="0" />
      <path
         d="m -94.67354,276.17626 q -3.523901,2.55974 -4.297484,4.35281 -0.773583,1.79308 0.638287,3.73675 1.124905,1.54862 2.802009,1.73052 1.681427,0.15462 3.435476,-1.11951 2.417744,-1.75623 2.631859,-4.5189 0.21844,-2.78996 -1.847712,-5.63436 l -0.470624,-0.64789 z m 4.927049,-5.41362 7.334839,10.09763 -2.907613,2.11207 -1.951365,-2.68638 q 0.175277,2.33498 -0.747681,4.18828 -0.934438,1.8375 -3.083543,3.39859 -2.717986,1.97433 -5.431763,1.62813 -2.709453,-0.37348 -4.568993,-2.93344 -2.16946,-2.98663 -1.28032,-5.94995 0.90494,-2.9748 4.8713,-5.85593 l 4.07698,-2.96149 -0.206615,-0.28444 q -1.457785,-2.00688 -3.577199,-2.13303 -2.11509,-0.15344 -4.501226,1.57984 -1.51702,1.10194 -2.69101,2.50995 -1.174,1.40801 -1.97337,3.09911 l -1.95137,-2.68638 q 1.14836,-1.77563 2.43148,-3.16634 1.27164,-1.40651 2.69384,-2.43959 3.839951,-2.7893 7.182527,-2.17565 3.342575,0.61364 6.281102,4.65902 z"
         style="fill:#225500;stroke:#008000"
         id="path180"
         inkscape:connector-curvature="0" />
      <path
         d="m -78.825617,253.83898 q -0.689887,0.11935 -1.344172,0.46367 -0.651856,0.31681 -1.310595,0.86871 -2.335531,1.95671 -2.313732,4.53741 0.02423,2.55318 2.407409,5.39774 l 7.400406,8.83309 -2.7697,2.32047 -14.048229,-16.76791 2.7697,-2.32047 2.182493,2.60502 q -0.411054,-2.25458 0.366671,-4.15468 0.765183,-1.91507 2.756372,-3.5833 0.284456,-0.23832 0.666426,-0.48189 0.369428,-0.25855 0.851341,-0.5349 z"
         style="fill:#225500;stroke:#008000"
         id="path182"
         inkscape:connector-curvature="0" />
      <path
         d="m -59.533542,244.53507 1.223091,1.26252 -11.867672,11.49706 q 2.750417,2.50224 5.540262,2.51887 2.790282,-0.011 5.357403,-2.49795 1.486966,-1.44053 2.522398,-3.15065 1.049461,-1.72372 1.717528,-3.78499 l 2.364643,2.44087 q -0.817994,1.93458 -1.977926,3.65654 -1.159932,1.72197 -2.660926,3.17609 -3.759499,3.64209 -8.081917,3.58734 -4.30839,-0.0683 -7.923304,-3.79978 -3.737224,-3.8577 -3.849057,-8.12751 -0.111395,-4.29743 3.423656,-7.72208 3.170324,-3.07132 6.992115,-2.80351 3.82223,0.24019 7.219706,3.74718 z m -3.315004,1.74303 q -2.080131,-2.09104 -4.467545,-2.2256 -2.373386,-0.14814 -4.281191,1.70008 -2.160309,2.09285 -2.28259,4.57714 -0.108252,2.47071 1.842561,4.87739 z"
         style="fill:#225500;stroke:#008000"
         id="path184"
         inkscape:connector-curvature="0" />
      <path
         d="m -54.173458,224.19183 2.561667,2.23321 q -1.589985,0.63495 -2.962533,1.61493 -1.372547,0.97997 -2.527658,2.30497 -1.758335,2.01695 -2.025586,3.57183 -0.254417,1.54016 0.982249,2.61827 0.942223,0.82141 2.115838,0.5749 1.158894,-0.25935 3.544242,-2.0147 l 1.014688,-0.74781 q 3.133908,-2.3465 5.319953,-2.56547 2.184157,-0.24651 4.201101,1.51182 2.296666,2.00219 2.044903,4.99569 -0.238929,2.97878 -3.011194,6.15878 -1.155111,1.325 -2.677898,2.53676 -1.49523,1.20986 -3.39664,2.35065 l -2.797222,-2.43856 q 2.089403,-0.82144 3.757524,-1.9324 1.653399,-1.1238 2.898352,-2.55186 1.668493,-1.91389 1.919135,-3.50916 0.235919,-1.60812 -0.956581,-2.64771 -1.104166,-0.9626 -2.347618,-0.72515 -1.230617,0.22273 -3.970049,2.26535 l -1.042245,0.74971 q -2.72471,2.05545 -4.789581,2.22458 -2.079593,0.1563 -3.993482,-1.51219 -2.32611,-2.02786 -2.15475,-4.78052 0.171359,-2.75267 2.815279,-5.78544 1.309125,-1.50167 2.685069,-2.63415 1.375944,-1.13248 2.793037,-1.86633 z"
         style="fill:#225500;stroke:#008000"
         id="path186"
         inkscape:connector-curvature="0" />
      <path
         d="m -54.14957,212.92916 4.953771,3.74645 4.46511,-5.90402 2.227639,1.68472 -4.46511,5.90403 9.471362,7.16302 q 2.134172,1.61404 3.177618,1.49713 1.055227,-0.13249 2.410076,-1.92395 l 2.226664,-2.94422 2.398996,1.81432 -2.226664,2.94422 q -2.509415,3.31809 -4.694354,3.64918 -2.200516,0.31931 -5.471875,-2.15477 l -9.471362,-7.16302 -1.590474,2.10302 -2.227639,-1.68473 1.590474,-2.10302 -4.953771,-3.74645 z"
         style="fill:#225500;stroke:#008000"
         id="path188"
         inkscape:connector-curvature="0" />
      <path
         d="m -27.526911,215.66934 2.031442,-3.40488 4.260297,2.5418 -2.031441,3.40489 z m -20.781531,-12.39879 2.031442,-3.40489 10.9862,6.55466 5.787757,3.90799 -1.62115,2.71719 -6.198048,-3.2203 z"
         style="fill:#225500;stroke:#008000"
         id="path190"
         inkscape:connector-curvature="0" />
    </g>
  </g>
</svg>
