<?xml version="1.0" encoding="UTF-8" standalone="no"?>
<svg
   xmlns:dc="http://purl.org/dc/elements/1.1/"
   xmlns:cc="http://creativecommons.org/ns#"
   xmlns:rdf="http://www.w3.org/1999/02/22-rdf-syntax-ns#"
   xmlns:svg="http://www.w3.org/2000/svg"
   xmlns="http://www.w3.org/2000/svg"
   xmlns:sodipodi="http://sodipodi.sourceforge.net/DTD/sodipodi-0.dtd"
   xmlns:inkscape="http://www.inkscape.org/namespaces/inkscape"
   viewBox="0 0 563.78066 514.21977"
   version="1.1"
   id="svg234"
   sodipodi:docname="cow-would-you-like-2.svg"
   inkscape:version="0.92.1 r15371"
   width="563.78064"
   height="514.21979"
   inkscape:export-filename="D:\devel\cooking-courses\images\cow-would-1.png"
   inkscape:export-xdpi="290.92001"
   inkscape:export-ydpi="290.92001">
  <metadata
     id="metadata238">
    <rdf:RDF>
      <cc:Work
         rdf:about="">
        <dc:format>image/svg+xml</dc:format>
        <dc:type
           rdf:resource="http://purl.org/dc/dcmitype/StillImage" />
        <dc:title>cow_2</dc:title>
      </cc:Work>
    </rdf:RDF>
  </metadata>
  <sodipodi:namedview
     pagecolor="#ffffff"
     bordercolor="#666666"
     borderopacity="1"
     objecttolerance="10"
     gridtolerance="10"
     guidetolerance="10"
     inkscape:pageopacity="0"
     inkscape:pageshadow="2"
     inkscape:window-width="1470"
     inkscape:window-height="884"
     id="namedview236"
     showgrid="false"
     inkscape:zoom="1.1495887"
     inkscape:cx="67.603428"
     inkscape:cy="257.10989"
     inkscape:window-x="130"
     inkscape:window-y="32"
     inkscape:window-maximized="0"
     inkscape:current-layer="layer2"
     fit-margin-top="0"
     fit-margin-left="0"
     fit-margin-right="0"
     fit-margin-bottom="0"
     inkscape:snap-global="false" />
  <defs
     id="defs4">
    <style
       id="style2">.cls-1{fill:#8c0000;}.cls-2{fill:#db0000;}.cls-3{fill:#fbdac7;}.cls-4{fill:#796656;}.cls-28,.cls-5{fill:#fff;}.cls-6{fill:#e0d2ce;}.cls-7{fill:#38342f;}.cls-8{fill:#0092ff;}.cls-9{fill:#c6685c;}.cls-10{fill:#f9da78;}.cls-11{fill:#edb254;}.cls-12{fill:#77302c;}.cls-13{fill:#e8a892;}.cls-14{fill:#212121;}.cls-15{fill:#bc9377;}.cls-16{fill:#fff6f3;}.cls-17,.cls-18,.cls-19,.cls-20{fill:none;}.cls-17,.cls-18,.cls-19,.cls-20,.cls-23,.cls-25,.cls-26,.cls-28,.cls-29{stroke:#000;}.cls-17,.cls-18{stroke-linecap:round;stroke-linejoin:round;}.cls-17,.cls-20{stroke-width:2.5px;}.cls-18,.cls-19,.cls-23,.cls-25,.cls-26,.cls-28,.cls-29{stroke-width:2px;}.cls-19,.cls-20,.cls-23,.cls-25,.cls-26,.cls-28,.cls-29{stroke-miterlimit:10;}.cls-21,.cls-23{fill:#c4912a;}.cls-22{fill:#a36f1c;}.cls-24{fill:#fffecc;}.cls-25,.cls-27{fill:#078400;}.cls-26{fill:#0eb506;}.cls-29{fill:#ffb948;}.cls-30{fill:#067f00;}.cls-31{fill:#ffed69;}</style>
  </defs>
  <title
     id="title6">cow_2</title>
  <g
     id="Layer_5"
     data-name="Layer 5"
     transform="translate(1.323318,-7.019796)" />
  <g
     inkscape:groupmode="layer"
     id="layer1"
     inkscape:label="cow"
     sodipodi:insensitive="true"
     transform="translate(1.323318,-7.019796)">
    <g
       id="Layer_4"
       data-name="Layer 4"
       transform="translate(17.022434,7.0213229)">
      <path
         class="cls-3"
         d="m 127,128.46 c 0,0 12.92,-4.83 20.92,0.83 8,5.66 8.17,8.75 8.17,12.42 v 7.75 c 0,0 20.17,18.08 26,36.75 5.83,18.67 6.08,23.67 4.75,43.5 -1.33,19.83 -20.23,43.09 -32.73,50.29 -12.5,7.2 -20.25,16.75 -42.25,19.25 -22,2.5 -53.58,-0.58 -58.75,-3.08 -5.17,-2.5 -21.67,-16.67 -25,-28.5 -5.67,-1.5 -12.28,-1.26 -18.33,-7.83 C 2.11,251.46 0.38,239.63 1.88,225 3.38,210.37 6.17,176.92 6.17,174.25 6.17,171.58 3.78,165 2.61,155 c -1.67,-7.33 2,-23.42 7.5,-24.75 9.5,-3 22.5,5.75 22.5,5.75 0,0 20.75,-13.83 39.75,-15.5 36.17,-3.7 54.64,7.96 54.64,7.96 z"
         id="path13"
         inkscape:connector-curvature="0"
         style="fill:#fbdac7" />
      <path
         class="cls-4"
         d="m 191.24,45.12 c -6.69,-2.11 -17.69,-7.75 -26.76,-19 -5.63,-6.34 -5.28,-15.84 -12.67,-14.79 -7.39,1.05 -9.51,18.31 -8.1,33.8 1.41,15.49 12.44,28.07 12.44,28.07 4.99,-18.4 35.09,-28.08 35.09,-28.08 z"
         id="path15"
         inkscape:connector-curvature="0"
         style="fill:#796656" />
      <path
         class="cls-4"
         d="m 298.36,44.13 c 0,0 22,-12.33 30.33,-21.33 8.33,-9 21.31,-22 24.01,-21.34 2.7,0.66 6,8.67 5,17.67 -1,9 -6,25.67 -10.33,35 -4.33,9.33 -16.33,22.33 -22,24 C 319.7,79.8 310.7,77.8 305,72.8 c -5.7,-5 -10,-24.67 -6.64,-28.67 z"
         id="path17"
         inkscape:connector-curvature="0"
         style="fill:#796656" />
      <path
         class="cls-5"
         d="m 146.7,128.3 c 13.33,5.83 8.83,20.83 8.83,20.83 0,0 28.83,24.33 32.17,62.67 3.34,38.34 -22.7,60.33 -22.7,60.33 0,0 36,-1 41.33,-0.67 5.33,0.33 36.67,7 36.67,7 0,0 9,5 18,10.67 9,5.67 17,18.33 21,28 4,9.67 0.33,49.67 0,61 -0.33,11.33 0,26.67 4.33,51.67 2.53,14.62 9.85,33 15.49,45.73 a 206.24,206.24 0 0 0 22,1.19 c 95.92,0 176.65,-66.22 198.9,-155.34 C 460.87,301.19 424,258 414,245.8 c -10,-12.2 -22.33,-35.33 -30,-48.33 -7.67,-13 -24.33,-61.33 -24.33,-61.33 0,0 14.33,18 47,20.67 22.33,1.67 58.67,-11 61,-12.33 2.33,-1.33 2,-4 -2.33,-10.33 C 427,92.13 355,86.46 347.7,86.8 c -2.33,-2.33 -8.33,-14.33 -11.67,-17 -6.67,5.67 -16.33,11.33 -25.67,6.67 -9.34,-4.66 -13.33,-23 -13,-28 0.33,-5 4,-5.67 4,-5.67 a 139.42,139.42 0 0 0 -20,-3.42 100,100 0 0 0 -40.17,4.08 c -7.67,-1.67 -34.21,-2.33 -48.54,1.67 -17.67,4.2 -31,16.34 -35,22 -4,5.66 -1.26,18.48 -1.26,18.48 0,0 -13,-3.5 -26,-2.83 -13,0.67 -32,9 -32,9 0,0 -11.33,3 -12,8.33 2.67,11.33 30,23.33 30,23.33 l 10.67,5 c 0,0 10.01,-4.85 19.64,-0.14 z"
         id="path19"
         inkscape:connector-curvature="0"
         style="fill:#ffffff" />
      <path
         class="cls-5"
         d="m 183.49,86.26 c -2.5,-4.33 -4.13,-6.46 -9.13,-5.79 -5,0.67 -10.29,6 -12,14.13 -1.71,8.13 -2,19.37 2,27.37 4,-0.83 10.54,-1.47 13.54,-2.8 3,-3.17 8.28,-13.82 7.28,-20.82 -1,-7 -1.69,-12.09 -1.69,-12.09 z"
         id="path21"
         inkscape:connector-curvature="0"
         style="fill:#ffffff" />
      <path
         class="cls-3"
         d="m 341.36,103.13 c 0,0 13,3 32.67,1.33 19.67,-1.67 44.33,2.33 63.67,12.33 19.34,10 16.3,8.21 23.66,14.92 7.36,6.71 8.33,9.42 7.33,11.08 -1,1.66 -10.69,6.34 -21.69,9.34 -11,3 -44,9.33 -66.67,-1.67 -22.67,-11 -30.63,-26.66 -30.63,-26.66 z"
         id="path23"
         inkscape:connector-curvature="0"
         style="fill:#fbdac7" />
      <path
         class="cls-6"
         d="m 351.65,195.46 c 0,0 -11.29,58.33 -20.29,73 -9,14.67 -5.36,40.88 -5.36,40.88 l 17.86,-7.65 c 0,0 4.05,6.65 9.58,10.43 -6.25,3.43 -30.15,14 -32.75,18.68 -7.83,10.33 -3,34 -3,34 0,0 6.3,30.33 15.82,57.33 9.52,27 -42.42,23.5 -42.42,23.5 0,0 -8.06,-33.5 -10.73,-63.84 -2.67,-30.34 -5,-63.63 -5,-63.63 0,0 -7.87,-25.35 -18.68,-31.72 -10.81,-6.37 -16.65,-9 -16.65,-9 a 102.47,102.47 0 0 0 43.33,-4.8 c 22.67,-7.8 34,-15.63 41.5,-24.38 19.48,-19.56 26.79,-52.8 26.79,-52.8 z"
         id="path25"
         inkscape:connector-curvature="0"
         style="fill:#e0d2ce" />
      <path
         class="cls-7"
         d="m 236.61,44.46 a 15.46,15.46 0 0 1 -1.9,1.45 c -2.15,1.1 -10.73,3.69 -17,10.18 -11.56,11.29 -15.67,51.85 -3.52,78.65 9.13,20.13 25.24,33.84 32.77,48.72 7.17,14.17 7,33.58 7.71,46.33 0.71,12.75 6.92,36.17 22.67,44.67 22.25,-6.75 35.5,-12.5 47.5,-26.25 12,-13.75 28.5,-41.5 29.25,-71.75 a 183.53,183.53 0 0 0 -3.25,-53 c 0,0 -8.5,-15.5 -8.25,-17.25 0.25,-1.75 4,-1.5 9.5,-0.25 5.5,1.25 17,0.5 22.5,0.5 5.5,0 32.75,2 46,6.5 13.25,4.5 33.5,12.5 40.75,18.75 -1.75,-4.5 -23.25,-22 -44.75,-30 a 259,259 0 0 0 -70,-14.75 c -0.5,-1.5 -6.25,-16 -10.25,-17.5 -4.5,4 -11.25,11.25 -18,9.5 -6.75,-1.75 -15.75,-8.25 -18.25,-14 -2.5,-5.75 -5,-16.5 -2.5,-19.25 a 10.26,10.26 0 0 1 4.75,-3.25 c 0,0 -19.87,-4 -34.87,-3.21 -15,0.79 -30.86,5.21 -30.86,5.21 z"
         id="path27"
         inkscape:connector-curvature="0"
         style="fill:#38342f" />
      <path
         class="cls-5"
         d="m 253.86,77.63 c 8.18,0.29 15.83,3.83 19.83,16.67 4,12.84 2.84,26.7 -3.69,37.7 -6.53,11 -24.17,13.33 -31.67,6.67 -7.5,-6.66 -12.67,-21 -10.17,-35.17 2.5,-14.17 11.37,-26.37 25.7,-25.87 z"
         id="path29"
         inkscape:connector-curvature="0"
         style="fill:#ffffff" />
      <path
         class="cls-7"
         d="m 366.86,155.71 c 0,0 0.5,15.08 -5,29.25 -4.33,14.33 -14.5,37.75 -17.75,48.25 -3.25,10.5 -7,34.75 -6,50.25 1,15.5 11.25,35.75 45.5,39.25 34.25,3.5 56.25,-8.75 66.75,-16.25 a 191.44,191.44 0 0 0 16.75,-13.25 c 0,0 -25.5,-15.25 -39,-28.75 -13.5,-13.5 -22.25,-26 -27.5,-38.5 -2.62,-6.24 -10.23,-17.14 -16.5,-29 a 263.85,263.85 0 0 1 -11.25,-24.75 z"
         id="path31"
         inkscape:connector-curvature="0"
         style="fill:#38342f" />
      <path
         class="cls-7"
         d="M 301.69,475.51 A 205.19,205.19 0 0 0 379.55,469 c -1.83,-6 -4.07,-12.69 -6.69,-19.56 -8,-21 -27.5,-36.5 -48,-44.25 -20.5,-7.75 -41,-0.5 -41,-0.5 0,0 -1,22.25 6.75,44.75 2.39,7.03 7.05,17.43 11.08,26.07 z"
         id="path33"
         inkscape:connector-curvature="0"
         style="fill:#38342f" />
      <path
         class="cls-6"
         d="m 232.11,127.21 a 40.23,40.23 0 0 0 23.5,1.63 c 15.45,-3.41 21.52,-18.86 21.52,-18.86 0,0 -0.43,23.23 -15.74,30.17 -12.36,4.93 -17.86,0.59 -21,-1 -3.14,-1.59 -8.28,-11.94 -8.28,-11.94 z"
         id="path35"
         inkscape:connector-curvature="0"
         style="fill:#e0d2ce" />
      <path
         class="cls-6"
         d="m 163.71,119.75 a 31,31 0 0 0 6,-1.59 15.72,15.72 0 0 0 8.75,-8.57 c 1.33,-4.59 0.5,-11.06 0.5,-17.13 -0.19,-3.05 -1.73,-9.12 -3.94,-11.54 -2,-8.59 -6.12,-16.19 -8.08,-17.32 1.83,-0.81 6,-0.53 11.08,5 2.4,1.67 4.69,12.88 4.69,12.88 0,0 3.5,16.1 0,28.52 -1.9,6.91 -9.24,10.53 -12.11,11 a 27.18,27.18 0 0 1 -6.26,1 z"
         id="path37"
         inkscape:connector-curvature="0"
         style="fill:#e0d2ce" />
      <path
         class="cls-8"
         d="m 184.74,99.46 c 0,0 1.79,-5.08 -1.88,-6.42 -3.67,-1.34 -5.67,-1.25 -7.58,1.08 -1.91,2.33 -5.17,7.33 -4.58,12.92 0.59,5.59 1.59,14.22 3.25,13.92 10.79,-1.96 10.79,-21.5 10.79,-21.5 z"
         id="path39"
         inkscape:connector-curvature="0"
         style="fill:#0092ff" />
      <path
         class="cls-9"
         d="m 139,144.21 c 3.5,3.42 1,12.5 -3.33,18.83 -7.17,11.33 -18.75,12.17 -21.42,11.42 -2.67,-0.75 -3.13,-2 -3.75,-4.33 -0.46,-1.72 0.93,-13.25 8.25,-20.25 11.53,-10.75 17.95,-7.88 20.25,-5.67 z"
         id="path41"
         inkscape:connector-curvature="0"
         style="fill:#c6685c" />
      <path
         class="cls-9"
         d="m 14,145.18 c 2.21,-1.85 6.28,-3.1 9.52,0.52 a 26.88,26.88 0 0 1 6,16.79 c -0.08,6.35 -0.92,13.6 -4.73,13.69 -3.81,0.09 -10.49,-7 -12,-10.62 -1.51,-3.62 -4.42,-15.64 1.21,-20.38 z"
         id="path43"
         inkscape:connector-curvature="0"
         style="fill:#c6685c" />
      <path
         class="cls-8"
         d="m 255,94.09 c 4.25,0 11.88,4.63 12.38,13.88 0.5,9.25 -1,15.13 -4.5,20.13 -3.5,5 -11.25,5.5 -14.38,3.25 -3.13,-2.25 -7.87,-8.75 -7.25,-14.75 0.62,-6 1.25,-13.75 5.13,-17.75 A 17,17 0 0 1 255,94.09 Z"
         id="path45"
         inkscape:connector-curvature="0"
         style="fill:#0092ff" />
      <ellipse
         cx="254.86"
         cy="114.3"
         rx="9.8299999"
         ry="6.1700001"
         transform="rotate(-85.5,254.86877,114.29433)"
         id="ellipse47" />
      <path
         d="m 178.87,117.21 a 11.85,11.85 0 0 1 -2.07,-7.23 c 0,-4.74 2,-8.58 4.5,-8.58 a 3.39,3.39 0 0 1 2.66,1.66 c 1.11,1.56 -4.39,15.01 -5.09,14.15 z"
         id="path49"
         inkscape:connector-curvature="0" />
      <ellipse
         class="cls-5"
         cx="177.53"
         cy="102.55"
         rx="4.25"
         ry="4.3299999"
         transform="rotate(-67.07,177.52589,102.54353)"
         id="ellipse51"
         style="fill:#ffffff" />
      <ellipse
         class="cls-5"
         cx="249.03"
         cy="106.05"
         rx="4.25"
         ry="4.3299999"
         transform="rotate(-67.07,249.01608,106.04758)"
         id="ellipse53"
         style="fill:#ffffff" />
      <path
         class="cls-10"
         d="m 334.86,266.46 c 14.12,-9 44.33,-40.67 47.67,-53 3.34,-12.33 1.33,-17.83 1.33,-17.83 0,0 2.17,-0.83 4.5,1.83 2.33,2.66 14,23.67 14.83,26.5 0.83,2.83 0.5,8.83 -0.83,14.67 -1.33,5.84 -20,40.33 -48.17,56.5 C 326.02,311.3 297,320.46 282.53,315 273.86,310.33 262.7,293.5 262.7,293.5 l 1.17,-2.17 c 0,0 0.83,2.33 6.33,1 5.5,-1.33 39,-9.53 64.66,-25.87 z"
         id="path55"
         inkscape:connector-curvature="0"
         style="fill:#f9da78" />
      <path
         class="cls-11"
         d="m 389.2,201.38 c 0,0 4.12,7 -11.74,31.06 -8.6,13.12 -27.1,32.69 -52.26,45.52 a 222,222 0 0 1 -52,18.5 v 5 l 18,15.12 c 0,0 34,-0.6 60.5,-20.27 30.5,-20.83 50.74,-45 52,-67.5 -4.04,-10.42 -14.5,-27.43 -14.5,-27.43 z"
         id="path57"
         inkscape:connector-curvature="0"
         style="fill:#edb254" />
      <path
         class="cls-3"
         d="m 88.2,102.46 c 0,0 2.67,-1.67 16.5,-3.5 13.83,-1.83 25.67,-2 34.83,0.33 9.16,2.33 17.72,5.08 17.72,5.08 0,0 -0.68,6.59 -20.47,10.84 -6.62,2.25 -14.06,10.5 -14.06,10.5 0,0 -20.72,-6.71 -24.36,-11.08 C 94.72,110.26 88.2,102.46 88.2,102.46 Z"
         id="path59"
         inkscape:connector-curvature="0"
         style="fill:#fbdac7" />
      <path
         class="cls-12"
         d="m 24.88,146.78 a 4.71,4.71 0 0 0 -4.89,0 c -2.53,1.55 -4.8,5.64 -2.26,13.69 2.54,8.05 8,14.22 9.38,13.94 1.38,-0.28 3.25,-5.16 2.54,-11.46 a 41.84,41.84 0 0 0 -4.77,-16.17 z"
         id="path61"
         inkscape:connector-curvature="0"
         style="fill:#77302c" />
      <path
         class="cls-12"
         d="m 118.56,158.23 c 0,0 7,-12.83 19.72,-14 8.59,2.83 -4.19,21.06 -4.19,21.06 0,0 -14,12 -18.48,9.33 -4.48,-2.67 2.95,-16.39 2.95,-16.39 z"
         id="path63"
         inkscape:connector-curvature="0"
         style="fill:#77302c" />
      <path
         class="cls-13"
         d="m 3.08,248.51 a 23.06,23.06 0 0 0 17.39,8.18 c 11.33,0.11 17.05,0 26.89,0 14.75,0 40.33,10.07 58,8.4 17.67,-1.67 31.83,-10 36,-13.46 a 96.93,96.93 0 0 0 12.06,-9.95 4.17,4.17 0 0 1 3.37,2.31 c 1.09,1.92 0.9,2.64 0.9,2.64 a 48.08,48.08 0 0 0 13.8,-0.61 c 9.88,-1.94 13.37,-6.14 13.37,-6.14 0,0 0.15,2.43 -3.33,9.42 -3.48,6.99 -18.25,36.33 -63.75,48.12 -46,8.79 -69.78,-4 -75.39,-8.55 C 36.78,284.32 28.86,273.49 26.7,266.56 21.2,264.46 15.03,264.3 9.78,259.8 a 22.82,22.82 0 0 1 -6.7,-11.29 z"
         id="path65"
         inkscape:connector-curvature="0"
         style="fill:#e8a892" />
      <path
         class="cls-13"
         d="m 132.36,177.63 c 0,0 15.33,-8.42 21.75,-24.42 a 14.19,14.19 0 0 1 2,-3.75 c 0,0 5.26,4.49 7.58,7.67 -0.58,3.58 -6.08,9.92 -14,14.75 a 46.17,46.17 0 0 1 -17.33,5.75 z"
         id="path67"
         inkscape:connector-curvature="0"
         style="fill:#e8a892" />
      <path
         class="cls-13"
         d="m 14.78,182.71 a 31.51,31.51 0 0 1 -7.42,-10.48 33.59,33.59 0 0 0 -1,3.7 c -0.51,2.73 2.64,5.07 4.2,5.77 a 17.67,17.67 0 0 0 4.22,1.01 z"
         id="path69"
         inkscape:connector-curvature="0"
         style="fill:#e8a892" />
      <path
         class="cls-6"
         d="m 184.33,241.68 c 0,0 19.52,-0.41 34.53,3.91 10,2.88 30.43,6.52 40.63,5.86 6.56,18 17.87,23 17.87,23 0,0 -21.67,7.69 -44.5,2.93 -22.83,-4.76 -23.82,-6.23 -39.66,-5.9 -15.84,0.33 -29.51,0.22 -29.51,0.22 0,0 10.45,-11.12 15.22,-18.77 4.77,-7.65 5.42,-11.25 5.42,-11.25 z"
         id="path71"
         inkscape:connector-curvature="0"
         style="fill:#e0d2ce" />
      <path
         class="cls-14"
         d="m 259.49,251.45 c 0,0 23.87,-1 51.7,-13.66 19.15,-8.72 39.5,-38.5 39.5,-38.5 0,0 -4.56,23.27 -20.62,42.38 -16.06,19.11 -37.89,30.62 -52.72,32.78 -12.49,-6.61 -17.86,-23 -17.86,-23 z"
         id="path73"
         inkscape:connector-curvature="0"
         style="fill:#212121" />
      <path
         class="cls-14"
         d="m 298.71,61.19 c 0,0 3.22,17.27 10.05,24.42 6.83,7.15 19.42,7.46 24.75,-1 a 20.68,20.68 0 0 0 3,-14 c 0,0 -7.71,8.33 -13.76,8.39 -6.05,0.06 -17.86,-2.26 -24.04,-17.81 z"
         id="path75"
         inkscape:connector-curvature="0"
         style="fill:#212121" />
      <path
         class="cls-14"
         d="m 406.11,236.88 c 0,0 1.84,13.3 -13,39.47 a 86.48,86.48 0 0 1 -39.66,35.77 44.83,44.83 0 0 1 -5.47,-5 33.9,33.9 0 0 1 -4.11,-5.44 c 0,0 36.33,-23.68 48.33,-43.22 12,-19.54 11.45,-26 11.45,-26 z"
         id="path77"
         inkscape:connector-curvature="0"
         style="fill:#212121" />
      <path
         class="cls-14"
         d="m 354.62,474.41 c 0,0 -5.15,-10.59 -13.5,-31.75 -4.55,-11.53 -12.65,-36 -12.65,-36 a 55,55 0 0 0 -18.83,-4.81 74.71,74.71 0 0 0 -25.78,2.86 c 0,0 1.21,27.6 4.62,37.81 3.41,10.21 13.21,33 13.21,33 a 168.27,168.27 0 0 0 18.75,1.18 259,259 0 0 0 34.18,-2.29 z"
         id="path79"
         inkscape:connector-curvature="0"
         style="fill:#212121" />
      <path
         class="cls-13"
         d="m 374.2,146.3 c 8,0.46 25.83,3 41,-6.33 15.17,-9.33 17.92,-22.45 17.92,-22.45 0,0 -26.12,-10.15 -53.56,-10.86 -27.44,-0.71 -30,-1.51 -33.7,-1.69 -3.7,-0.18 -4.21,0.05 0.58,10.12 4.79,10.07 19.76,30.75 27.76,31.21 z"
         id="path81"
         inkscape:connector-curvature="0"
         style="fill:#e8a892" />
      <path
         class="cls-13"
         d="m 113.06,98 c 0,0 -1.51,5.19 1.68,13.17 3.19,7.98 10.83,11.83 10.83,11.83 a 35.76,35.76 0 0 1 13.23,-7.39 c 8.17,-2.5 15,-3.5 18,-10.25 -2.67,-2 -10.56,-5.69 -20.07,-6.73 C 127.22,97.59 113.06,98 113.06,98 Z"
         id="path83"
         inkscape:connector-curvature="0"
         style="fill:#e8a892" />
      <path
         class="cls-15"
         d="m 300.55,63.41 c 0,0 20.35,-12.14 31.15,-23.31 C 345.28,26 353,4.82 351.72,5.91 350.44,7 334.94,23.38 326.15,30.13 c -7.35,5.64 -23,15.83 -28.39,17.6 -1.51,5.59 2.79,15.68 2.79,15.68 z"
         id="path85"
         inkscape:connector-curvature="0"
         style="fill:#bc9377" />
      <path
         class="cls-15"
         d="m 149.36,18.71 c 2,-1.16 5,12.42 11.25,22.08 6.25,9.66 11,13.89 11,13.89 0,0 -10.55,7.65 -13,12.64 -2.62,-0.75 -7.4,-12.37 -9.51,-19.45 -1.96,-6.87 -3.32,-27.07 0.26,-29.16 z"
         id="path87"
         inkscape:connector-curvature="0"
         style="fill:#bc9377" />
      <path
         class="cls-16"
         d="m 152.24,138.46 c -3.37,-5.25 -8.83,-8.29 -17.29,-7.75 a 37.14,37.14 0 0 0 -18.42,6.58 57.73,57.73 0 0 1 4.65,-6.42 c -2.17,-1.11 -25.24,-10.29 -52.23,-6 -26.99,4.29 -41.84,17.55 -41.84,17.55 0,0 -7.8,-8.92 -14.89,-7.59 -10.11,1.78 -9.88,18.42 -9.88,18.42 0,0 -2.98,-22.25 12.36,-23.95 0,0 8.36,0.21 18.29,6.73 1.75,-1.92 21.92,-13.69 37.54,-15.56 15.62,-1.87 47.83,1.5 57,7.83 2.46,-0.83 3.31,-5.17 13.2,-1.83 9.89,3.34 14.43,8.42 15.18,14 0.75,5.58 -0.25,7.63 -0.25,7.63 0,0 -1.24,-6.24 -3.42,-9.64 z"
         id="path89"
         inkscape:connector-curvature="0"
         style="fill:#fff6f3" />
    </g>
    <g
       id="Layer_3"
       data-name="Layer 3"
       transform="translate(17.022434,7.0213229)">
      <path
         d="m 28.55,140.21 c -0.46,-0.52 7.14,-8.62 19.42,-14.26 15.2,-7 32.76,-8.07 44.81,-7.74 a 89.76,89.76 0 0 1 35.82,9.29 13.54,13.54 0 0 0 -2.2,1.68 87.73,87.73 0 0 0 -33.69,-8.47 c -11.79,-0.32 -29,0.49 -43.81,7.28 -11.9,5.47 -20.1,12.5 -20.35,12.22 z"
         id="path92"
         inkscape:connector-curvature="0" />
      <path
         d="m 121.08,132.35 a 19.2,19.2 0 0 1 5.39,-4.52 24.06,24.06 0 0 1 6.7,-2.63 21.64,21.64 0 0 1 14.65,2.1 19.18,19.18 0 0 1 5.9,5 16.77,16.77 0 0 1 3.08,7 21.53,21.53 0 0 1 -2.49,13.91 v 0 a 0.15,0.15 0 0 1 -0.27,-0.11 c 1.12,-4.31 1.63,-8.91 0.5,-13.23 a 15.67,15.67 0 0 0 -3,-5.87 16.87,16.87 0 0 0 -5.13,-4.13 21.88,21.88 0 0 0 -6.25,-2.2 19.11,19.11 0 0 0 -6.63,-0.2 27.12,27.12 0 0 0 -6.44,1.76 24.55,24.55 0 0 0 -5.81,3.28 0.15,0.15 0 0 1 -0.21,-0.21 z"
         id="path94"
         inkscape:connector-curvature="0" />
      <path
         class="cls-17"
         d="m 156.2,149.13 c 0,0 28.83,26 31,58.5 2.25,26.5 -4.5,47.5 -22.17,63.5 -20.25,18.25 -41.58,29 -66.83,29 -25.25,0 -42.5,-0.25 -55.5,-11 -13,-10.75 -16,-23.67 -16,-23.67"
         id="path96"
         inkscape:connector-curvature="0"
         style="fill:none;stroke:#000000;stroke-width:2.5px;stroke-linecap:round;stroke-linejoin:round" />
      <path
         class="cls-17"
         d="m 32.2,136.13 c 0,0 -8,-6.83 -17.5,-6.83 -6.17,0 -11.28,5.41 -12.5,14.83 -1.17,9 1.17,19.25 4,28.33 0.25,8.75 -6.75,52.54 -4.5,69.34 2.25,16.8 10.42,21.5 19.17,23 8.75,1.5 16.8,0 28.33,0.83 16.17,1.17 43.09,15.7 68.83,6.67 28.5,-10 36.08,-29.58 36.08,-29.58"
         id="path98"
         inkscape:connector-curvature="0"
         style="fill:none;stroke:#000000;stroke-width:2.5px;stroke-linecap:round;stroke-linejoin:round" />
      <path
         d="m 148.69,241.59 a 4.9,4.9 0 0 1 3.33,-1.41 6.21,6.21 0 0 1 3.47,0.9 6.11,6.11 0 0 1 2.44,2.66 5,5 0 0 1 0.32,3.58 v 0.08 a 0.11,0.11 0 0 1 -0.2,0 13,13 0 0 0 -1.61,-2.39 8.26,8.26 0 0 0 -2.2,-1.81 8.92,8.92 0 0 0 -2.64,-1.09 11.32,11.32 0 0 0 -2.86,-0.3 0.11,0.11 0 0 1 -0.09,-0.19 z"
         id="path100"
         inkscape:connector-curvature="0" />
      <path
         class="cls-18"
         d="m 114.28,156.42 q 5.62,-11 15.73,-13.89 c 6.74,-1.92 12.51,1 11.16,8.94 -1.35,7.94 -9.36,18.2 -18.8,21.56 -9.44,3.36 -11.42,0.27 -11.68,-2.08 -0.45,-3.95 1.03,-9.5 3.59,-14.53 z"
         id="path102"
         inkscape:connector-curvature="0"
         style="fill:none;stroke:#000000;stroke-width:2px;stroke-linecap:round;stroke-linejoin:round" />
      <path
         class="cls-18"
         d="m 19.78,143.37 c 5.28,1.81 8,9 9,13.92 1,4.92 2.08,15.31 -3.27,18.43 -3.65,2.34 -10.91,-6.06 -12.74,-11.32 -6.22,-15.4 1.95,-22.76 7.01,-21.03 z"
         id="path104"
         inkscape:connector-curvature="0"
         style="fill:none;stroke:#000000;stroke-width:2px;stroke-linecap:round;stroke-linejoin:round" />
      <path
         class="cls-17"
         d="m 123.66,125.18 c 0,0 2.93,-3.22 11.43,-7.71 8.22,-3.93 16.78,-3.42 20.29,-8.84 5,-7 -1.26,-34.23 0.8,-38.79 2.25,-6.58 19.53,-21.21 35.07,-25.29 23.5,-6.44 52,-1.84 52,-1.84"
         id="path106"
         inkscape:connector-curvature="0"
         style="fill:none;stroke:#000000;stroke-width:2.5px;stroke-linecap:round;stroke-linejoin:round" />
      <path
         d="m 120.87,126.09 v 0 a 1.25,1.25 0 0 1 0,-2.5 v 0 c 0.37,0 13.13,0 26.88,-1.2 13.75,-1.2 22.82,-2.58 26.25,-3.39 3.43,-0.81 9.89,-10 9.37,-23.78 -0.5,-13.25 -3.65,-23 -3.25,-23.16 0.6,-0.23 5.23,9.36 5.75,23.07 0.55,14.51 -6.21,25.1 -11.29,26.31 -3.5,0.83 -12.57,2.23 -26.6,3.45 -13.87,1.18 -26.73,1.2 -27.11,1.2 z"
         id="path108"
         inkscape:connector-curvature="0" />
      <path
         d="M 217.49,56.52 C 217,56 232.87,41.81 257.05,39.16 c 32,-3.51 45.57,2.82 46.14,3.18 0.57,0.36 -0.79,0.94 -1.17,1.5 -0.38,0.56 -1.17,0.28 -1.75,-0.08 -0.13,-0.08 -15.75,-5.36 -43.62,-2.21 -23.28,2.63 -38.92,15.2 -39.16,14.97 z"
         id="path110"
         inkscape:connector-curvature="0" />
      <path
         class="cls-17"
         d="m 300.28,43.38 c 10,-5.17 25.27,-16.37 31.25,-22.25 7.39,-7.27 16.86,-16.3 19.5,-18.92 1.38,-1.37 3,-1.29 4,0.33 2.35,3.83 3.65,15.56 0.67,29.25 -4.25,19.5 -14.5,34.67 -26.75,43.92 -11,8.67 -23.71,-2 -27.83,-9.42 -3.33,-6 -4.58,-13.83 -3.83,-18.75 a 5.43,5.43 0 0 1 2.99,-4.16 z"
         id="path112"
         inkscape:connector-curvature="0"
         style="fill:none;stroke:#000000;stroke-width:2.5px;stroke-linecap:round;stroke-linejoin:round" />
      <path
         class="cls-18"
         d="m 312.78,36 c 0,0 -0.33,12.25 8.67,21.5 a 24.23,24.23 0 0 0 18.92,7.33"
         id="path114"
         inkscape:connector-curvature="0"
         style="fill:none;stroke:#000000;stroke-width:2px;stroke-linecap:round;stroke-linejoin:round" />
      <path
         class="cls-18"
         d="m 330,22.63 c 0,0 -0.15,7.26 6.17,14.92 6.32,7.66 15.67,7.17 15.67,7.17"
         id="path116"
         inkscape:connector-curvature="0"
         style="fill:none;stroke:#000000;stroke-width:2px;stroke-linecap:round;stroke-linejoin:round" />
      <path
         d="m 412.28,157.45 a 90.36,90.36 0 0 1 -25.1,-3.29 c -27.94,-8.12 -38.87,-32 -44.12,-43.55 -0.48,-1 -0.92,-2 -1.32,-2.86 l -0.05,-0.12 a 2.73,2.73 0 0 1 0.28,-2.79 c 1.29,-1.56 4.32,-1.1 9.33,-0.34 a 78,78 0 0 0 14.86,1.22 c 19.76,-0.75 60.46,1.75 94.13,24.5 -9.8,-9.06 -21.5,-18.25 -47.23,-28.76 C 382.64,88.94 347.19,88 346.83,88 a 1.25,1.25 0 0 1 -1.16,-0.86 c -3,-9.19 -10.14,-16.62 -10.21,-16.69 a 1.2517588,1.2517588 0 0 1 1.8,-1.74 52.68,52.68 0 0 1 10.5,16.82 c 5.69,0.24 38.07,2.06 66.24,13.65 28.89,11.88 45.52,24 55.59,40.51 a 3.71,3.71 0 0 1 0.31,3.24 c -1,2.58 -5.2,4.38 -14.15,7.43 a 146.65,146.65 0 0 1 -43.47,7.09 z M 344,106.74 c 0.4,0.85 0.84,1.8 1.31,2.83 5.49,12 15.7,34.39 42.55,42.19 29.33,8.52 63.3,-2.53 67.08,-3.82 6,-2 11.91,-4.19 12.63,-6 a 1.2,1.2 0 0 0 -0.17,-1.08 54.39,54.39 0 0 0 -5.81,-8.25 c -34,-23.55 -74.33,-25.21 -95.37,-24.42 A 80.2,80.2 0 0 1 350.92,107 c -2.75,-0.42 -6.14,-0.93 -7,-0.56 a 1.67,1.67 0 0 0 0.08,0.3 z"
         id="path118"
         inkscape:connector-curvature="0" />
      <path
         class="cls-17"
         d="m 350.86,123.8 c 0,0 12.75,54.17 -7.5,96.67 -20.25,42.5 -52,52.5 -78.25,57.25 -26.25,4.75 -45.5,-5.5 -61,-6 -15.5,-0.5 -39.42,0.25 -39.42,0.25"
         id="path120"
         inkscape:connector-curvature="0"
         style="fill:none;stroke:#000000;stroke-width:2.5px;stroke-linecap:round;stroke-linejoin:round" />
      <path
         class="cls-17"
         d="m 189.58,44.55 c -4.41,-1.56 -14.17,-5.5 -21.29,-14.23 -9.07,-11.12 -10.53,-21 -16.36,-19.78 -5.83,1.22 -12.19,18.17 -5.94,42 4,14.59 9.81,20.09 9.81,20.09"
         id="path122"
         inkscape:connector-curvature="0"
         style="fill:none;stroke:#000000;stroke-width:2.5px;stroke-linecap:round;stroke-linejoin:round" />
      <path
         class="cls-18"
         d="m 181.95,41.26 c 0,0 -12.67,-2.55 -24.42,7.74 a 23,23 0 0 0 -7.74,14.11"
         id="path124"
         inkscape:connector-curvature="0"
         style="fill:none;stroke:#000000;stroke-width:2px;stroke-linecap:round;stroke-linejoin:round" />
      <path
         class="cls-18"
         d="m 166.16,27.87 a 18.64,18.64 0 0 0 -15.07,3.87 20.12,20.12 0 0 0 -6.78,12.81"
         id="path126"
         inkscape:connector-curvature="0"
         style="fill:none;stroke:#000000;stroke-width:2px;stroke-linecap:round;stroke-linejoin:round" />
      <path
         class="cls-17"
         d="M 156.39,85.63 A 93.92,93.92 0 0 0 129.2,83.55 C 113.7,84.54 96,93 91.36,95 c -5.33,2.25 -6,5 -3,9 4.58,6.17 15.25,15.38 31.5,20.88"
         id="path128"
         inkscape:connector-curvature="0"
         style="fill:none;stroke:#000000;stroke-width:2.5px;stroke-linecap:round;stroke-linejoin:round" />
      <path
         d="m 155.78,105.63 c -7.52,-3.08 -16.55,-6.24 -32.67,-6.79 -12.81,-0.44 -28.46,2.29 -28.37,1.75 -0.17,-0.83 17,-3.92 28.62,-3.81 16.07,0.14 25.51,3.1 33.25,6.27 0.64,0.26 -0.67,2.64 -0.83,2.58 z"
         id="path130"
         inkscape:connector-curvature="0" />
      <path
         class="cls-17"
         d="m 360.86,136.71 c 0,0 14.25,45.5 23.25,60.75 1.88,3.18 1.25,8.23 0,11.75 -4.44,12.51 -19.12,34.87 -43.5,53 -23.7,17.62 -57,27.75 -68.75,30 -6.26,1.2 -9.32,-1.23 -12,-3 -11,-7.25 -17.33,-10.5 -17.33,-10.5"
         id="path132"
         inkscape:connector-curvature="0"
         style="fill:none;stroke:#000000;stroke-width:2.5px;stroke-linecap:round;stroke-linejoin:round" />
      <path
         class="cls-17"
         d="m 383.36,195.46 c 0,0 4,0 5.5,2.5 1.5,2.5 12.75,23.25 14,27.75 1,3.65 0.58,9.84 -1,14.75 -2.25,7 -15.75,33 -45.25,53 -29.5,20 -55.5,23 -66.75,23 -5.5,-0.5 -8.5,-1 -13.25,-5.5 -4.75,-4.5 -14,-16.25 -14.25,-17.5 a 1.73,1.73 0 0 1 0.75,-1.83"
         id="path134"
         inkscape:connector-curvature="0"
         style="fill:none;stroke:#000000;stroke-width:2.5px;stroke-linecap:round;stroke-linejoin:round" />
      <path
         d="m 446.6,280.45 c 30.26,23.44 69.22,39.62 75.84,42.29 0.21,-0.81 0.4,-1.64 0.6,-2.45 -7.39,-3 -45.36,-18.93 -74.91,-41.81 -32.59,-25.24 -43.53,-47.58 -43.64,-47.8 a 1.2523977,1.2523977 0 0 0 -2.26,1.08 c 0.45,0.92 11.26,23.05 44.37,48.69 z"
         id="path136"
         inkscape:connector-curvature="0" />
      <path
         d="m 282.11,354.92 c -1.16,33.27 -2.26,64.7 7.06,92.94 3,9 7.31,19.24 11,27.49 l 2.89,0.32 a 306.28,306.28 0 0 1 -11.55,-28.59 c -9.18,-27.81 -8.09,-59 -6.94,-92.06 1.23,-35.21 -2.82,-41.16 -3.29,-41.72 a 1.28,1.28 0 0 0 -1.78,-0.19 1.23,1.23 0 0 0 -0.18,1.74 c 0.21,0.22 3.98,6.03 2.79,40.07 z"
         id="path138"
         inkscape:connector-curvature="0" />
      <path
         class="cls-18"
         d="m 251.36,77.46 c 11.17,-1.58 19.75,5 23.5,16.58 3.5,10.83 3.33,26.25 -3.25,36.17 -6,9 -14.67,12.75 -22.67,12 -7.26,-0.68 -15.67,-6.67 -18.92,-18.42 -3.25,-11.75 -0.92,-23.83 1.83,-30.08 2.75,-6.25 9.15,-14.77 19.51,-16.25 z"
         id="path140"
         inkscape:connector-curvature="0"
         style="fill:none;stroke:#000000;stroke-width:2px;stroke-linecap:round;stroke-linejoin:round" />
      <path
         class="cls-18"
         d="m 251.4,94.66 a 10,10 0 0 1 6.29,-0.27 c 5.74,1.7 8.81,8.17 9.67,14.82 1,7.75 -1.92,19.08 -8.75,22.25 -5.78,2.68 -13,0.5 -15.75,-7.25 -2.64,-7.44 -1.33,-17 1.75,-23.25 a 12.31,12.31 0 0 1 6.79,-6.3 z"
         id="path142"
         inkscape:connector-curvature="0"
         style="fill:none;stroke:#000000;stroke-width:2px;stroke-linecap:round;stroke-linejoin:round" />
      <path
         class="cls-18"
         d="m 183.48,85.42 a 10.71,10.71 0 0 0 -12.14,-3.93 c -7.25,2.25 -10.36,13.72 -9.82,25 a 49.63,49.63 0 0 0 2.92,15.42"
         id="path144"
         inkscape:connector-curvature="0"
         style="fill:none;stroke:#000000;stroke-width:2px;stroke-linecap:round;stroke-linejoin:round" />
      <path
         class="cls-18"
         d="m 184.74,96.21 c 0,0 -1.25,-4.21 -5.38,-4.21 -5.5,0 -8.25,10.17 -8,15.92 0.48,11 2.92,12.33 2.92,12.33"
         id="path146"
         inkscape:connector-curvature="0"
         style="fill:none;stroke:#000000;stroke-width:2px;stroke-linecap:round;stroke-linejoin:round" />
      <path
         d="m 179,69.59 c 0,0 -6,-4.72 -13.12,-4.28 -5.8,0.36 -8.22,4 -8.22,4 a 16,16 0 0 1 3.09,-5.06 c 2.46,-2.62 3.77,-4.33 6.59,-4.33 5.66,0.34 11.66,9.67 11.66,9.67 z"
         id="path148"
         inkscape:connector-curvature="0" />
      <path
         d="m 274.63,67.37 c 0,0 -10.51,-5.64 -21.26,-5.09 a 43,43 0 0 0 -18.08,4.86 23.74,23.74 0 0 1 6.71,-7.4 20.63,20.63 0 0 1 13.32,-3.86 c 11.49,0.37 19.31,11.49 19.31,11.49 z"
         id="path150"
         inkscape:connector-curvature="0" />
      <path
         class="cls-19"
         d="m 139,144.21 c 0,0 -7.54,0 -15.22,7.44 -5.93,5.75 -7.56,10.82 -8.69,16.31 a 29.85,29.85 0 0 0 -0.5,6.5"
         id="path152"
         inkscape:connector-curvature="0"
         style="fill:none;stroke:#000000;stroke-width:2px;stroke-miterlimit:10" />
      <path
         class="cls-19"
         d="m 23.78,146.14 c 0,0 -4.29,-0.5 -5.83,2.49 -1.3,2.52 -2.34,6.11 0.2,13 a 30.11,30.11 0 0 0 8.65,13.07"
         id="path154"
         inkscape:connector-curvature="0"
         style="fill:none;stroke:#000000;stroke-width:2px;stroke-miterlimit:10" />
    </g>
    <g
       id="Calque_6"
       data-name="Calque 6"
       transform="translate(17.022434,7.0213229)">
      <path
         class="cls-10"
         d="m 307.42,405.3 c -2.88,-7.9 -7.34,-21.47 -8.29,-31.94 -0.57,-6.29 -0.8,-19.79 -0.9,-28.64 a 43.27,43.27 0 0 0 -0.07,-8.39 v 0 a 43.41,43.41 0 0 0 -25,-34.76 c 0,0 0,-0.08 0,-0.12 a 12.331246,12.331246 0 1 0 -24.41,-3.52 c 0,0 0,0.08 0,0.12 a 43.35,43.35 0 0 0 -36.31,34.85 c -2.66,8.52 -6.84,21.47 -10.12,29.56 -3.42,8.42 -10.82,19.06 -15.54,25.43 -2.46,1.58 -4,3.44 -4.26,5.56 -1.5,10.39 25.79,22.92 61,28 35.21,5.08 64.89,0.77 66.39,-9.61 0.31,-2.13 -0.59,-4.33 -2.49,-6.54 z"
         id="path157"
         inkscape:connector-curvature="0"
         style="fill:#f9da78" />
      <path
         class="cls-11"
         d="m 262.7,288.8 c 0,0 7.07,4.69 4.49,12.69 2.83,0.64 9,4.81 11.9,9.39 2.72,4.32 8.28,12.75 6.78,30.75 -1.5,18 -0.67,52.84 -0.67,52.84 l 21.57,10.25 c 0,0 -6.24,-15.66 -7.57,-27.83 -1.33,-12.17 -0.95,-39.57 -0.95,-39.57 0,0 -1.51,-19.14 -14.39,-28.75 a 100.76,100.76 0 0 0 -10.66,-7 c 0,0 -0.35,-8.94 -6.09,-11.94 -5.74,-3 -4.41,-0.83 -4.41,-0.83 z"
         id="path159"
         inkscape:connector-curvature="0"
         style="fill:#edb254" />
      <path
         class="cls-20"
         d="m 307.42,405.3 c -2.88,-7.9 -7.34,-21.47 -8.29,-31.94 -0.57,-6.29 -0.8,-19.79 -0.9,-28.64 a 43.27,43.27 0 0 0 -0.07,-8.39 v 0 a 43.41,43.41 0 0 0 -25,-34.76 c 0,0 0,-0.08 0,-0.12 a 12.331246,12.331246 0 1 0 -24.41,-3.52 c 0,0 0,0.08 0,0.12 a 43.35,43.35 0 0 0 -36.31,34.85 c -2.66,8.52 -6.84,21.47 -10.12,29.56 -3.42,8.42 -10.82,19.06 -15.54,25.43 -2.46,1.58 -4,3.44 -4.26,5.56 -1.5,10.39 25.79,22.92 61,28 35.21,5.08 64.89,0.77 66.39,-9.61 0.31,-2.13 -0.59,-4.33 -2.49,-6.54 z"
         id="path161"
         inkscape:connector-curvature="0"
         style="fill:none;stroke:#000000;stroke-width:2.5px;stroke-miterlimit:10" />
      <ellipse
         class="cls-21"
         cx="245.83"
         cy="405.57001"
         rx="8.9700003"
         ry="49.889999"
         transform="rotate(-81.79,245.79928,405.56524)"
         id="ellipse163"
         style="fill:#c4912a" />
      <path
         class="cls-22"
         d="m 221.36,409.55 c 0,0 7.33,-4.84 25.25,-6.75 a 13.55,13.55 0 0 1 1.88,-5.9 c -25.13,-4.6 -50.91,-2.79 -51.89,1.05 -0.82,4.68 24.76,11.6 24.76,11.6 z"
         id="path165"
         inkscape:connector-curvature="0"
         style="fill:#a36f1c" />
      <path
         class="cls-22"
         d="m 267.11,401.25 a 14.25,14.25 0 0 1 0.3,3.13 59.4,59.4 0 0 1 12.54,4.21 c 7.75,3.92 8.54,7 8.54,7 0,0 7.75,-1.12 6.17,-3.83 -1.58,-2.71 -11.29,-6.75 -16.92,-8.17 -5.63,-1.42 -10.63,-2.34 -10.63,-2.34 z"
         id="path167"
         inkscape:connector-curvature="0"
         style="fill:#a36f1c" />
      <path
         class="cls-20"
         d="m 186.83,387.88 c 0,0 12.38,-8.54 61.75,-1.41 47.67,6.88 58.84,18.84 58.84,18.84"
         id="path169"
         inkscape:connector-curvature="0"
         style="fill:none;stroke:#000000;stroke-width:2.5px;stroke-miterlimit:10" />
      <path
         class="cls-23"
         d="m 246.37,401.85 a 10.43,10.43 0 1 0 20.27,-1.59 c -5.55,-1.25 -11.67,-2.39 -18.14,-3.36 a 10.36,10.36 0 0 0 -2.13,4.95 z"
         id="path171"
         inkscape:connector-curvature="0"
         style="fill:#c4912a;stroke:#000000;stroke-width:2px;stroke-miterlimit:10" />
      <ellipse
         class="cls-19"
         cx="245.83"
         cy="405.57001"
         rx="8.9700003"
         ry="49.889999"
         transform="rotate(-81.79,245.79928,405.56524)"
         id="ellipse173"
         style="fill:none;stroke:#000000;stroke-width:2px;stroke-miterlimit:10" />
      <ellipse
         class="cls-10"
         cx="252.57001"
         cy="407.09"
         rx="3.29"
         ry="4.1300001"
         transform="rotate(-36.79,252.54661,407.07096)"
         id="ellipse175"
         style="fill:#f9da78" />
      <ellipse
         class="cls-24"
         cx="240.03"
         cy="316.45999"
         rx="11.81"
         ry="7.5700002"
         transform="rotate(-36.79,240.00732,316.44006)"
         id="ellipse177"
         style="fill:#fffecc" />
    </g>
    <g
       id="Calque_7"
       data-name="Calque 7"
       transform="translate(17.022434,7.0213229)">
      <path
         class="cls-25"
         d="m 144.46,257.36 c 0,0 12.56,20.76 14.79,33.47 2.23,12.71 -4,3.13 -4,3.13 0,0 -8.83,-22.05 -14.88,-33.18 2.16,-1.65 4.09,-3.42 4.09,-3.42 z"
         id="path185"
         inkscape:connector-curvature="0"
         style="fill:#078400;stroke:#000000;stroke-width:2px;stroke-miterlimit:10" />
      <path
         class="cls-26"
         d="m 27.8,269.71 c 0,0 -5.8,4.29 -8.8,15.29 -2.4,8.83 -1.08,18.17 -2.75,18.63 -1.67,0.11 -3.33,-10.17 -2.67,-17.42 a 36.13,36.13 0 0 1 8.5,-21.12 l 3.89,0.42 z"
         id="path187"
         inkscape:connector-curvature="0"
         style="fill:#0eb506;stroke:#000000;stroke-width:2px;stroke-miterlimit:10" />
      <path
         class="cls-26"
         d="m 139.33,260.76 c 0,0 -11.2,7.24 -15.33,16.63 -4.54,10.39 -2.46,27.65 -2.46,27.65 0,0 10.57,-6.47 16.64,-21.28 3.52,-8.52 1.15,-23 1.15,-23 z"
         id="path189"
         inkscape:connector-curvature="0"
         style="fill:#0eb506;stroke:#000000;stroke-width:2px;stroke-miterlimit:10" />
      <path
         class="cls-27"
         d="m 139,261.38 -16.75,42.25 c 0,0 10.77,-8.36 14.81,-17.35 4.64,-10.28 1.94,-24.9 1.94,-24.9 z"
         id="path191"
         inkscape:connector-curvature="0"
         style="fill:#078400" />
      <path
         class="cls-19"
         d="m 139.33,260.76 c 0,0 -11.2,7.24 -15.33,16.63 -4.54,10.39 -2.46,27.65 -2.46,27.65 0,0 10.57,-6.47 16.64,-21.28 3.52,-8.52 1.15,-23 1.15,-23 z"
         id="path193"
         inkscape:connector-curvature="0"
         style="fill:none;stroke:#000000;stroke-width:2px;stroke-miterlimit:10" />
      <ellipse
         class="cls-28"
         cx="186"
         cy="318.16"
         rx="17.639999"
         ry="4.0999999"
         id="ellipse195"
         style="fill:#ffffff;stroke:#000000;stroke-width:2px;stroke-miterlimit:10" />
      <ellipse
         class="cls-28"
         cx="137.66"
         cy="318.16"
         rx="17.639999"
         ry="4.0999999"
         id="ellipse197"
         style="fill:#ffffff;stroke:#000000;stroke-width:2px;stroke-miterlimit:10" />
      <ellipse
         class="cls-28"
         cx="161.83"
         cy="342.32999"
         rx="4.0999999"
         ry="17.639999"
         id="ellipse199"
         style="fill:#ffffff;stroke:#000000;stroke-width:2px;stroke-miterlimit:10" />
      <ellipse
         class="cls-28"
         cx="161.83"
         cy="294"
         rx="4.0999999"
         ry="17.639999"
         id="ellipse201"
         style="fill:#ffffff;stroke:#000000;stroke-width:2px;stroke-miterlimit:10" />
      <ellipse
         class="cls-28"
         cx="178.92"
         cy="335.25"
         rx="4.0999999"
         ry="17.639999"
         transform="rotate(-45,178.91896,335.25934)"
         id="ellipse203"
         style="fill:#ffffff;stroke:#000000;stroke-width:2px;stroke-miterlimit:10" />
      <ellipse
         class="cls-28"
         cx="144.74001"
         cy="301.07001"
         rx="4.0999999"
         ry="17.639999"
         transform="rotate(-45,144.74006,301.07671)"
         id="ellipse205"
         style="fill:#ffffff;stroke:#000000;stroke-width:2px;stroke-miterlimit:10" />
      <ellipse
         class="cls-28"
         cx="144.74001"
         cy="335.25"
         rx="17.639999"
         ry="4.0999999"
         transform="rotate(-45,144.73819,335.25748)"
         id="ellipse207"
         style="fill:#ffffff;stroke:#000000;stroke-width:2px;stroke-miterlimit:10" />
      <ellipse
         class="cls-28"
         cx="178.92"
         cy="301.07001"
         rx="17.639999"
         ry="4.0999999"
         transform="rotate(-45,178.92083,301.07857)"
         id="ellipse209"
         style="fill:#ffffff;stroke:#000000;stroke-width:2px;stroke-miterlimit:10" />
      <ellipse
         class="cls-28"
         cx="183.98"
         cy="327.82999"
         rx="4.0999999"
         ry="17.639999"
         transform="rotate(-66.42,184.00008,327.8384)"
         id="ellipse211"
         style="fill:#ffffff;stroke:#000000;stroke-width:2px;stroke-miterlimit:10" />
      <ellipse
         class="cls-28"
         cx="139.67999"
         cy="308.5"
         rx="4.0999999"
         ry="17.639999"
         transform="rotate(-66.42,139.70028,308.50557)"
         id="ellipse213"
         style="fill:#ffffff;stroke:#000000;stroke-width:2px;stroke-miterlimit:10" />
      <ellipse
         class="cls-28"
         cx="152.16"
         cy="340.31"
         rx="17.639999"
         ry="4.0999999"
         transform="rotate(-66.42,152.17877,340.32952)"
         id="ellipse215"
         style="fill:#ffffff;stroke:#000000;stroke-width:2px;stroke-miterlimit:10" />
      <ellipse
         class="cls-28"
         cx="171.5"
         cy="296.01001"
         rx="17.639999"
         ry="4.0999999"
         transform="rotate(-66.42,171.51659,296.02209)"
         id="ellipse217"
         style="fill:#ffffff;stroke:#000000;stroke-width:2px;stroke-miterlimit:10" />
      <ellipse
         class="cls-28"
         cx="170.66"
         cy="340.66"
         rx="4.0999999"
         ry="17.639999"
         transform="rotate(-21.42,170.68989,340.71529)"
         id="ellipse219"
         style="fill:#ffffff;stroke:#000000;stroke-width:2px;stroke-miterlimit:10" />
      <ellipse
         class="cls-28"
         cx="153"
         cy="295.67001"
         rx="4.0999999"
         ry="17.639999"
         transform="rotate(-21.42,153.02663,295.699)"
         id="ellipse221"
         style="fill:#ffffff;stroke:#000000;stroke-width:2px;stroke-miterlimit:10" />
      <ellipse
         class="cls-28"
         cx="139.33"
         cy="326.98999"
         rx="17.639999"
         ry="4.0999999"
         transform="rotate(-21.42,139.35011,327.03877)"
         id="ellipse223"
         style="fill:#ffffff;stroke:#000000;stroke-width:2px;stroke-miterlimit:10" />
      <ellipse
         class="cls-28"
         cx="184.33"
         cy="309.34"
         rx="17.639999"
         ry="4.0999999"
         transform="rotate(-21.42,184.3664,309.37552)"
         id="ellipse225"
         style="fill:#ffffff;stroke:#000000;stroke-width:2px;stroke-miterlimit:10" />
      <circle
         class="cls-29"
         cx="161.83"
         cy="318.16"
         r="13.12"
         id="circle227"
         style="fill:#ffb948;stroke:#000000;stroke-width:2px;stroke-miterlimit:10" />
      <path
         class="cls-30"
         d="m 19.32,270.75 a 29.33,29.33 0 0 1 3.19,-4.62 l 2.77,0.29 c 0,0 0.94,2.08 1.31,3 a 27.93,27.93 0 0 0 -4.24,5.23 18.51,18.51 0 0 1 -3.03,-3.9 z"
         id="path229"
         inkscape:connector-curvature="0"
         style="fill:#067f00" />
      <ellipse
         class="cls-31"
         cx="158.39999"
         cy="316.45999"
         rx="6.9099998"
         ry="5.8499999"
         transform="rotate(-54.08,158.40318,316.46514)"
         id="ellipse231"
         style="fill:#ffed69" />
    </g>
  </g>
  <g
     inkscape:groupmode="layer"
     id="layer3"
     inkscape:label="green"
     transform="translate(1.323318,-7.019796)"
     sodipodi:insensitive="true">
    <path
       style="opacity:1;fill:#66ff00;fill-opacity:1;fill-rule:evenodd;stroke:none;stroke-width:0.60853565;stroke-opacity:1;paint-order:stroke markers fill"
       d="m -2.2838121,350.30733 c -0.076227,1.16954 -0.1332163,2.33915 -0.1709577,3.50863 C 7.4172902,441.18359 136.3658,520.36813 284.59909,515.52605 432.83236,510.68397 574.25786,409.63359 558.86385,338.48628 511.1437,396.28979 403.75932,435.91218 284.11779,439.86132 159.52983,443.86629 46.200653,408.42976 -2.2838121,350.30733 Z"
       id="path586"
       inkscape:connector-curvature="0"
       sodipodi:nodetypes="cczccc" />
  </g>
  <g
     inkscape:groupmode="layer"
     id="layer2"
     inkscape:label="text-on-path"
     transform="translate(1.323318,-7.019796)">
    <path
       inkscape:connector-curvature="0"
       id="path592"
       d="M -1.323318,396.78787 C 124.20139,567.67275 442.60508,562.59126 556.6655,381.44842 368.53077,506.7592 197.71224,464.81585 -1.323318,396.78787 Z"
       style="opacity:1;fill:none;fill-opacity:1;fill-rule:evenodd;stroke:none;stroke-width:0.53657293;stroke-opacity:1;paint-order:stroke markers fill"
       sodipodi:nodetypes="ccc" />
    <path
       inkscape:connector-curvature="0"
       id="path129"
       style="font-style:normal;font-weight:normal;font-size:medium;line-height:1.25;font-family:sans-serif;letter-spacing:0px;word-spacing:0px;fill:#005500;fill-opacity:1;stroke:none"
       d="m 49.799012,400.20705 2.92213,2.70858 -12.258215,22.24619 21.239472,-13.9213 3.251586,3.01395 -12.258215,22.2462 21.239472,-13.9213 2.936456,2.72186 -25.194636,16.40698 -3.638341,-3.37244 12.695321,-22.7465 -21.762521,14.34194 -3.63834,-3.37244 z" />
    <path
       inkscape:connector-curvature="0"
       id="path131"
       style="font-style:normal;font-weight:normal;font-size:medium;line-height:1.25;font-family:sans-serif;letter-spacing:0px;word-spacing:0px;fill:#005500;fill-opacity:1;stroke:none"
       d="m 77.86989,437.33898 q -2.330277,-1.71042 -5.024954,-0.87788 -2.683118,0.8168 -5.00605,3.98157 -2.322929,3.16477 -2.325193,5.97353 0.02504,2.80458 2.371062,4.52656 2.314531,1.69886 5.009207,0.86631 2.694677,-0.83254 5.006051,-3.98156 2.299817,-3.13327 2.286333,-5.9536 -0.0019,-2.83607 -2.316456,-4.53493 z m 1.802871,-2.45624 q 3.778827,2.77366 4.133035,6.81318 0.354209,4.03953 -2.835487,8.38518 -3.178139,4.3299 -7.149649,5.21859 -3.959951,0.87295 -7.738778,-1.9007 -3.794572,-2.78521 -4.14878,-6.82473 -0.326906,-4.04372 2.851233,-8.37362 3.189697,-4.34565 7.133903,-5.23016 3.959952,-0.87294 7.754523,1.91226 z" />
    <path
       inkscape:connector-curvature="0"
       id="path133"
       style="font-style:normal;font-weight:normal;font-size:medium;line-height:1.25;font-family:sans-serif;letter-spacing:0px;word-spacing:0px;fill:#005500;fill-opacity:1;stroke:none"
       d="m 83.648521,454.56097 6.865485,-11.32346 3.073032,1.86321 -6.794602,11.20655 q -1.610048,2.6555 -1.384656,4.61942 0.235533,1.94721 2.306474,3.20285 2.488488,1.50878 4.886774,0.793 2.414988,-0.70565 4.075666,-3.44465 l 6.430066,-10.60531 3.07303,1.86321 -11.341216,18.70541 -3.073031,-1.8632 1.741686,-2.87262 q -2.151845,1.02508 -4.144561,0.95892 -1.965889,-0.0727 -3.919937,-1.25748 -3.223343,-1.95433 -3.678339,-4.97109 -0.455,-3.01677 1.884129,-6.87476 z m 14.871574,-7.08601 z" />
    <path
       inkscape:connector-curvature="0"
       id="path135"
       style="font-style:normal;font-weight:normal;font-size:medium;line-height:1.25;font-family:sans-serif;letter-spacing:0px;word-spacing:0px;fill:#005500;fill-opacity:1;stroke:none"
       d="m 115.5492,447.98741 3.18257,1.66922 -14.11581,26.91345 -3.18257,-1.66921 z" />
    <path
       inkscape:connector-curvature="0"
       id="path137"
       style="font-style:normal;font-weight:normal;font-size:medium;line-height:1.25;font-family:sans-serif;letter-spacing:0px;word-spacing:0px;fill:#005500;fill-opacity:1;stroke:none"
       d="m 132.02029,469.04445 4.86601,-10.78941 3.27599,1.47747 -12.49424,27.7035 -3.27599,-1.47746 1.34899,-2.99113 q -1.83562,1.31471 -3.81366,1.47247 -1.9522,0.14801 -4.15994,-0.84768 -3.61427,-1.63005 -4.59241,-5.54214 -0.96033,-3.90407 1.15951,-8.60441 2.11984,-4.70034 5.68181,-6.56487 3.57976,-1.85649 7.19404,-0.22645 2.20773,0.99568 3.38105,2.5747 1.19916,1.56926 1.42884,3.81541 z m -14.30292,1.92686 q -1.63003,3.61427 -1.08372,6.34603 0.57214,2.722 3.17157,3.89433 2.59943,1.17235 5.01841,-0.20066 2.42701,-1.3908 4.05704,-5.00507 1.63003,-3.61428 1.05789,-6.33627 -0.56412,-2.7398 -3.16355,-3.91213 -2.59943,-1.17235 -5.02644,0.21846 -2.40117,1.38102 -4.0312,4.99531 z" />
    <path
       inkscape:connector-curvature="0"
       id="path139"
       style="font-style:normal;font-weight:normal;font-size:medium;line-height:1.25;font-family:sans-serif;letter-spacing:0px;word-spacing:0px;fill:#005500;fill-opacity:1;stroke:none"
       d="m 154.56064,499.27092 q -2.63949,3.25771 -4.37872,3.953 -1.73924,0.6953 -4.04635,-0.0414 l -2.73503,-0.87337 0.91495,-2.86527 2.00942,0.64165 q 1.41403,0.45154 2.40935,0.0313 0.99532,-0.42027 2.74034,-2.61042 l 1.11306,-1.36682 -1.88109,-23.19484 3.62811,1.15854 1.30743,18.37801 11.71653,-14.21912 3.62811,1.15855 z" />
    <path
       inkscape:connector-curvature="0"
       id="path141"
       style="font-style:normal;font-weight:normal;font-size:medium;line-height:1.25;font-family:sans-serif;letter-spacing:0px;word-spacing:0px;fill:#005500;fill-opacity:1;stroke:none"
       d="m 181.96667,484.73259 q -2.80798,-0.68623 -4.97751,1.11587 -2.16488,1.78312 -3.09686,5.59668 -0.93198,3.81355 0.14286,6.40853 1.09845,2.58063 3.92541,3.2715 2.78902,0.68159 4.95854,-1.1205 2.16953,-1.80211 3.09687,-5.59668 0.92269,-3.77561 -0.17111,-6.37522 -1.08918,-2.61859 -3.8782,-3.30018 z m 0.72332,-2.95977 q 4.55351,1.11281 6.42947,4.7078 1.87596,3.59501 0.59623,8.83152 -1.2751,5.21755 -4.60234,7.56106 -3.32261,2.32455 -7.8761,1.21174 -4.57247,-1.11744 -6.44843,-4.71244 -1.85235,-3.60934 -0.57727,-8.82688 1.27973,-5.23652 4.58336,-7.56571 3.32262,-2.32454 7.89508,-1.20709 z" />
    <path
       inkscape:connector-curvature="0"
       id="path143"
       style="font-style:normal;font-weight:normal;font-size:medium;line-height:1.25;font-family:sans-serif;letter-spacing:0px;word-spacing:0px;fill:#005500;fill-opacity:1;stroke:none"
       d="m 194.05622,498.51276 2.25383,-13.04898 3.54132,0.61166 -2.23056,12.91426 q -0.52855,3.06016 0.39877,4.80596 0.93066,1.72656 3.3172,2.13877 2.86769,0.49531 4.83868,-1.04721 1.99023,-1.53918 2.5354,-4.69557 l 2.11089,-12.22139 3.54131,0.61166 -3.72314,21.55583 -3.54131,-0.61166 0.57177,-3.31036 q -1.62857,1.7404 -3.50771,2.40686 -1.85656,0.65053 -4.10837,0.26159 -3.71454,-0.64158 -5.24025,-3.28355 -1.52572,-2.64197 -0.75782,-7.08787 z m 11.25462,-12.02951 z" />
    <path
       inkscape:connector-curvature="0"
       id="path145"
       style="font-style:normal;font-weight:normal;font-size:medium;line-height:1.25;font-family:sans-serif;letter-spacing:0px;word-spacing:0px;fill:#005500;fill-opacity:1;stroke:none"
       d="m 233.39753,482.18315 3.5794,0.32072 -2.71217,30.26937 -3.57941,-0.32073 z" />
    <path
       inkscape:connector-curvature="0"
       id="path147"
       style="font-style:normal;font-weight:normal;font-size:medium;line-height:1.25;font-family:sans-serif;letter-spacing:0px;word-spacing:0px;fill:#005500;fill-opacity:1;stroke:none"
       d="m 243.07644,491.50097 3.58708,0.21894 -1.33266,21.83437 -3.58707,-0.21894 z m 0.51879,-8.49981 3.58706,0.21894 -0.27723,4.54233 -3.58707,-0.21894 z" />
    <path
       inkscape:connector-curvature="0"
       id="path149"
       style="font-style:normal;font-weight:normal;font-size:medium;line-height:1.25;font-family:sans-serif;letter-spacing:0px;word-spacing:0px;fill:#005500;fill-opacity:1;stroke:none"
       d="m 253.27709,483.5771 3.61259,0.0705 -0.35003,17.94581 10.90459,-9.22269 4.58896,0.0895 -11.79893,10.00618 11.86054,11.87418 -4.68661,-0.0914 -10.90283,-10.89829 -0.20835,10.68156 -3.61259,-0.0705 z" />
    <path
       inkscape:connector-curvature="0"
       id="path151"
       style="font-style:normal;font-weight:normal;font-size:medium;line-height:1.25;font-family:sans-serif;letter-spacing:0px;word-spacing:0px;fill:#005500;fill-opacity:1;stroke:none"
       d="m 292.86535,501.67056 0.0669,1.75654 -16.51145,0.62919 q 0.37553,3.69932 2.44063,5.57517 2.08389,1.85558 5.65551,1.71949 2.06881,-0.0788 3.98166,-0.65991 1.93238,-0.58182 3.80638,-1.66959 l 0.12941,3.39597 q -1.90096,0.89334 -3.91437,1.40006 -2.01341,0.50673 -4.10175,0.5863 -5.23058,0.19932 -8.41078,-2.72858 -3.16069,-2.92865 -3.35851,-8.1202 -0.20453,-5.36719 2.56425,-8.61951 2.78757,-3.27259 7.70587,-3.46 4.41087,-0.16809 7.07618,2.58398 2.6841,2.73181 2.87004,7.61108 z m -3.63131,-0.91708 q -0.15134,-2.94559 -1.83819,-4.6404 -1.66733,-1.69555 -4.32166,-1.59441 -3.00563,0.11454 -4.75601,1.88169 -1.73087,1.76641 -1.88661,4.86052 z" />
    <path
       inkscape:connector-curvature="0"
       id="path153"
       style="font-style:normal;font-weight:normal;font-size:medium;line-height:1.25;font-family:sans-serif;letter-spacing:0px;word-spacing:0px;fill:#005500;fill-opacity:1;stroke:none"
       d="m 312.07907,483.48216 0.73536,6.16726 7.35023,-0.8768 0.33071,2.77332 -7.35023,0.8768 1.40579,11.7915 q 0.31684,2.65696 1.12461,3.32775 0.82716,0.66848 3.05746,0.40251 l 3.66541,-0.43724 0.35615,2.98665 -3.66542,0.43724 q -4.13085,0.49289 -5.88448,-0.85218 -1.75592,-1.36419 -2.24159,-5.4369 l -1.40579,-11.79149 -2.61817,0.31221 -0.33071,-2.77332 2.61816,-0.31221 -0.73536,-6.16725 z" />
    <path
       inkscape:connector-curvature="0"
       id="path155"
       style="font-style:normal;font-weight:normal;font-size:medium;line-height:1.25;font-family:sans-serif;letter-spacing:0px;word-spacing:0px;fill:#005500;fill-opacity:1;stroke:none"
       d="m 332.58557,489.35569 q -2.85003,0.48277 -4.12774,2.9971 -1.28097,2.49507 -0.62531,6.36572 0.65566,3.87064 2.67089,5.82718 2.03122,1.93401 4.9005,1.44798 2.83077,-0.47951 4.10848,-2.99385 1.27771,-2.51432 0.62531,-6.36571 -0.64913,-3.83213 -2.68362,-5.7854 -2.03774,-1.97254 -4.86851,-1.49302 z m -0.50887,-3.00409 q 4.62166,-0.78287 7.76873,1.77432 3.14706,2.55719 4.04737,7.87211 0.89704,5.29565 -1.22903,8.76588 -2.12933,3.45097 -6.75099,4.23384 -4.64093,0.78613 -7.78799,-1.77105 -3.13107,-2.57971 -4.02811,-7.87537 -0.90031,-5.31491 1.20977,-8.76262 2.12933,-3.45097 6.77025,-4.23711 z" />
    <path
       inkscape:connector-curvature="0"
       id="path158"
       style="font-style:normal;font-weight:normal;font-size:medium;line-height:1.25;font-family:sans-serif;letter-spacing:0px;word-spacing:0px;fill:#005500;fill-opacity:1;stroke:none"
       d="m 373.72031,470.94607 0.99282,3.71737 q -2.44722,-0.45829 -4.50802,-0.45372 -2.06079,0.005 -3.85344,0.48329 -3.11352,0.83153 -4.48927,2.49278 -1.35687,1.65621 -0.76219,3.88284 0.49893,1.86812 1.86927,2.53314 1.38418,0.64111 4.6728,0.38949 l 2.42812,-0.1431 q 4.48129,-0.32756 7.04969,1.19001 2.58223,1.49366 3.49945,4.92797 1.09361,4.09476 -1.09694,6.94398 -2.17168,2.84418 -7.47411,4.26032 -2.00021,0.53421 -4.38554,0.6861 -2.36647,0.14684 -5.01867,-0.095 l -1.04825,-3.92488 q 2.66873,0.68214 5.07176,0.74791 2.40303,0.0657 4.55419,-0.50876 3.26449,-0.87187 4.69556,-2.62875 1.43107,-1.75687 0.79607,-4.13448 -0.55437,-2.07568 -2.14998,-2.90291 -1.57674,-0.83227 -4.63893,-0.64112 l -2.44194,0.167 q -4.49137,0.28982 -6.88104,-1.01268 -2.38967,-1.30249 -3.25145,-4.52924 -0.99785,-3.73623 1.05053,-6.58791 2.06726,-2.85672 6.69037,-4.09145 1.98133,-0.52916 4.1339,-0.71995 2.15257,-0.1908 4.49524,-0.0483 z" />
    <path
       inkscape:connector-curvature="0"
       id="path160"
       style="font-style:normal;font-weight:normal;font-size:medium;line-height:1.25;font-family:sans-serif;letter-spacing:0px;word-spacing:0px;fill:#005500;fill-opacity:1;stroke:none"
       d="m 385.3169,487.90253 -4.23408,-12.54703 3.40509,-1.14908 4.19038,12.4175 q 0.99295,2.94244 2.63991,4.03572 1.64073,1.07479 3.93546,0.30041 2.75739,-0.9305 3.75563,-3.22563 1.01674,-2.30138 -0.007,-5.33635 l -3.96556,-11.75128 3.4051,-1.14908 6.99436,20.72667 -3.40509,1.14907 -1.07414,-3.18302 q -0.60291,2.30602 -1.93769,3.78712 -1.32252,1.45635 -3.48771,2.18701 -3.57165,1.20527 -6.17164,-0.39094 -2.59999,-1.59622 -4.04259,-5.87109 z m 4.16555,-15.93811 z" />
    <path
       inkscape:connector-curvature="0"
       id="path162"
       style="font-style:normal;font-weight:normal;font-size:medium;line-height:1.25;font-family:sans-serif;letter-spacing:0px;word-spacing:0px;fill:#005500;fill-opacity:1;stroke:none"
       d="m 422.75112,471.52512 q -1.51466,-3.66413 -3.88891,-5.1131 -2.36366,-1.47448 -4.99894,-0.38511 -2.63528,1.08936 -3.28594,3.80991 -0.64008,2.69502 0.8746,6.35915 1.51466,3.66411 3.87832,5.13859 2.37425,1.44898 5.00953,0.35961 2.63528,-1.08937 3.27535,-3.78439 0.65067,-2.72055 -0.86398,-6.38467 z m -14.21661,-2.38664 q 0.30075,-2.23775 1.53098,-3.76075 1.24083,-1.54851 3.46096,-2.46626 3.68217,-1.52213 7.18325,0.45434 3.51913,1.96901 5.48894,6.73417 1.96982,4.76516 0.86819,8.6443 -1.08358,3.87167 -4.76574,5.3938 -2.22013,0.91776 -4.18472,0.71543 -1.954,-0.22784 -3.74703,-1.60006 l 1.25352,3.03238 -3.33922,1.38037 -11.60998,-28.08557 3.33922,-1.38036 z" />
    <path
       inkscape:connector-curvature="0"
       id="path164"
       style="font-style:normal;font-weight:normal;font-size:medium;line-height:1.25;font-family:sans-serif;letter-spacing:0px;word-spacing:0px;fill:#005500;fill-opacity:1;stroke:none"
       d="m 438.95832,452.43805 1.49303,3.0529 q -1.71178,-0.0325 -3.35721,0.33735 -1.64542,0.36986 -3.22451,1.14212 -2.40373,1.17555 -3.25397,2.50452 -0.83271,1.3204 -0.11193,2.79421 0.54916,1.12291 1.72637,1.35164 1.16862,0.21118 4.04848,-0.48002 l 1.22549,-0.29494 q 3.7993,-0.94489 5.89873,-0.29751 2.1084,0.62126 3.28395,3.02499 1.33858,2.73708 -0.0562,5.39771 -1.37724,2.65206 -5.16706,4.50547 -1.57909,0.77227 -3.45299,1.29735 -1.84778,0.53405 -4.04301,0.84667 l -1.63032,-3.33363 q 2.24441,0.0547 4.21308,-0.32107 1.9601,-0.39331 3.662,-1.22563 2.28091,-1.11548 3.13155,-2.48813 0.84204,-1.39019 0.14701,-2.81137 -0.64354,-1.31591 -1.88159,-1.58011 -1.2205,-0.27278 -4.53821,0.54562 l -1.25162,0.28598 q -3.30917,0.83566 -5.2776,0.18943 -1.97699,-0.66379 -3.09248,-2.94469 -1.35575,-2.77218 -0.12859,-5.24211 1.22715,-2.46995 4.84152,-4.23756 1.78963,-0.87523 3.49743,-1.38431 1.70779,-0.50907 3.29867,-0.63484 z" />
    <path
       inkscape:connector-curvature="0"
       id="path166"
       style="font-style:normal;font-weight:normal;font-size:medium;line-height:1.25;font-family:sans-serif;letter-spacing:0px;word-spacing:0px;fill:#005500;fill-opacity:1;stroke:none"
       d="m 457.73171,442.22616 1.65631,2.92268 q -1.73948,0.0204 -3.28409,0.42438 -1.53726,0.37728 -2.89663,1.14766 -3.04163,1.72372 -3.62607,4.61418 -0.59408,2.87348 1.38001,6.3569 1.97409,3.48342 4.75412,4.4672 2.7704,0.96678 5.81201,-0.75694 1.35939,-0.77038 2.48257,-1.87833 1.13053,-1.13458 2.04185,-2.61637 l 1.63705,2.88869 q -0.96173,1.35322 -2.19876,2.45835 -1.22003,1.09549 -2.80032,1.99105 -4.29905,2.43632 -8.36203,1.16938 -4.06297,-1.26694 -6.663,-5.85486 -2.63855,-4.6559 -1.60157,-8.76815 1.05398,-4.12187 5.50596,-6.64486 1.44434,-0.81853 2.99405,-1.29268 1.54009,-0.49113 3.16854,-0.62826 z" />
    <path
       inkscape:connector-curvature="0"
       id="path168"
       style="font-style:normal;font-weight:normal;font-size:medium;line-height:1.25;font-family:sans-serif;letter-spacing:0px;word-spacing:0px;fill:#005500;fill-opacity:1;stroke:none"
       d="m 474.05891,434.74783 q -0.69939,0.0323 -1.39151,0.29236 -0.68629,0.23302 -1.40874,0.69842 -2.56138,1.65008 -2.86169,4.21333 -0.29448,2.53625 1.71522,5.6559 l 6.24066,9.68729 -3.03754,1.95682 -11.84668,-18.38944 3.03755,-1.95682 1.84046,2.85693 q -0.12658,-2.28825 0.88211,-4.07648 0.9981,-1.80466 3.18186,-3.21144 0.31196,-0.20098 0.72134,-0.395 0.39878,-0.21044 0.91141,-0.42452 z" />
    <path
       inkscape:connector-curvature="0"
       id="path170"
       style="font-style:normal;font-weight:normal;font-size:medium;line-height:1.25;font-family:sans-serif;letter-spacing:0px;word-spacing:0px;fill:#005500;fill-opacity:1;stroke:none"
       d="m 474.56191,430.19741 2.93668,-2.07146 12.60888,17.87545 -2.93668,2.07145 z m -4.90846,-6.95866 2.93668,-2.07146 2.62311,3.71874 -2.93669,2.07145 z" />
    <path
       inkscape:connector-curvature="0"
       id="path172"
       style="font-style:normal;font-weight:normal;font-size:medium;line-height:1.25;font-family:sans-serif;letter-spacing:0px;word-spacing:0px;fill:#005500;fill-opacity:1;stroke:none"
       d="m 501.72719,423.35008 q -2.46857,-3.10261 -5.15086,-3.83876 -2.67916,-0.76361 -4.91058,1.01182 -2.23144,1.77541 -2.10467,4.56981 0.12989,2.76695 2.59846,5.86956 2.46856,3.1026 5.14773,3.86621 2.68229,0.73616 4.91371,-1.03926 2.23144,-1.77543 2.10155,-4.54238 -0.12678,-2.79439 -2.59534,-5.897 z m -14.32237,1.63649 q -0.32961,-2.23368 0.43169,-4.03743 0.76439,-1.83117 2.6443,-3.32691 3.11789,-2.48073 7.02892,-1.54913 3.92631,0.91945 7.13666,4.95437 3.21035,4.03492 3.22402,8.06742 0.0289,4.02035 -3.08895,6.50107 -1.8799,1.49573 -3.82386,1.84439 -1.94083,0.32118 -4.04333,-0.50187 l 2.04294,2.56768 -2.8275,2.24967 -18.9216,-23.78156 2.8275,-2.24967 z" />
    <path
       inkscape:connector-curvature="0"
       id="path174"
       style="font-style:normal;font-weight:normal;font-size:medium;line-height:1.25;font-family:sans-serif;letter-spacing:0px;word-spacing:0px;fill:#005500;fill-opacity:1;stroke:none"
       d="m 521.43165,404.17446 1.2043,1.28046 -12.03625,11.32045 q 2.71314,2.5426 5.50243,2.60045 2.79014,0.0302 5.39374,-2.41851 1.50808,-1.4184 2.56867,-3.11304 1.07482,-1.70803 1.77327,-3.75919 l 2.32831,2.47553 q -0.84648,1.92229 -2.03174,3.62692 -1.18524,1.70464 -2.70756,3.13643 -3.8129,3.58615 -8.13403,3.46753 -4.30692,-0.13199 -7.8663,-3.91644 -3.67981,-3.91249 -3.72855,-8.18349 -0.0479,-4.29861 3.53739,-7.67066 3.21535,-3.02413 7.03277,-2.69989 3.81827,0.29664 7.16355,3.85345 z m -3.34039,1.69387 q -2.04902,-2.12155 -4.43418,-2.29138 -2.37093,-0.18319 -4.30584,1.63665 -2.191,2.06069 -2.34998,4.54291 -0.14474,2.46883 1.7703,4.90407 z" />
    <path
       inkscape:connector-curvature="0"
       id="path176"
       style="font-style:normal;font-weight:normal;font-size:medium;line-height:1.25;font-family:sans-serif;letter-spacing:0px;word-spacing:0px;fill:#005500;fill-opacity:1;stroke:none"
       d="m 532.51324,402.2995 2.66294,-2.93745 3.67545,3.33196 -2.66296,2.93747 z m 0.45711,-4.77898 -2.50553,2.76382 -2.22842,-2.02017 q -1.4615,-1.32492 -2.03476,-2.58276 -0.57326,-1.25784 -0.63708,-3.68831 l -0.10724,-2.46981 q -0.0192,-1.52006 -0.37132,-2.49837 -0.33904,-0.99277 -1.04808,-1.63555 -1.28785,-1.16751 -2.9495,-0.93396 -1.64854,0.21906 -3.06528,1.78186 -1.03633,1.14316 -1.71048,2.90461 -0.66105,1.74698 -0.96399,4.0295 l -2.7204,-2.46619 q 0.40829,-2.10792 1.26245,-3.86437 0.86727,-1.77091 2.21843,-3.26135 2.41371,-2.66253 5.27342,-2.99628 2.87279,-0.34852 5.17359,1.73754 1.09975,0.99696 1.62595,2.42304 0.51173,1.41295 0.57555,3.84342 l 0.0901,2.40153 q 0.0636,1.29664 0.1919,1.94023 0.12702,0.616 0.3838,1.05972 0.22516,0.36229 0.61992,0.79925 0.39475,0.43694 1.1472,1.11908 z" />
  </g>
</svg>
