<svg width="60" height="60" viewBox="0 0 60 60" fill="none" xmlns="http://www.w3.org/2000/svg">
<path d="M51.2133 8.78672C45.547 3.12047 38.0133 0 30 0C21.9867 0 14.453 3.12047 8.78672 8.78672C3.12059 14.453 0 21.9867 0 30C0 38.0133 3.12059 45.547 8.78672 51.2133C14.453 56.8795 21.9867 60 30 60C38.0133 60 45.547 56.8795 51.2133 51.2133C56.8794 45.547 60 38.0133 60 30C60 21.9867 56.8794 14.453 51.2133 8.78672ZM30 56.4844C15.3964 56.4844 3.51562 44.6036 3.51562 30C3.51562 15.3964 15.3964 3.51562 30 3.51562C44.6036 3.51562 56.4844 15.3964 56.4844 30C56.4844 44.6036 44.6036 56.4844 30 56.4844Z" fill="black"/>
<path d="M31.8829 28.2422H28.1172C25.9718 28.2422 24.2266 26.4969 24.2266 24.3517C24.2266 22.2063 25.972 20.4611 28.1172 20.4611H35.6485C36.6193 20.4611 37.4063 19.674 37.4063 18.7032C37.4063 17.7325 36.6193 16.9454 35.6485 16.9454H31.7579V13.0548C31.7579 12.084 30.9708 11.297 30 11.297C29.0293 11.297 28.2422 12.084 28.2422 13.0548V16.9454H28.1173C24.0334 16.9454 20.7111 20.2679 20.7111 24.3517C20.7111 28.4354 24.0336 31.7578 28.1173 31.7578H31.883C34.0283 31.7578 35.7735 33.5032 35.7735 35.6484C35.7735 37.7937 34.0283 39.5391 31.883 39.5391H24.3517C23.3809 39.5391 22.5939 40.3261 22.5939 41.2969C22.5939 42.2677 23.3809 43.0547 24.3517 43.0547H28.2422V46.9454C28.2422 47.9162 29.0293 48.7033 30 48.7033C30.9708 48.7033 31.7579 47.9162 31.7579 46.9454V43.0547H31.8829C35.9667 43.0547 39.289 39.7322 39.289 35.6484C39.289 31.5647 35.9667 28.2422 31.8829 28.2422Z" fill="black"/>
</svg>
