<svg width="60" height="64" viewBox="0 0 60 64" fill="none" xmlns="http://www.w3.org/2000/svg">
<path d="M1.03548 30.7951L15.7084 39.6271C16.2759 39.9653 16.9459 39.9412 17.4885 39.5577L30.5488 30.3875L22.6436 38.8481C22.2411 39.2799 22.0111 39.8959 22.0111 40.5451V61.1532C22.0111 63.3272 24.3086 64.2421 25.3862 62.515L31.7289 52.3302L47.4143 63.1189C48.5143 63.8828 49.9244 63.1159 50.1794 61.597L59.9622 2.71673C60.2547 0.947306 58.7971 -0.496017 57.4421 0.162235L1.19049 26.6584C-0.319555 27.371 -0.417058 29.9225 1.03548 30.7951ZM55.612 5.88721L47.0143 57.6324L32.1514 47.4084C31.3414 46.8498 30.2988 47.0974 29.7238 48.0153L25.7612 54.3774V41.5626L47.1393 18.6869C48.8319 16.8782 46.8868 13.6624 44.9542 15.0333L16.4784 35.0284L6.49814 29.0226L55.612 5.88721Z" fill="black"/>
</svg>
