<svg width="60" height="64" viewBox="0 0 60 64" fill="none" xmlns="http://www.w3.org/2000/svg">
<path d="M55 37.6823V10.5694C55 7.65482 52.7563 5.28463 49.9999 5.28463H42.4999V1.32109C42.5 0.590938 41.9409 0 41.25 0C40.5591 0 40 0.590938 40 1.32122V5.28475H17.5V1.32122C17.5 0.590938 16.941 0 16.25 0C15.5591 0 15 0.590938 15 1.32122V5.28475H5.00004C2.24367 5.28475 0 7.65482 0 10.5694V52.847C0 55.7616 2.24367 58.1318 5.00004 58.1318H35.652C38.1764 61.3574 41.9902 63.4165 46.25 63.4165C53.8305 63.4165 60 56.8971 60 48.8836C60 44.3808 58.0516 40.35 55 37.6823ZM2.49996 10.5694C2.49996 9.11278 3.62063 7.92706 5.00004 7.92706H15V10.5694C13.6206 10.5694 12.5 11.7551 12.5 13.2117C12.5 14.6683 13.6207 15.854 15 15.854C16.3793 15.854 17.5 14.6683 17.5 13.2117V7.92706H40V10.5694C38.6205 10.5694 37.5 11.7551 37.5 13.2117C37.5 14.6683 38.6207 15.854 40 15.854C41.3794 15.854 42.4999 14.6683 42.4999 13.2117V7.92706H49.9999C51.3795 7.92706 52.5 9.11278 52.5 10.5694V18.4964H2.49996V10.5694ZM5.00004 55.4894C3.62063 55.4894 2.50008 54.3037 2.50008 52.8471V21.1389H52.5V35.9552C50.6223 34.9367 48.5014 34.3507 46.25 34.3507C38.6694 34.3507 32.5001 40.8701 32.5001 48.8836C32.5001 51.2632 33.0547 53.5048 34.0181 55.4894H5.00004ZM46.25 60.7742C40.0464 60.7742 35 55.4404 35 48.8836C35 42.3268 40.0465 36.993 46.25 36.993C52.4536 36.993 57.5 42.3268 57.5 48.8836C57.5 55.4404 52.4536 60.7742 46.25 60.7742Z" fill="black"/>
<path d="M56.2499 50.5623H52.4999V46.5988C52.4999 45.8685 51.9408 45.2776 51.2499 45.2776C50.5589 45.2776 50 45.8685 50 46.5988V50.5623H46.25C45.559 50.5623 44.9999 51.1533 44.9999 51.8835C44.9999 52.6138 45.559 53.2048 46.25 53.2048H50V57.1683C50 57.8986 50.5591 58.4895 51.25 58.4895C51.9409 58.4895 52.5 57.8986 52.5 57.1683V53.2048H56.25C56.941 53.2048 57.5001 52.6138 57.5001 51.8835C57.5001 51.1533 56.9408 50.5623 56.2499 50.5623Z" fill="black"/>
</svg>
